<?xml version="1.0" encoding="utf-8" standalone="no"?>
<!DOCTYPE svg PUBLIC "-//W3C//DTD SVG 1.1//EN"
  "http://www.w3.org/Graphics/SVG/1.1/DTD/svg11.dtd">
<svg xmlns:xlink="http://www.w3.org/1999/xlink" width="720pt" height="468pt" viewBox="0 0 720 468" xmlns="http://www.w3.org/2000/svg" version="1.1">
 <metadata>
  <rdf:RDF xmlns:dc="http://purl.org/dc/elements/1.1/" xmlns:cc="http://creativecommons.org/ns#" xmlns:rdf="http://www.w3.org/1999/02/22-rdf-syntax-ns#">
   <cc:Work>
    <dc:type rdf:resource="http://purl.org/dc/dcmitype/StillImage"/>
    <dc:date>2026-07-04T02:52:56.438610</dc:date>
    <dc:format>image/svg+xml</dc:format>
    <dc:creator>
     <cc:Agent>
      <dc:title>Matplotlib v3.10.8, https://matplotlib.org/</dc:title>
     </cc:Agent>
    </dc:creator>
   </cc:Work>
  </rdf:RDF>
 </metadata>
 <defs>
  <style type="text/css">*{stroke-linejoin: round; stroke-linecap: butt}</style>
 </defs>
 <g id="figure_1">
  <g id="patch_1">
   <path d="M 0 468 
L 720 468 
L 720 0 
L 0 0 
z
" style="fill: #ffffff"/>
  </g>
  <g id="axes_1">
   <g id="patch_2">
    <path d="M 50.15 307.84 
L 709.2 307.84 
L 709.2 69.36 
L 50.15 69.36 
z
" style="fill: #ffffff"/>
   </g>
   <g id="matplotlib.axis_1"/>
   <g id="matplotlib.axis_2">
    <g id="ytick_1">
     <g id="line2d_1">
      <path d="M 50.15 272.31359 
L 709.2 272.31359 
" clip-path="url(#p26be7b119a)" style="fill: none; stroke: #e0e3eb; stroke-width: 0.6; stroke-linecap: square"/>
     </g>
     <g id="line2d_2">
      <defs>
       <path id="m83157c1dcc" d="M 0 0 
L -3.5 0 
" style="stroke: #000000; stroke-width: 0.8"/>
      </defs>
      <g>
       <use xlink:href="#m83157c1dcc" x="50.15" y="272.31359" style="stroke: #000000; stroke-width: 0.8"/>
      </g>
     </g>
     <g id="text_1">
      <!-- 95 -->
      <g transform="translate(30.425 276.112809) scale(0.1 -0.1)">
       <defs>
        <path id="DejaVuSans-39" d="M 703 97 
L 703 672 
Q 941 559 1184 500 
Q 1428 441 1663 441 
Q 2288 441 2617 861 
Q 2947 1281 2994 2138 
Q 2813 1869 2534 1725 
Q 2256 1581 1919 1581 
Q 1219 1581 811 2004 
Q 403 2428 403 3163 
Q 403 3881 828 4315 
Q 1253 4750 1959 4750 
Q 2769 4750 3195 4129 
Q 3622 3509 3622 2328 
Q 3622 1225 3098 567 
Q 2575 -91 1691 -91 
Q 1453 -91 1209 -44 
Q 966 3 703 97 
z
M 1959 2075 
Q 2384 2075 2632 2365 
Q 2881 2656 2881 3163 
Q 2881 3666 2632 3958 
Q 2384 4250 1959 4250 
Q 1534 4250 1286 3958 
Q 1038 3666 1038 3163 
Q 1038 2656 1286 2365 
Q 1534 2075 1959 2075 
z
" transform="scale(0.015625)"/>
        <path id="DejaVuSans-35" d="M 691 4666 
L 3169 4666 
L 3169 4134 
L 1269 4134 
L 1269 2991 
Q 1406 3038 1543 3061 
Q 1681 3084 1819 3084 
Q 2600 3084 3056 2656 
Q 3513 2228 3513 1497 
Q 3513 744 3044 326 
Q 2575 -91 1722 -91 
Q 1428 -91 1123 -41 
Q 819 9 494 109 
L 494 744 
Q 775 591 1075 516 
Q 1375 441 1709 441 
Q 2250 441 2565 725 
Q 2881 1009 2881 1497 
Q 2881 1984 2565 2268 
Q 2250 2553 1709 2553 
Q 1456 2553 1204 2497 
Q 953 2441 691 2322 
L 691 4666 
z
" transform="scale(0.015625)"/>
       </defs>
       <use xlink:href="#DejaVuSans-39"/>
       <use xlink:href="#DejaVuSans-35" transform="translate(63.623047 0)"/>
      </g>
     </g>
    </g>
    <g id="ytick_2">
     <g id="line2d_3">
      <path d="M 50.15 234.94272 
L 709.2 234.94272 
" clip-path="url(#p26be7b119a)" style="fill: none; stroke: #e0e3eb; stroke-width: 0.6; stroke-linecap: square"/>
     </g>
     <g id="line2d_4">
      <g>
       <use xlink:href="#m83157c1dcc" x="50.15" y="234.94272" style="stroke: #000000; stroke-width: 0.8"/>
      </g>
     </g>
     <g id="text_2">
      <!-- 96 -->
      <g transform="translate(30.425 238.741939) scale(0.1 -0.1)">
       <defs>
        <path id="DejaVuSans-36" d="M 2113 2584 
Q 1688 2584 1439 2293 
Q 1191 2003 1191 1497 
Q 1191 994 1439 701 
Q 1688 409 2113 409 
Q 2538 409 2786 701 
Q 3034 994 3034 1497 
Q 3034 2003 2786 2293 
Q 2538 2584 2113 2584 
z
M 3366 4563 
L 3366 3988 
Q 3128 4100 2886 4159 
Q 2644 4219 2406 4219 
Q 1781 4219 1451 3797 
Q 1122 3375 1075 2522 
Q 1259 2794 1537 2939 
Q 1816 3084 2150 3084 
Q 2853 3084 3261 2657 
Q 3669 2231 3669 1497 
Q 3669 778 3244 343 
Q 2819 -91 2113 -91 
Q 1303 -91 875 529 
Q 447 1150 447 2328 
Q 447 3434 972 4092 
Q 1497 4750 2381 4750 
Q 2619 4750 2861 4703 
Q 3103 4656 3366 4563 
z
" transform="scale(0.015625)"/>
       </defs>
       <use xlink:href="#DejaVuSans-39"/>
       <use xlink:href="#DejaVuSans-36" transform="translate(63.623047 0)"/>
      </g>
     </g>
    </g>
    <g id="ytick_3">
     <g id="line2d_5">
      <path d="M 50.15 197.57185 
L 709.2 197.57185 
" clip-path="url(#p26be7b119a)" style="fill: none; stroke: #e0e3eb; stroke-width: 0.6; stroke-linecap: square"/>
     </g>
     <g id="line2d_6">
      <g>
       <use xlink:href="#m83157c1dcc" x="50.15" y="197.57185" style="stroke: #000000; stroke-width: 0.8"/>
      </g>
     </g>
     <g id="text_3">
      <!-- 97 -->
      <g transform="translate(30.425 201.371068) scale(0.1 -0.1)">
       <defs>
        <path id="DejaVuSans-37" d="M 525 4666 
L 3525 4666 
L 3525 4397 
L 1831 0 
L 1172 0 
L 2766 4134 
L 525 4134 
L 525 4666 
z
" transform="scale(0.015625)"/>
       </defs>
       <use xlink:href="#DejaVuSans-39"/>
       <use xlink:href="#DejaVuSans-37" transform="translate(63.623047 0)"/>
      </g>
     </g>
    </g>
    <g id="ytick_4">
     <g id="line2d_7">
      <path d="M 50.15 160.200979 
L 709.2 160.200979 
" clip-path="url(#p26be7b119a)" style="fill: none; stroke: #e0e3eb; stroke-width: 0.6; stroke-linecap: square"/>
     </g>
     <g id="line2d_8">
      <g>
       <use xlink:href="#m83157c1dcc" x="50.15" y="160.200979" style="stroke: #000000; stroke-width: 0.8"/>
      </g>
     </g>
     <g id="text_4">
      <!-- 98 -->
      <g transform="translate(30.425 164.000198) scale(0.1 -0.1)">
       <defs>
        <path id="DejaVuSans-38" d="M 2034 2216 
Q 1584 2216 1326 1975 
Q 1069 1734 1069 1313 
Q 1069 891 1326 650 
Q 1584 409 2034 409 
Q 2484 409 2743 651 
Q 3003 894 3003 1313 
Q 3003 1734 2745 1975 
Q 2488 2216 2034 2216 
z
M 1403 2484 
Q 997 2584 770 2862 
Q 544 3141 544 3541 
Q 544 4100 942 4425 
Q 1341 4750 2034 4750 
Q 2731 4750 3128 4425 
Q 3525 4100 3525 3541 
Q 3525 3141 3298 2862 
Q 3072 2584 2669 2484 
Q 3125 2378 3379 2068 
Q 3634 1759 3634 1313 
Q 3634 634 3220 271 
Q 2806 -91 2034 -91 
Q 1263 -91 848 271 
Q 434 634 434 1313 
Q 434 1759 690 2068 
Q 947 2378 1403 2484 
z
M 1172 3481 
Q 1172 3119 1398 2916 
Q 1625 2713 2034 2713 
Q 2441 2713 2670 2916 
Q 2900 3119 2900 3481 
Q 2900 3844 2670 4047 
Q 2441 4250 2034 4250 
Q 1625 4250 1398 4047 
Q 1172 3844 1172 3481 
z
" transform="scale(0.015625)"/>
       </defs>
       <use xlink:href="#DejaVuSans-39"/>
       <use xlink:href="#DejaVuSans-38" transform="translate(63.623047 0)"/>
      </g>
     </g>
    </g>
    <g id="ytick_5">
     <g id="line2d_9">
      <path d="M 50.15 122.830109 
L 709.2 122.830109 
" clip-path="url(#p26be7b119a)" style="fill: none; stroke: #e0e3eb; stroke-width: 0.6; stroke-linecap: square"/>
     </g>
     <g id="line2d_10">
      <g>
       <use xlink:href="#m83157c1dcc" x="50.15" y="122.830109" style="stroke: #000000; stroke-width: 0.8"/>
      </g>
     </g>
     <g id="text_5">
      <!-- 99 -->
      <g transform="translate(30.425 126.629328) scale(0.1 -0.1)">
       <use xlink:href="#DejaVuSans-39"/>
       <use xlink:href="#DejaVuSans-39" transform="translate(63.623047 0)"/>
      </g>
     </g>
    </g>
    <g id="ytick_6">
     <g id="line2d_11">
      <path d="M 50.15 85.459239 
L 709.2 85.459239 
" clip-path="url(#p26be7b119a)" style="fill: none; stroke: #e0e3eb; stroke-width: 0.6; stroke-linecap: square"/>
     </g>
     <g id="line2d_12">
      <g>
       <use xlink:href="#m83157c1dcc" x="50.15" y="85.459239" style="stroke: #000000; stroke-width: 0.8"/>
      </g>
     </g>
     <g id="text_6">
      <!-- 100 -->
      <g transform="translate(24.0625 89.258457) scale(0.1 -0.1)">
       <defs>
        <path id="DejaVuSans-31" d="M 794 531 
L 1825 531 
L 1825 4091 
L 703 3866 
L 703 4441 
L 1819 4666 
L 2450 4666 
L 2450 531 
L 3481 531 
L 3481 0 
L 794 0 
L 794 531 
z
" transform="scale(0.015625)"/>
        <path id="DejaVuSans-30" d="M 2034 4250 
Q 1547 4250 1301 3770 
Q 1056 3291 1056 2328 
Q 1056 1369 1301 889 
Q 1547 409 2034 409 
Q 2525 409 2770 889 
Q 3016 1369 3016 2328 
Q 3016 3291 2770 3770 
Q 2525 4250 2034 4250 
z
M 2034 4750 
Q 2819 4750 3233 4129 
Q 3647 3509 3647 2328 
Q 3647 1150 3233 529 
Q 2819 -91 2034 -91 
Q 1250 -91 836 529 
Q 422 1150 422 2328 
Q 422 3509 836 4129 
Q 1250 4750 2034 4750 
z
" transform="scale(0.015625)"/>
       </defs>
       <use xlink:href="#DejaVuSans-31"/>
       <use xlink:href="#DejaVuSans-30" transform="translate(63.623047 0)"/>
       <use xlink:href="#DejaVuSans-30" transform="translate(127.246094 0)"/>
      </g>
     </g>
    </g>
    <g id="text_7">
     <!-- Gia -->
     <g transform="translate(18.190781 196.094609) rotate(-90) scale(0.09 -0.09)">
      <defs>
       <path id="DejaVuSans-47" d="M 3809 666 
L 3809 1919 
L 2778 1919 
L 2778 2438 
L 4434 2438 
L 4434 434 
Q 4069 175 3628 42 
Q 3188 -91 2688 -91 
Q 1594 -91 976 548 
Q 359 1188 359 2328 
Q 359 3472 976 4111 
Q 1594 4750 2688 4750 
Q 3144 4750 3555 4637 
Q 3966 4525 4313 4306 
L 4313 3634 
Q 3963 3931 3569 4081 
Q 3175 4231 2741 4231 
Q 1884 4231 1454 3753 
Q 1025 3275 1025 2328 
Q 1025 1384 1454 906 
Q 1884 428 2741 428 
Q 3075 428 3337 486 
Q 3600 544 3809 666 
z
" transform="scale(0.015625)"/>
       <path id="DejaVuSans-69" d="M 603 3500 
L 1178 3500 
L 1178 0 
L 603 0 
L 603 3500 
z
M 603 4863 
L 1178 4863 
L 1178 4134 
L 603 4134 
L 603 4863 
z
" transform="scale(0.015625)"/>
       <path id="DejaVuSans-61" d="M 2194 1759 
Q 1497 1759 1228 1600 
Q 959 1441 959 1056 
Q 959 750 1161 570 
Q 1363 391 1709 391 
Q 2188 391 2477 730 
Q 2766 1069 2766 1631 
L 2766 1759 
L 2194 1759 
z
M 3341 1997 
L 3341 0 
L 2766 0 
L 2766 531 
Q 2569 213 2275 61 
Q 1981 -91 1556 -91 
Q 1019 -91 701 211 
Q 384 513 384 1019 
Q 384 1609 779 1909 
Q 1175 2209 1959 2209 
L 2766 2209 
L 2766 2266 
Q 2766 2663 2505 2880 
Q 2244 3097 1772 3097 
Q 1472 3097 1187 3025 
Q 903 2953 641 2809 
L 641 3341 
Q 956 3463 1253 3523 
Q 1550 3584 1831 3584 
Q 2591 3584 2966 3190 
Q 3341 2797 3341 1997 
z
" transform="scale(0.015625)"/>
      </defs>
      <use xlink:href="#DejaVuSans-47"/>
      <use xlink:href="#DejaVuSans-69" transform="translate(77.490234 0)"/>
      <use xlink:href="#DejaVuSans-61" transform="translate(105.273438 0)"/>
     </g>
    </g>
   </g>
   <g id="line2d_13">
    <path d="M 86.179146 109.160918 
L 86.179146 80.2 
" clip-path="url(#p26be7b119a)" style="fill: none; stroke: #ef5350; stroke-width: 1.2; stroke-linecap: square"/>
   </g>
   <g id="line2d_14">
    <path d="M 106.42024 111.233424 
L 106.42024 93.145949 
" clip-path="url(#p26be7b119a)" style="fill: none; stroke: #ef5350; stroke-width: 1.2; stroke-linecap: square"/>
   </g>
   <g id="line2d_15">
    <path d="M 126.661333 124.12252 
L 126.661333 101.578468 
" clip-path="url(#p26be7b119a)" style="fill: none; stroke: #ef5350; stroke-width: 1.2; stroke-linecap: square"/>
   </g>
   <g id="line2d_16">
    <path d="M 146.902426 130.242003 
L 146.902426 116.885146 
" clip-path="url(#p26be7b119a)" style="fill: none; stroke: #ef5350; stroke-width: 1.2; stroke-linecap: square"/>
   </g>
   <g id="line2d_17">
    <path d="M 167.14352 127.708663 
L 167.14352 114.06306 
" clip-path="url(#p26be7b119a)" style="fill: none; stroke: #ef5350; stroke-width: 1.2; stroke-linecap: square"/>
   </g>
   <g id="line2d_18">
    <path d="M 187.384613 155.562327 
L 187.384613 131.292297 
" clip-path="url(#p26be7b119a)" style="fill: none; stroke: #ef5350; stroke-width: 1.2; stroke-linecap: square"/>
   </g>
   <g id="line2d_19">
    <path d="M 207.625706 153.459453 
L 207.625706 146.96346 
" clip-path="url(#p26be7b119a)" style="fill: none; stroke: #26a69a; stroke-width: 1.2; stroke-linecap: square"/>
   </g>
   <g id="line2d_20">
    <path d="M 227.8668 170.888874 
L 227.8668 154.574479 
" clip-path="url(#p26be7b119a)" style="fill: none; stroke: #ef5350; stroke-width: 1.2; stroke-linecap: square"/>
   </g>
   <g id="line2d_21">
    <path d="M 248.107893 173.522399 
L 248.107893 159.776776 
" clip-path="url(#p26be7b119a)" style="fill: none; stroke: #ef5350; stroke-width: 1.2; stroke-linecap: square"/>
   </g>
   <g id="line2d_22">
    <path d="M 268.348986 181.263244 
L 268.348986 170.814101 
" clip-path="url(#p26be7b119a)" style="fill: none; stroke: #ef5350; stroke-width: 1.2; stroke-linecap: square"/>
   </g>
   <g id="line2d_23">
    <path d="M 288.59008 189.395964 
L 288.59008 173.654619 
" clip-path="url(#p26be7b119a)" style="fill: none; stroke: #ef5350; stroke-width: 1.2; stroke-linecap: square"/>
   </g>
   <g id="line2d_24">
    <path d="M 308.831173 209.596096 
L 308.831173 191.686211 
" clip-path="url(#p26be7b119a)" style="fill: none; stroke: #ef5350; stroke-width: 1.2; stroke-linecap: square"/>
   </g>
   <g id="line2d_25">
    <path d="M 329.072267 199.654817 
L 329.072267 179.626216 
" clip-path="url(#p26be7b119a)" style="fill: none; stroke: #26a69a; stroke-width: 1.2; stroke-linecap: square"/>
   </g>
   <g id="line2d_26">
    <path d="M 349.31336 198.152509 
L 349.31336 182.833501 
" clip-path="url(#p26be7b119a)" style="fill: none; stroke: #26a69a; stroke-width: 1.2; stroke-linecap: square"/>
   </g>
   <g id="line2d_27">
    <path d="M 369.554453 220.10238 
L 369.554453 185.130206 
" clip-path="url(#p26be7b119a)" style="fill: none; stroke: #ef5350; stroke-width: 1.2; stroke-linecap: square"/>
   </g>
   <g id="line2d_28">
    <path d="M 389.795547 188.36993 
L 389.795547 177.219149 
" clip-path="url(#p26be7b119a)" style="fill: none; stroke: #26a69a; stroke-width: 1.2; stroke-linecap: square"/>
   </g>
   <g id="line2d_29">
    <path d="M 410.03664 192.181923 
L 410.03664 183.399626 
" clip-path="url(#p26be7b119a)" style="fill: none; stroke: #ef5350; stroke-width: 1.2; stroke-linecap: square"/>
   </g>
   <g id="line2d_30">
    <path d="M 430.277733 186.15918 
L 430.277733 171.571211 
" clip-path="url(#p26be7b119a)" style="fill: none; stroke: #ef5350; stroke-width: 1.2; stroke-linecap: square"/>
   </g>
   <g id="line2d_31">
    <path d="M 450.518827 199.08797 
L 450.518827 177.229883 
" clip-path="url(#p26be7b119a)" style="fill: none; stroke: #ef5350; stroke-width: 1.2; stroke-linecap: square"/>
   </g>
   <g id="line2d_32">
    <path d="M 470.75992 214.964757 
L 470.75992 184.982331 
" clip-path="url(#p26be7b119a)" style="fill: none; stroke: #ef5350; stroke-width: 1.2; stroke-linecap: square"/>
   </g>
   <g id="line2d_33">
    <path d="M 491.001014 222.001494 
L 491.001014 192.544772 
" clip-path="url(#p26be7b119a)" style="fill: none; stroke: #ef5350; stroke-width: 1.2; stroke-linecap: square"/>
   </g>
   <g id="line2d_34">
    <path d="M 511.242107 220.648152 
L 511.242107 204.664631 
" clip-path="url(#p26be7b119a)" style="fill: none; stroke: #ef5350; stroke-width: 1.2; stroke-linecap: square"/>
   </g>
   <g id="line2d_35">
    <path d="M 531.4832 229.938054 
L 531.4832 208.444143 
" clip-path="url(#p26be7b119a)" style="fill: none; stroke: #ef5350; stroke-width: 1.2; stroke-linecap: square"/>
   </g>
   <g id="line2d_36">
    <path d="M 551.724294 229.099745 
L 551.724294 218.442942 
" clip-path="url(#p26be7b119a)" style="fill: none; stroke: #26a69a; stroke-width: 1.2; stroke-linecap: square"/>
   </g>
   <g id="line2d_37">
    <path d="M 571.965387 242.467706 
L 571.965387 228.540144 
" clip-path="url(#p26be7b119a)" style="fill: none; stroke: #26a69a; stroke-width: 1.2; stroke-linecap: square"/>
   </g>
   <g id="line2d_38">
    <path d="M 592.20648 263.23387 
L 592.20648 232.975505 
" clip-path="url(#p26be7b119a)" style="fill: none; stroke: #ef5350; stroke-width: 1.2; stroke-linecap: square"/>
   </g>
   <g id="line2d_39">
    <path d="M 612.447574 260.100105 
L 612.447574 246.421774 
" clip-path="url(#p26be7b119a)" style="fill: none; stroke: #ef5350; stroke-width: 1.2; stroke-linecap: square"/>
   </g>
   <g id="line2d_40">
    <path d="M 632.688667 277.475562 
L 632.688667 257.24908 
" clip-path="url(#p26be7b119a)" style="fill: none; stroke: #ef5350; stroke-width: 1.2; stroke-linecap: square"/>
   </g>
   <g id="line2d_41">
    <path d="M 652.92976 281.424717 
L 652.92976 265.43837 
" clip-path="url(#p26be7b119a)" style="fill: none; stroke: #ef5350; stroke-width: 1.2; stroke-linecap: square"/>
   </g>
   <g id="line2d_42">
    <path d="M 673.170854 297 
L 673.170854 272.114761 
" clip-path="url(#p26be7b119a)" style="fill: none; stroke: #ef5350; stroke-width: 1.2; stroke-linecap: square"/>
   </g>
   <g id="line2d_43">
    <path d="M 308.831173 211.46464 
L 632.688667 279.344106 
" clip-path="url(#p26be7b119a)" style="fill: none; stroke-dasharray: 5.18,2.24; stroke-dashoffset: 0; stroke: #26a69a; stroke-width: 1.4"/>
   </g>
   <g id="patch_3">
    <path d="M 50.15 307.84 
L 50.15 69.36 
" style="fill: none; stroke: #000000; stroke-width: 0.8; stroke-linejoin: miter; stroke-linecap: square"/>
   </g>
   <g id="patch_4">
    <path d="M 709.2 307.84 
L 709.2 69.36 
" style="fill: none; stroke: #000000; stroke-width: 0.8; stroke-linejoin: miter; stroke-linecap: square"/>
   </g>
   <g id="patch_5">
    <path d="M 50.15 307.84 
L 709.2 307.84 
" style="fill: none; stroke: #000000; stroke-width: 0.8; stroke-linejoin: miter; stroke-linecap: square"/>
   </g>
   <g id="patch_6">
    <path d="M 50.15 69.36 
L 709.2 69.36 
" style="fill: none; stroke: #000000; stroke-width: 0.8; stroke-linejoin: miter; stroke-linecap: square"/>
   </g>
   <g id="patch_7">
    <path d="M 80.106818 104.038699 
L 92.251474 104.038699 
L 92.251474 86.176817 
L 80.106818 86.176817 
z
" clip-path="url(#p26be7b119a)" style="fill: #ef5350; stroke: #ef5350; stroke-linejoin: miter"/>
   </g>
   <g id="patch_8">
    <path d="M 100.347912 104.736342 
L 112.492568 104.736342 
L 112.492568 96.544072 
L 100.347912 96.544072 
z
" clip-path="url(#p26be7b119a)" style="fill: #ef5350; stroke: #ef5350; stroke-linejoin: miter"/>
   </g>
   <g id="patch_9">
    <path d="M 120.589005 118.299076 
L 132.733661 118.299076 
L 132.733661 108.089474 
L 120.589005 108.089474 
z
" clip-path="url(#p26be7b119a)" style="fill: #ef5350; stroke: #ef5350; stroke-linejoin: miter"/>
   </g>
   <g id="patch_10">
    <path d="M 140.830098 122.503728 
L 152.974754 122.503728 
L 152.974754 120.132225 
L 140.830098 120.132225 
z
" clip-path="url(#p26be7b119a)" style="fill: #ef5350; stroke: #ef5350; stroke-linejoin: miter"/>
   </g>
   <g id="patch_11">
    <path d="M 161.071192 125.244835 
L 173.215848 125.244835 
L 173.215848 122.258951 
L 161.071192 122.258951 
z
" clip-path="url(#p26be7b119a)" style="fill: #ef5350; stroke: #ef5350; stroke-linejoin: miter"/>
   </g>
   <g id="patch_12">
    <path d="M 181.312285 152.972295 
L 193.456941 152.972295 
L 193.456941 136.360701 
L 181.312285 136.360701 
z
" clip-path="url(#p26be7b119a)" style="fill: #ef5350; stroke: #ef5350; stroke-linejoin: miter"/>
   </g>
   <g id="patch_13">
    <path d="M 201.553378 150.791579 
L 213.698034 150.791579 
L 213.698034 148.923035 
L 201.553378 148.923035 
z
" clip-path="url(#p26be7b119a)" style="fill: #26a69a; stroke: #26a69a; stroke-linejoin: miter"/>
   </g>
   <g id="patch_14">
    <path d="M 221.794472 167.512467 
L 233.939128 167.512467 
L 233.939128 159.939348 
L 221.794472 159.939348 
z
" clip-path="url(#p26be7b119a)" style="fill: #ef5350; stroke: #ef5350; stroke-linejoin: miter"/>
   </g>
   <g id="patch_15">
    <path d="M 242.035565 168.762152 
L 254.180221 168.762152 
L 254.180221 165.421546 
L 242.035565 165.421546 
z
" clip-path="url(#p26be7b119a)" style="fill: #ef5350; stroke: #ef5350; stroke-linejoin: miter"/>
   </g>
   <g id="patch_16">
    <path d="M 262.276658 174.157156 
L 274.421314 174.157156 
L 274.421314 172.288612 
L 262.276658 172.288612 
z
" clip-path="url(#p26be7b119a)" style="fill: #ef5350; stroke: #ef5350; stroke-linejoin: miter"/>
   </g>
   <g id="patch_17">
    <path d="M 282.517752 184.97414 
L 294.662408 184.97414 
L 294.662408 182.171591 
L 282.517752 182.171591 
z
" clip-path="url(#p26be7b119a)" style="fill: #ef5350; stroke: #ef5350; stroke-linejoin: miter"/>
   </g>
   <g id="patch_18">
    <path d="M 302.758845 201.923414 
L 314.903501 201.923414 
L 314.903501 196.819079 
L 302.758845 196.819079 
z
" clip-path="url(#p26be7b119a)" style="fill: #ef5350; stroke: #ef5350; stroke-linejoin: miter"/>
   </g>
   <g id="patch_19">
    <path d="M 322.999939 197.172682 
L 335.144595 197.172682 
L 335.144595 185.562266 
L 322.999939 185.562266 
z
" clip-path="url(#p26be7b119a)" style="fill: #26a69a; stroke: #26a69a; stroke-linejoin: miter"/>
   </g>
   <g id="patch_20">
    <path d="M 343.241032 196.08065 
L 355.385688 196.08065 
L 355.385688 187.738615 
L 343.241032 187.738615 
z
" clip-path="url(#p26be7b119a)" style="fill: #26a69a; stroke: #26a69a; stroke-linejoin: miter"/>
   </g>
   <g id="patch_21">
    <path d="M 363.482125 210.97955 
L 375.626781 210.97955 
L 375.626781 194.426972 
L 363.482125 194.426972 
z
" clip-path="url(#p26be7b119a)" style="fill: #ef5350; stroke: #ef5350; stroke-linejoin: miter"/>
   </g>
   <g id="patch_22">
    <path d="M 383.723219 185.236566 
L 395.867875 185.236566 
L 395.867875 183.368022 
L 383.723219 183.368022 
z
" clip-path="url(#p26be7b119a)" style="fill: #26a69a; stroke: #26a69a; stroke-linejoin: miter"/>
   </g>
   <g id="patch_23">
    <path d="M 403.964312 189.971967 
L 416.108968 189.971967 
L 416.108968 187.933642 
L 403.964312 187.933642 
z
" clip-path="url(#p26be7b119a)" style="fill: #ef5350; stroke: #ef5350; stroke-linejoin: miter"/>
   </g>
   <g id="patch_24">
    <path d="M 424.205405 181.872432 
L 436.350061 181.872432 
L 436.350061 177.206742 
L 424.205405 177.206742 
z
" clip-path="url(#p26be7b119a)" style="fill: #ef5350; stroke: #ef5350; stroke-linejoin: miter"/>
   </g>
   <g id="patch_25">
    <path d="M 444.446499 191.712851 
L 456.591155 191.712851 
L 456.591155 185.317066 
L 444.446499 185.317066 
z
" clip-path="url(#p26be7b119a)" style="fill: #ef5350; stroke: #ef5350; stroke-linejoin: miter"/>
   </g>
   <g id="patch_26">
    <path d="M 464.687592 211.082754 
L 476.832248 211.082754 
L 476.832248 192.810818 
L 464.687592 192.810818 
z
" clip-path="url(#p26be7b119a)" style="fill: #ef5350; stroke: #ef5350; stroke-linejoin: miter"/>
   </g>
   <g id="patch_27">
    <path d="M 484.928686 217.236532 
L 497.073342 217.236532 
L 497.073342 199.362729 
L 484.928686 199.362729 
z
" clip-path="url(#p26be7b119a)" style="fill: #ef5350; stroke: #ef5350; stroke-linejoin: miter"/>
   </g>
   <g id="patch_28">
    <path d="M 505.169779 214.661504 
L 517.314435 214.661504 
L 517.314435 209.155652 
L 505.169779 209.155652 
z
" clip-path="url(#p26be7b119a)" style="fill: #ef5350; stroke: #ef5350; stroke-linejoin: miter"/>
   </g>
   <g id="patch_29">
    <path d="M 525.410872 227.757107 
L 537.555528 227.757107 
L 537.555528 212.654035 
L 525.410872 212.654035 
z
" clip-path="url(#p26be7b119a)" style="fill: #ef5350; stroke: #ef5350; stroke-linejoin: miter"/>
   </g>
   <g id="patch_30">
    <path d="M 545.651966 224.116313 
L 557.796622 224.116313 
L 557.796622 221.91571 
L 545.651966 221.91571 
z
" clip-path="url(#p26be7b119a)" style="fill: #26a69a; stroke: #26a69a; stroke-linejoin: miter"/>
   </g>
   <g id="patch_31">
    <path d="M 565.893059 234.009541 
L 578.037715 234.009541 
L 578.037715 231.682863 
L 565.893059 231.682863 
z
" clip-path="url(#p26be7b119a)" style="fill: #26a69a; stroke: #26a69a; stroke-linejoin: miter"/>
   </g>
   <g id="patch_32">
    <path d="M 586.134152 255.768831 
L 598.278808 255.768831 
L 598.278808 241.338483 
L 586.134152 241.338483 
z
" clip-path="url(#p26be7b119a)" style="fill: #ef5350; stroke: #ef5350; stroke-linejoin: miter"/>
   </g>
   <g id="patch_33">
    <path d="M 606.375246 251.366842 
L 618.519902 251.366842 
L 618.519902 249.498298 
L 606.375246 249.498298 
z
" clip-path="url(#p26be7b119a)" style="fill: #ef5350; stroke: #ef5350; stroke-linejoin: miter"/>
   </g>
   <g id="patch_34">
    <path d="M 626.616339 268.776255 
L 638.760995 268.776255 
L 638.760995 261.08915 
L 626.616339 261.08915 
z
" clip-path="url(#p26be7b119a)" style="fill: #ef5350; stroke: #ef5350; stroke-linejoin: miter"/>
   </g>
   <g id="patch_35">
    <path d="M 646.857432 273.380638 
L 659.002088 273.380638 
L 659.002088 271.512095 
L 646.857432 271.512095 
z
" clip-path="url(#p26be7b119a)" style="fill: #ef5350; stroke: #ef5350; stroke-linejoin: miter"/>
   </g>
   <g id="patch_36">
    <path d="M 667.098526 291.474596 
L 679.243182 291.474596 
L 679.243182 278.402465 
L 667.098526 278.402465 
z
" clip-path="url(#p26be7b119a)" style="fill: #ef5350; stroke: #ef5350; stroke-linejoin: miter"/>
   </g>
   <g id="text_8">
    <!-- Day 1 -->
    <g style="fill: #131722" transform="translate(295.651798 222.040321) scale(0.09 -0.09)">
     <defs>
      <path id="DejaVuSans-44" d="M 1259 4147 
L 1259 519 
L 2022 519 
Q 2988 519 3436 956 
Q 3884 1394 3884 2338 
Q 3884 3275 3436 3711 
Q 2988 4147 2022 4147 
L 1259 4147 
z
M 628 4666 
L 1925 4666 
Q 3281 4666 3915 4102 
Q 4550 3538 4550 2338 
Q 4550 1131 3912 565 
Q 3275 0 1925 0 
L 628 0 
L 628 4666 
z
" transform="scale(0.015625)"/>
      <path id="DejaVuSans-79" d="M 2059 -325 
Q 1816 -950 1584 -1140 
Q 1353 -1331 966 -1331 
L 506 -1331 
L 506 -850 
L 844 -850 
Q 1081 -850 1212 -737 
Q 1344 -625 1503 -206 
L 1606 56 
L 191 3500 
L 800 3500 
L 1894 763 
L 2988 3500 
L 3597 3500 
L 2059 -325 
z
" transform="scale(0.015625)"/>
      <path id="DejaVuSans-20" transform="scale(0.015625)"/>
     </defs>
     <use xlink:href="#DejaVuSans-44"/>
     <use xlink:href="#DejaVuSans-61" transform="translate(77.001953 0)"/>
     <use xlink:href="#DejaVuSans-79" transform="translate(138.28125 0)"/>
     <use xlink:href="#DejaVuSans-20" transform="translate(197.460938 0)"/>
     <use xlink:href="#DejaVuSans-31" transform="translate(229.248047 0)"/>
    </g>
   </g>
   <g id="text_9">
    <!-- Day 2 (thap hon) -->
    <g style="fill: #131722" transform="translate(594.449917 289.919786) scale(0.09 -0.09)">
     <defs>
      <path id="DejaVuSans-32" d="M 1228 531 
L 3431 531 
L 3431 0 
L 469 0 
L 469 531 
Q 828 903 1448 1529 
Q 2069 2156 2228 2338 
Q 2531 2678 2651 2914 
Q 2772 3150 2772 3378 
Q 2772 3750 2511 3984 
Q 2250 4219 1831 4219 
Q 1534 4219 1204 4116 
Q 875 4013 500 3803 
L 500 4441 
Q 881 4594 1212 4672 
Q 1544 4750 1819 4750 
Q 2544 4750 2975 4387 
Q 3406 4025 3406 3419 
Q 3406 3131 3298 2873 
Q 3191 2616 2906 2266 
Q 2828 2175 2409 1742 
Q 1991 1309 1228 531 
z
" transform="scale(0.015625)"/>
      <path id="DejaVuSans-28" d="M 1984 4856 
Q 1566 4138 1362 3434 
Q 1159 2731 1159 2009 
Q 1159 1288 1364 580 
Q 1569 -128 1984 -844 
L 1484 -844 
Q 1016 -109 783 600 
Q 550 1309 550 2009 
Q 550 2706 781 3412 
Q 1013 4119 1484 4856 
L 1984 4856 
z
" transform="scale(0.015625)"/>
      <path id="DejaVuSans-74" d="M 1172 4494 
L 1172 3500 
L 2356 3500 
L 2356 3053 
L 1172 3053 
L 1172 1153 
Q 1172 725 1289 603 
Q 1406 481 1766 481 
L 2356 481 
L 2356 0 
L 1766 0 
Q 1100 0 847 248 
Q 594 497 594 1153 
L 594 3053 
L 172 3053 
L 172 3500 
L 594 3500 
L 594 4494 
L 1172 4494 
z
" transform="scale(0.015625)"/>
      <path id="DejaVuSans-68" d="M 3513 2113 
L 3513 0 
L 2938 0 
L 2938 2094 
Q 2938 2591 2744 2837 
Q 2550 3084 2163 3084 
Q 1697 3084 1428 2787 
Q 1159 2491 1159 1978 
L 1159 0 
L 581 0 
L 581 4863 
L 1159 4863 
L 1159 2956 
Q 1366 3272 1645 3428 
Q 1925 3584 2291 3584 
Q 2894 3584 3203 3211 
Q 3513 2838 3513 2113 
z
" transform="scale(0.015625)"/>
      <path id="DejaVuSans-70" d="M 1159 525 
L 1159 -1331 
L 581 -1331 
L 581 3500 
L 1159 3500 
L 1159 2969 
Q 1341 3281 1617 3432 
Q 1894 3584 2278 3584 
Q 2916 3584 3314 3078 
Q 3713 2572 3713 1747 
Q 3713 922 3314 415 
Q 2916 -91 2278 -91 
Q 1894 -91 1617 61 
Q 1341 213 1159 525 
z
M 3116 1747 
Q 3116 2381 2855 2742 
Q 2594 3103 2138 3103 
Q 1681 3103 1420 2742 
Q 1159 2381 1159 1747 
Q 1159 1113 1420 752 
Q 1681 391 2138 391 
Q 2594 391 2855 752 
Q 3116 1113 3116 1747 
z
" transform="scale(0.015625)"/>
      <path id="DejaVuSans-6f" d="M 1959 3097 
Q 1497 3097 1228 2736 
Q 959 2375 959 1747 
Q 959 1119 1226 758 
Q 1494 397 1959 397 
Q 2419 397 2687 759 
Q 2956 1122 2956 1747 
Q 2956 2369 2687 2733 
Q 2419 3097 1959 3097 
z
M 1959 3584 
Q 2709 3584 3137 3096 
Q 3566 2609 3566 1747 
Q 3566 888 3137 398 
Q 2709 -91 1959 -91 
Q 1206 -91 779 398 
Q 353 888 353 1747 
Q 353 2609 779 3096 
Q 1206 3584 1959 3584 
z
" transform="scale(0.015625)"/>
      <path id="DejaVuSans-6e" d="M 3513 2113 
L 3513 0 
L 2938 0 
L 2938 2094 
Q 2938 2591 2744 2837 
Q 2550 3084 2163 3084 
Q 1697 3084 1428 2787 
Q 1159 2491 1159 1978 
L 1159 0 
L 581 0 
L 581 3500 
L 1159 3500 
L 1159 2956 
Q 1366 3272 1645 3428 
Q 1925 3584 2291 3584 
Q 2894 3584 3203 3211 
Q 3513 2838 3513 2113 
z
" transform="scale(0.015625)"/>
      <path id="DejaVuSans-29" d="M 513 4856 
L 1013 4856 
Q 1481 4119 1714 3412 
Q 1947 2706 1947 2009 
Q 1947 1309 1714 600 
Q 1481 -109 1013 -844 
L 513 -844 
Q 928 -128 1133 580 
Q 1338 1288 1338 2009 
Q 1338 2731 1133 3434 
Q 928 4138 513 4856 
z
" transform="scale(0.015625)"/>
     </defs>
     <use xlink:href="#DejaVuSans-44"/>
     <use xlink:href="#DejaVuSans-61" transform="translate(77.001953 0)"/>
     <use xlink:href="#DejaVuSans-79" transform="translate(138.28125 0)"/>
     <use xlink:href="#DejaVuSans-20" transform="translate(197.460938 0)"/>
     <use xlink:href="#DejaVuSans-32" transform="translate(229.248047 0)"/>
     <use xlink:href="#DejaVuSans-20" transform="translate(292.871094 0)"/>
     <use xlink:href="#DejaVuSans-28" transform="translate(324.658203 0)"/>
     <use xlink:href="#DejaVuSans-74" transform="translate(363.671875 0)"/>
     <use xlink:href="#DejaVuSans-68" transform="translate(402.880859 0)"/>
     <use xlink:href="#DejaVuSans-61" transform="translate(466.259766 0)"/>
     <use xlink:href="#DejaVuSans-70" transform="translate(527.539062 0)"/>
     <use xlink:href="#DejaVuSans-20" transform="translate(591.015625 0)"/>
     <use xlink:href="#DejaVuSans-68" transform="translate(622.802734 0)"/>
     <use xlink:href="#DejaVuSans-6f" transform="translate(686.181641 0)"/>
     <use xlink:href="#DejaVuSans-6e" transform="translate(747.363281 0)"/>
     <use xlink:href="#DejaVuSans-29" transform="translate(810.742188 0)"/>
    </g>
   </g>
   <g id="text_10">
    <!-- Gia: Day sau THAP hon day truoc (Lower Low) -->
    <g style="fill: #131722" transform="translate(50.15 63.36) scale(0.12 -0.12)">
     <defs>
      <path id="DejaVuSans-Bold-47" d="M 4781 347 
Q 4331 128 3847 18 
Q 3363 -91 2847 -91 
Q 1681 -91 1000 561 
Q 319 1213 319 2328 
Q 319 3456 1012 4103 
Q 1706 4750 2913 4750 
Q 3378 4750 3804 4662 
Q 4231 4575 4609 4403 
L 4609 3438 
Q 4219 3659 3833 3768 
Q 3447 3878 3059 3878 
Q 2341 3878 1952 3476 
Q 1563 3075 1563 2328 
Q 1563 1588 1938 1184 
Q 2313 781 3003 781 
Q 3191 781 3352 804 
Q 3513 828 3641 878 
L 3641 1784 
L 2906 1784 
L 2906 2591 
L 4781 2591 
L 4781 347 
z
" transform="scale(0.015625)"/>
      <path id="DejaVuSans-Bold-69" d="M 538 3500 
L 1656 3500 
L 1656 0 
L 538 0 
L 538 3500 
z
M 538 4863 
L 1656 4863 
L 1656 3950 
L 538 3950 
L 538 4863 
z
" transform="scale(0.015625)"/>
      <path id="DejaVuSans-Bold-61" d="M 2106 1575 
Q 1756 1575 1579 1456 
Q 1403 1338 1403 1106 
Q 1403 894 1545 773 
Q 1688 653 1941 653 
Q 2256 653 2472 879 
Q 2688 1106 2688 1447 
L 2688 1575 
L 2106 1575 
z
M 3816 1997 
L 3816 0 
L 2688 0 
L 2688 519 
Q 2463 200 2181 54 
Q 1900 -91 1497 -91 
Q 953 -91 614 226 
Q 275 544 275 1050 
Q 275 1666 698 1953 
Q 1122 2241 2028 2241 
L 2688 2241 
L 2688 2328 
Q 2688 2594 2478 2717 
Q 2269 2841 1825 2841 
Q 1466 2841 1156 2769 
Q 847 2697 581 2553 
L 581 3406 
Q 941 3494 1303 3539 
Q 1666 3584 2028 3584 
Q 2975 3584 3395 3211 
Q 3816 2838 3816 1997 
z
" transform="scale(0.015625)"/>
      <path id="DejaVuSans-Bold-3a" d="M 716 3500 
L 1844 3500 
L 1844 2291 
L 716 2291 
L 716 3500 
z
M 716 1209 
L 1844 1209 
L 1844 0 
L 716 0 
L 716 1209 
z
" transform="scale(0.015625)"/>
      <path id="DejaVuSans-Bold-20" transform="scale(0.015625)"/>
      <path id="DejaVuSans-Bold-44" d="M 1791 3756 
L 1791 909 
L 2222 909 
Q 2959 909 3348 1275 
Q 3738 1641 3738 2338 
Q 3738 3031 3350 3393 
Q 2963 3756 2222 3756 
L 1791 3756 
z
M 588 4666 
L 1856 4666 
Q 2919 4666 3439 4514 
Q 3959 4363 4331 4000 
Q 4659 3684 4818 3271 
Q 4978 2859 4978 2338 
Q 4978 1809 4818 1395 
Q 4659 981 4331 666 
Q 3956 303 3431 151 
Q 2906 0 1856 0 
L 588 0 
L 588 4666 
z
" transform="scale(0.015625)"/>
      <path id="DejaVuSans-Bold-79" d="M 78 3500 
L 1197 3500 
L 2138 1125 
L 2938 3500 
L 4056 3500 
L 2584 -331 
Q 2363 -916 2067 -1148 
Q 1772 -1381 1288 -1381 
L 641 -1381 
L 641 -647 
L 991 -647 
Q 1275 -647 1404 -556 
Q 1534 -466 1606 -231 
L 1638 -134 
L 78 3500 
z
" transform="scale(0.015625)"/>
      <path id="DejaVuSans-Bold-73" d="M 3272 3391 
L 3272 2541 
Q 2913 2691 2578 2766 
Q 2244 2841 1947 2841 
Q 1628 2841 1473 2761 
Q 1319 2681 1319 2516 
Q 1319 2381 1436 2309 
Q 1553 2238 1856 2203 
L 2053 2175 
Q 2913 2066 3209 1816 
Q 3506 1566 3506 1031 
Q 3506 472 3093 190 
Q 2681 -91 1863 -91 
Q 1516 -91 1145 -36 
Q 775 19 384 128 
L 384 978 
Q 719 816 1070 734 
Q 1422 653 1784 653 
Q 2113 653 2278 743 
Q 2444 834 2444 1013 
Q 2444 1163 2330 1236 
Q 2216 1309 1875 1350 
L 1678 1375 
Q 931 1469 631 1722 
Q 331 1975 331 2491 
Q 331 3047 712 3315 
Q 1094 3584 1881 3584 
Q 2191 3584 2531 3537 
Q 2872 3491 3272 3391 
z
" transform="scale(0.015625)"/>
      <path id="DejaVuSans-Bold-75" d="M 500 1363 
L 500 3500 
L 1625 3500 
L 1625 3150 
Q 1625 2866 1622 2436 
Q 1619 2006 1619 1863 
Q 1619 1441 1641 1255 
Q 1663 1069 1716 984 
Q 1784 875 1895 815 
Q 2006 756 2150 756 
Q 2500 756 2700 1025 
Q 2900 1294 2900 1772 
L 2900 3500 
L 4019 3500 
L 4019 0 
L 2900 0 
L 2900 506 
Q 2647 200 2364 54 
Q 2081 -91 1741 -91 
Q 1134 -91 817 281 
Q 500 653 500 1363 
z
" transform="scale(0.015625)"/>
      <path id="DejaVuSans-Bold-54" d="M 31 4666 
L 4331 4666 
L 4331 3756 
L 2784 3756 
L 2784 0 
L 1581 0 
L 1581 3756 
L 31 3756 
L 31 4666 
z
" transform="scale(0.015625)"/>
      <path id="DejaVuSans-Bold-48" d="M 588 4666 
L 1791 4666 
L 1791 2888 
L 3566 2888 
L 3566 4666 
L 4769 4666 
L 4769 0 
L 3566 0 
L 3566 1978 
L 1791 1978 
L 1791 0 
L 588 0 
L 588 4666 
z
" transform="scale(0.015625)"/>
      <path id="DejaVuSans-Bold-41" d="M 3419 850 
L 1538 850 
L 1241 0 
L 31 0 
L 1759 4666 
L 3194 4666 
L 4922 0 
L 3713 0 
L 3419 850 
z
M 1838 1716 
L 3116 1716 
L 2478 3572 
L 1838 1716 
z
" transform="scale(0.015625)"/>
      <path id="DejaVuSans-Bold-50" d="M 588 4666 
L 2584 4666 
Q 3475 4666 3951 4270 
Q 4428 3875 4428 3144 
Q 4428 2409 3951 2014 
Q 3475 1619 2584 1619 
L 1791 1619 
L 1791 0 
L 588 0 
L 588 4666 
z
M 1791 3794 
L 1791 2491 
L 2456 2491 
Q 2806 2491 2997 2661 
Q 3188 2831 3188 3144 
Q 3188 3456 2997 3625 
Q 2806 3794 2456 3794 
L 1791 3794 
z
" transform="scale(0.015625)"/>
      <path id="DejaVuSans-Bold-68" d="M 4056 2131 
L 4056 0 
L 2931 0 
L 2931 347 
L 2931 1625 
Q 2931 2084 2911 2256 
Q 2891 2428 2841 2509 
Q 2775 2619 2662 2680 
Q 2550 2741 2406 2741 
Q 2056 2741 1856 2470 
Q 1656 2200 1656 1722 
L 1656 0 
L 538 0 
L 538 4863 
L 1656 4863 
L 1656 2988 
Q 1909 3294 2193 3439 
Q 2478 3584 2822 3584 
Q 3428 3584 3742 3212 
Q 4056 2841 4056 2131 
z
" transform="scale(0.015625)"/>
      <path id="DejaVuSans-Bold-6f" d="M 2203 2784 
Q 1831 2784 1636 2517 
Q 1441 2250 1441 1747 
Q 1441 1244 1636 976 
Q 1831 709 2203 709 
Q 2569 709 2762 976 
Q 2956 1244 2956 1747 
Q 2956 2250 2762 2517 
Q 2569 2784 2203 2784 
z
M 2203 3584 
Q 3106 3584 3614 3096 
Q 4122 2609 4122 1747 
Q 4122 884 3614 396 
Q 3106 -91 2203 -91 
Q 1297 -91 786 396 
Q 275 884 275 1747 
Q 275 2609 786 3096 
Q 1297 3584 2203 3584 
z
" transform="scale(0.015625)"/>
      <path id="DejaVuSans-Bold-6e" d="M 4056 2131 
L 4056 0 
L 2931 0 
L 2931 347 
L 2931 1631 
Q 2931 2084 2911 2256 
Q 2891 2428 2841 2509 
Q 2775 2619 2662 2680 
Q 2550 2741 2406 2741 
Q 2056 2741 1856 2470 
Q 1656 2200 1656 1722 
L 1656 0 
L 538 0 
L 538 3500 
L 1656 3500 
L 1656 2988 
Q 1909 3294 2193 3439 
Q 2478 3584 2822 3584 
Q 3428 3584 3742 3212 
Q 4056 2841 4056 2131 
z
" transform="scale(0.015625)"/>
      <path id="DejaVuSans-Bold-64" d="M 2919 2988 
L 2919 4863 
L 4044 4863 
L 4044 0 
L 2919 0 
L 2919 506 
Q 2688 197 2409 53 
Q 2131 -91 1766 -91 
Q 1119 -91 703 423 
Q 288 938 288 1747 
Q 288 2556 703 3070 
Q 1119 3584 1766 3584 
Q 2128 3584 2408 3439 
Q 2688 3294 2919 2988 
z
M 2181 722 
Q 2541 722 2730 984 
Q 2919 1247 2919 1747 
Q 2919 2247 2730 2509 
Q 2541 2772 2181 2772 
Q 1825 2772 1636 2509 
Q 1447 2247 1447 1747 
Q 1447 1247 1636 984 
Q 1825 722 2181 722 
z
" transform="scale(0.015625)"/>
      <path id="DejaVuSans-Bold-74" d="M 1759 4494 
L 1759 3500 
L 2913 3500 
L 2913 2700 
L 1759 2700 
L 1759 1216 
Q 1759 972 1856 886 
Q 1953 800 2241 800 
L 2816 800 
L 2816 0 
L 1856 0 
Q 1194 0 917 276 
Q 641 553 641 1216 
L 641 2700 
L 84 2700 
L 84 3500 
L 641 3500 
L 641 4494 
L 1759 4494 
z
" transform="scale(0.015625)"/>
      <path id="DejaVuSans-Bold-72" d="M 3138 2547 
Q 2991 2616 2845 2648 
Q 2700 2681 2553 2681 
Q 2122 2681 1889 2404 
Q 1656 2128 1656 1613 
L 1656 0 
L 538 0 
L 538 3500 
L 1656 3500 
L 1656 2925 
Q 1872 3269 2151 3426 
Q 2431 3584 2822 3584 
Q 2878 3584 2943 3579 
Q 3009 3575 3134 3559 
L 3138 2547 
z
" transform="scale(0.015625)"/>
      <path id="DejaVuSans-Bold-63" d="M 3366 3391 
L 3366 2478 
Q 3138 2634 2908 2709 
Q 2678 2784 2431 2784 
Q 1963 2784 1702 2511 
Q 1441 2238 1441 1747 
Q 1441 1256 1702 982 
Q 1963 709 2431 709 
Q 2694 709 2930 787 
Q 3166 866 3366 1019 
L 3366 103 
Q 3103 6 2833 -42 
Q 2563 -91 2291 -91 
Q 1344 -91 809 395 
Q 275 881 275 1747 
Q 275 2613 809 3098 
Q 1344 3584 2291 3584 
Q 2566 3584 2833 3536 
Q 3100 3488 3366 3391 
z
" transform="scale(0.015625)"/>
      <path id="DejaVuSans-Bold-28" d="M 2413 -844 
L 1484 -844 
Q 1006 -72 778 623 
Q 550 1319 550 2003 
Q 550 2688 779 3389 
Q 1009 4091 1484 4856 
L 2413 4856 
Q 2013 4116 1813 3408 
Q 1613 2700 1613 2009 
Q 1613 1319 1811 609 
Q 2009 -100 2413 -844 
z
" transform="scale(0.015625)"/>
      <path id="DejaVuSans-Bold-4c" d="M 588 4666 
L 1791 4666 
L 1791 909 
L 3903 909 
L 3903 0 
L 588 0 
L 588 4666 
z
" transform="scale(0.015625)"/>
      <path id="DejaVuSans-Bold-77" d="M 225 3500 
L 1313 3500 
L 1900 1088 
L 2491 3500 
L 3425 3500 
L 4013 1113 
L 4603 3500 
L 5691 3500 
L 4769 0 
L 3547 0 
L 2956 2406 
L 2369 0 
L 1147 0 
L 225 3500 
z
" transform="scale(0.015625)"/>
      <path id="DejaVuSans-Bold-65" d="M 4031 1759 
L 4031 1441 
L 1416 1441 
Q 1456 1047 1700 850 
Q 1944 653 2381 653 
Q 2734 653 3104 758 
Q 3475 863 3866 1075 
L 3866 213 
Q 3469 63 3072 -14 
Q 2675 -91 2278 -91 
Q 1328 -91 801 392 
Q 275 875 275 1747 
Q 275 2603 792 3093 
Q 1309 3584 2216 3584 
Q 3041 3584 3536 3087 
Q 4031 2591 4031 1759 
z
M 2881 2131 
Q 2881 2450 2695 2645 
Q 2509 2841 2209 2841 
Q 1884 2841 1681 2658 
Q 1478 2475 1428 2131 
L 2881 2131 
z
" transform="scale(0.015625)"/>
      <path id="DejaVuSans-Bold-29" d="M 513 -844 
Q 913 -100 1113 609 
Q 1313 1319 1313 2009 
Q 1313 2700 1113 3408 
Q 913 4116 513 4856 
L 1441 4856 
Q 1916 4091 2145 3389 
Q 2375 2688 2375 2003 
Q 2375 1319 2147 623 
Q 1919 -72 1441 -844 
L 513 -844 
z
" transform="scale(0.015625)"/>
     </defs>
     <use xlink:href="#DejaVuSans-Bold-47"/>
     <use xlink:href="#DejaVuSans-Bold-69" transform="translate(82.080078 0)"/>
     <use xlink:href="#DejaVuSans-Bold-61" transform="translate(116.357422 0)"/>
     <use xlink:href="#DejaVuSans-Bold-3a" transform="translate(183.837891 0)"/>
     <use xlink:href="#DejaVuSans-Bold-20" transform="translate(223.828125 0)"/>
     <use xlink:href="#DejaVuSans-Bold-44" transform="translate(258.642578 0)"/>
     <use xlink:href="#DejaVuSans-Bold-61" transform="translate(341.650391 0)"/>
     <use xlink:href="#DejaVuSans-Bold-79" transform="translate(406.005859 0)"/>
     <use xlink:href="#DejaVuSans-Bold-20" transform="translate(471.191406 0)"/>
     <use xlink:href="#DejaVuSans-Bold-73" transform="translate(506.005859 0)"/>
     <use xlink:href="#DejaVuSans-Bold-61" transform="translate(565.527344 0)"/>
     <use xlink:href="#DejaVuSans-Bold-75" transform="translate(633.007812 0)"/>
     <use xlink:href="#DejaVuSans-Bold-20" transform="translate(704.199219 0)"/>
     <use xlink:href="#DejaVuSans-Bold-54" transform="translate(739.013672 0)"/>
     <use xlink:href="#DejaVuSans-Bold-48" transform="translate(807.226562 0)"/>
     <use xlink:href="#DejaVuSans-Bold-41" transform="translate(890.917969 0)"/>
     <use xlink:href="#DejaVuSans-Bold-50" transform="translate(968.310547 0)"/>
     <use xlink:href="#DejaVuSans-Bold-20" transform="translate(1041.601562 0)"/>
     <use xlink:href="#DejaVuSans-Bold-68" transform="translate(1076.416016 0)"/>
     <use xlink:href="#DejaVuSans-Bold-6f" transform="translate(1147.607422 0)"/>
     <use xlink:href="#DejaVuSans-Bold-6e" transform="translate(1216.308594 0)"/>
     <use xlink:href="#DejaVuSans-Bold-20" transform="translate(1287.5 0)"/>
     <use xlink:href="#DejaVuSans-Bold-64" transform="translate(1322.314453 0)"/>
     <use xlink:href="#DejaVuSans-Bold-61" transform="translate(1393.896484 0)"/>
     <use xlink:href="#DejaVuSans-Bold-79" transform="translate(1458.251953 0)"/>
     <use xlink:href="#DejaVuSans-Bold-20" transform="translate(1523.4375 0)"/>
     <use xlink:href="#DejaVuSans-Bold-74" transform="translate(1558.251953 0)"/>
     <use xlink:href="#DejaVuSans-Bold-72" transform="translate(1606.054688 0)"/>
     <use xlink:href="#DejaVuSans-Bold-75" transform="translate(1655.371094 0)"/>
     <use xlink:href="#DejaVuSans-Bold-6f" transform="translate(1726.5625 0)"/>
     <use xlink:href="#DejaVuSans-Bold-63" transform="translate(1795.263672 0)"/>
     <use xlink:href="#DejaVuSans-Bold-20" transform="translate(1854.541016 0)"/>
     <use xlink:href="#DejaVuSans-Bold-28" transform="translate(1889.355469 0)"/>
     <use xlink:href="#DejaVuSans-Bold-4c" transform="translate(1935.058594 0)"/>
     <use xlink:href="#DejaVuSans-Bold-6f" transform="translate(1998.779297 0)"/>
     <use xlink:href="#DejaVuSans-Bold-77" transform="translate(2067.480469 0)"/>
     <use xlink:href="#DejaVuSans-Bold-65" transform="translate(2159.863281 0)"/>
     <use xlink:href="#DejaVuSans-Bold-72" transform="translate(2227.685547 0)"/>
     <use xlink:href="#DejaVuSans-Bold-20" transform="translate(2277.001953 0)"/>
     <use xlink:href="#DejaVuSans-Bold-4c" transform="translate(2311.816406 0)"/>
     <use xlink:href="#DejaVuSans-Bold-6f" transform="translate(2375.537109 0)"/>
     <use xlink:href="#DejaVuSans-Bold-77" transform="translate(2444.238281 0)"/>
     <use xlink:href="#DejaVuSans-Bold-29" transform="translate(2536.621094 0)"/>
    </g>
   </g>
  </g>
  <g id="axes_2">
   <g id="patch_37">
    <path d="M 50.15 443.12 
L 709.2 443.12 
L 709.2 334.72 
L 50.15 334.72 
z
" style="fill: #ffffff"/>
   </g>
   <g id="FillBetweenPolyCollection_1">
    <defs>
     <path id="m3b8b40bc53" d="M 86.179146 -154.96 
L 86.179146 -111.6 
L 106.42024 -111.6 
L 126.661333 -111.6 
L 146.902426 -111.6 
L 167.14352 -111.6 
L 187.384613 -111.6 
L 207.625706 -111.6 
L 227.8668 -111.6 
L 248.107893 -111.6 
L 268.348986 -111.6 
L 288.59008 -111.6 
L 308.831173 -111.6 
L 329.072267 -111.6 
L 349.31336 -111.6 
L 369.554453 -111.6 
L 389.795547 -111.6 
L 410.03664 -111.6 
L 430.277733 -111.6 
L 450.518827 -111.6 
L 470.75992 -111.6 
L 491.001014 -111.6 
L 511.242107 -111.6 
L 531.4832 -111.6 
L 551.724294 -111.6 
L 571.965387 -111.6 
L 592.20648 -111.6 
L 612.447574 -111.6 
L 632.688667 -111.6 
L 652.92976 -111.6 
L 673.170854 -111.6 
L 673.170854 -154.96 
L 673.170854 -154.96 
L 652.92976 -154.96 
L 632.688667 -154.96 
L 612.447574 -154.96 
L 592.20648 -154.96 
L 571.965387 -154.96 
L 551.724294 -154.96 
L 531.4832 -154.96 
L 511.242107 -154.96 
L 491.001014 -154.96 
L 470.75992 -154.96 
L 450.518827 -154.96 
L 430.277733 -154.96 
L 410.03664 -154.96 
L 389.795547 -154.96 
L 369.554453 -154.96 
L 349.31336 -154.96 
L 329.072267 -154.96 
L 308.831173 -154.96 
L 288.59008 -154.96 
L 268.348986 -154.96 
L 248.107893 -154.96 
L 227.8668 -154.96 
L 207.625706 -154.96 
L 187.384613 -154.96 
L 167.14352 -154.96 
L 146.902426 -154.96 
L 126.661333 -154.96 
L 106.42024 -154.96 
L 86.179146 -154.96 
z
" style="stroke: #ef5350; stroke-opacity: 0.06"/>
    </defs>
    <g clip-path="url(#pf1ffef304b)">
     <use xlink:href="#m3b8b40bc53" x="0" y="468" style="fill: #ef5350; fill-opacity: 0.06; stroke: #ef5350; stroke-opacity: 0.06"/>
    </g>
   </g>
   <g id="FillBetweenPolyCollection_2">
    <defs>
     <path id="mc8dd8eb34f" d="M 86.179146 -53.786667 
L 86.179146 -10.426667 
L 106.42024 -10.426667 
L 126.661333 -10.426667 
L 146.902426 -10.426667 
L 167.14352 -10.426667 
L 187.384613 -10.426667 
L 207.625706 -10.426667 
L 227.8668 -10.426667 
L 248.107893 -10.426667 
L 268.348986 -10.426667 
L 288.59008 -10.426667 
L 308.831173 -10.426667 
L 329.072267 -10.426667 
L 349.31336 -10.426667 
L 369.554453 -10.426667 
L 389.795547 -10.426667 
L 410.03664 -10.426667 
L 430.277733 -10.426667 
L 450.518827 -10.426667 
L 470.75992 -10.426667 
L 491.001014 -10.426667 
L 511.242107 -10.426667 
L 531.4832 -10.426667 
L 551.724294 -10.426667 
L 571.965387 -10.426667 
L 592.20648 -10.426667 
L 612.447574 -10.426667 
L 632.688667 -10.426667 
L 652.92976 -10.426667 
L 673.170854 -10.426667 
L 673.170854 -53.786667 
L 673.170854 -53.786667 
L 652.92976 -53.786667 
L 632.688667 -53.786667 
L 612.447574 -53.786667 
L 592.20648 -53.786667 
L 571.965387 -53.786667 
L 551.724294 -53.786667 
L 531.4832 -53.786667 
L 511.242107 -53.786667 
L 491.001014 -53.786667 
L 470.75992 -53.786667 
L 450.518827 -53.786667 
L 430.277733 -53.786667 
L 410.03664 -53.786667 
L 389.795547 -53.786667 
L 369.554453 -53.786667 
L 349.31336 -53.786667 
L 329.072267 -53.786667 
L 308.831173 -53.786667 
L 288.59008 -53.786667 
L 268.348986 -53.786667 
L 248.107893 -53.786667 
L 227.8668 -53.786667 
L 207.625706 -53.786667 
L 187.384613 -53.786667 
L 167.14352 -53.786667 
L 146.902426 -53.786667 
L 126.661333 -53.786667 
L 106.42024 -53.786667 
L 86.179146 -53.786667 
z
" style="stroke: #26a69a; stroke-opacity: 0.06"/>
    </defs>
    <g clip-path="url(#pf1ffef304b)">
     <use xlink:href="#mc8dd8eb34f" x="0" y="468" style="fill: #26a69a; fill-opacity: 0.06; stroke: #26a69a; stroke-opacity: 0.06"/>
    </g>
   </g>
   <g id="matplotlib.axis_3">
    <g id="text_11">
     <!-- =&gt;  Tin hieu: canh giac BUY / cho nen xac nhan tao day de vao lenh -->
     <g style="fill: #26a69a" transform="translate(189.528125 454.718438) scale(0.1 -0.1)">
      <defs>
       <path id="DejaVuSans-Bold-3d" d="M 678 3084 
L 4684 3084 
L 4684 2350 
L 678 2350 
L 678 3084 
z
M 678 1663 
L 4684 1663 
L 4684 922 
L 678 922 
L 678 1663 
z
" transform="scale(0.015625)"/>
       <path id="DejaVuSans-Bold-3e" d="M 678 3041 
L 678 3822 
L 4684 2375 
L 4684 1638 
L 678 191 
L 678 972 
L 3694 2003 
L 678 3041 
z
" transform="scale(0.015625)"/>
       <path id="DejaVuSans-Bold-67" d="M 2919 594 
Q 2688 288 2409 144 
Q 2131 0 1766 0 
Q 1125 0 706 504 
Q 288 1009 288 1791 
Q 288 2575 706 3076 
Q 1125 3578 1766 3578 
Q 2131 3578 2409 3434 
Q 2688 3291 2919 2981 
L 2919 3500 
L 4044 3500 
L 4044 353 
Q 4044 -491 3511 -936 
Q 2978 -1381 1966 -1381 
Q 1638 -1381 1331 -1331 
Q 1025 -1281 716 -1178 
L 716 -306 
Q 1009 -475 1290 -558 
Q 1572 -641 1856 -641 
Q 2406 -641 2662 -400 
Q 2919 -159 2919 353 
L 2919 594 
z
M 2181 2772 
Q 1834 2772 1640 2515 
Q 1447 2259 1447 1791 
Q 1447 1309 1634 1061 
Q 1822 813 2181 813 
Q 2531 813 2725 1069 
Q 2919 1325 2919 1791 
Q 2919 2259 2725 2515 
Q 2531 2772 2181 2772 
z
" transform="scale(0.015625)"/>
       <path id="DejaVuSans-Bold-42" d="M 2456 2859 
Q 2741 2859 2887 2984 
Q 3034 3109 3034 3353 
Q 3034 3594 2887 3720 
Q 2741 3847 2456 3847 
L 1791 3847 
L 1791 2859 
L 2456 2859 
z
M 2497 819 
Q 2859 819 3042 972 
Q 3225 1125 3225 1434 
Q 3225 1738 3044 1889 
Q 2863 2041 2497 2041 
L 1791 2041 
L 1791 819 
L 2497 819 
z
M 3616 2497 
Q 4003 2384 4215 2081 
Q 4428 1778 4428 1338 
Q 4428 663 3972 331 
Q 3516 0 2584 0 
L 588 0 
L 588 4666 
L 2394 4666 
Q 3366 4666 3802 4372 
Q 4238 4078 4238 3431 
Q 4238 3091 4078 2852 
Q 3919 2613 3616 2497 
z
" transform="scale(0.015625)"/>
       <path id="DejaVuSans-Bold-55" d="M 588 4666 
L 1791 4666 
L 1791 1869 
Q 1791 1291 1980 1042 
Q 2169 794 2597 794 
Q 3028 794 3217 1042 
Q 3406 1291 3406 1869 
L 3406 4666 
L 4609 4666 
L 4609 1869 
Q 4609 878 4112 393 
Q 3616 -91 2597 -91 
Q 1581 -91 1084 393 
Q 588 878 588 1869 
L 588 4666 
z
" transform="scale(0.015625)"/>
       <path id="DejaVuSans-Bold-59" d="M -63 4666 
L 1253 4666 
L 2316 3003 
L 3378 4666 
L 4697 4666 
L 2919 1966 
L 2919 0 
L 1716 0 
L 1716 1966 
L -63 4666 
z
" transform="scale(0.015625)"/>
       <path id="DejaVuSans-Bold-2f" d="M 1644 4666 
L 2338 4666 
L 691 -594 
L 0 -594 
L 1644 4666 
z
" transform="scale(0.015625)"/>
       <path id="DejaVuSans-Bold-78" d="M 1422 1791 
L 159 3500 
L 1344 3500 
L 2059 2463 
L 2784 3500 
L 3969 3500 
L 2706 1797 
L 4031 0 
L 2847 0 
L 2059 1106 
L 1281 0 
L 97 0 
L 1422 1791 
z
" transform="scale(0.015625)"/>
       <path id="DejaVuSans-Bold-76" d="M 97 3500 
L 1216 3500 
L 2088 1081 
L 2956 3500 
L 4078 3500 
L 2700 0 
L 1472 0 
L 97 3500 
z
" transform="scale(0.015625)"/>
       <path id="DejaVuSans-Bold-6c" d="M 538 4863 
L 1656 4863 
L 1656 0 
L 538 0 
L 538 4863 
z
" transform="scale(0.015625)"/>
      </defs>
      <use xlink:href="#DejaVuSans-Bold-3d"/>
      <use xlink:href="#DejaVuSans-Bold-3e" transform="translate(83.789062 0)"/>
      <use xlink:href="#DejaVuSans-Bold-20" transform="translate(167.578125 0)"/>
      <use xlink:href="#DejaVuSans-Bold-20" transform="translate(202.392578 0)"/>
      <use xlink:href="#DejaVuSans-Bold-54" transform="translate(237.207031 0)"/>
      <use xlink:href="#DejaVuSans-Bold-69" transform="translate(305.419922 0)"/>
      <use xlink:href="#DejaVuSans-Bold-6e" transform="translate(339.697266 0)"/>
      <use xlink:href="#DejaVuSans-Bold-20" transform="translate(410.888672 0)"/>
      <use xlink:href="#DejaVuSans-Bold-68" transform="translate(445.703125 0)"/>
      <use xlink:href="#DejaVuSans-Bold-69" transform="translate(516.894531 0)"/>
      <use xlink:href="#DejaVuSans-Bold-65" transform="translate(551.171875 0)"/>
      <use xlink:href="#DejaVuSans-Bold-75" transform="translate(618.994141 0)"/>
      <use xlink:href="#DejaVuSans-Bold-3a" transform="translate(690.185547 0)"/>
      <use xlink:href="#DejaVuSans-Bold-20" transform="translate(730.175781 0)"/>
      <use xlink:href="#DejaVuSans-Bold-63" transform="translate(764.990234 0)"/>
      <use xlink:href="#DejaVuSans-Bold-61" transform="translate(824.267578 0)"/>
      <use xlink:href="#DejaVuSans-Bold-6e" transform="translate(891.748047 0)"/>
      <use xlink:href="#DejaVuSans-Bold-68" transform="translate(962.939453 0)"/>
      <use xlink:href="#DejaVuSans-Bold-20" transform="translate(1034.130859 0)"/>
      <use xlink:href="#DejaVuSans-Bold-67" transform="translate(1068.945312 0)"/>
      <use xlink:href="#DejaVuSans-Bold-69" transform="translate(1140.527344 0)"/>
      <use xlink:href="#DejaVuSans-Bold-61" transform="translate(1174.804688 0)"/>
      <use xlink:href="#DejaVuSans-Bold-63" transform="translate(1242.285156 0)"/>
      <use xlink:href="#DejaVuSans-Bold-20" transform="translate(1301.5625 0)"/>
      <use xlink:href="#DejaVuSans-Bold-42" transform="translate(1336.376953 0)"/>
      <use xlink:href="#DejaVuSans-Bold-55" transform="translate(1412.597656 0)"/>
      <use xlink:href="#DejaVuSans-Bold-59" transform="translate(1493.798828 0)"/>
      <use xlink:href="#DejaVuSans-Bold-20" transform="translate(1566.210938 0)"/>
      <use xlink:href="#DejaVuSans-Bold-2f" transform="translate(1601.025391 0)"/>
      <use xlink:href="#DejaVuSans-Bold-20" transform="translate(1637.548828 0)"/>
      <use xlink:href="#DejaVuSans-Bold-63" transform="translate(1672.363281 0)"/>
      <use xlink:href="#DejaVuSans-Bold-68" transform="translate(1731.640625 0)"/>
      <use xlink:href="#DejaVuSans-Bold-6f" transform="translate(1802.832031 0)"/>
      <use xlink:href="#DejaVuSans-Bold-20" transform="translate(1871.533203 0)"/>
      <use xlink:href="#DejaVuSans-Bold-6e" transform="translate(1906.347656 0)"/>
      <use xlink:href="#DejaVuSans-Bold-65" transform="translate(1977.539062 0)"/>
      <use xlink:href="#DejaVuSans-Bold-6e" transform="translate(2045.361328 0)"/>
      <use xlink:href="#DejaVuSans-Bold-20" transform="translate(2116.552734 0)"/>
      <use xlink:href="#DejaVuSans-Bold-78" transform="translate(2151.367188 0)"/>
      <use xlink:href="#DejaVuSans-Bold-61" transform="translate(2215.869141 0)"/>
      <use xlink:href="#DejaVuSans-Bold-63" transform="translate(2283.349609 0)"/>
      <use xlink:href="#DejaVuSans-Bold-20" transform="translate(2342.626953 0)"/>
      <use xlink:href="#DejaVuSans-Bold-6e" transform="translate(2377.441406 0)"/>
      <use xlink:href="#DejaVuSans-Bold-68" transform="translate(2448.632812 0)"/>
      <use xlink:href="#DejaVuSans-Bold-61" transform="translate(2519.824219 0)"/>
      <use xlink:href="#DejaVuSans-Bold-6e" transform="translate(2587.304688 0)"/>
      <use xlink:href="#DejaVuSans-Bold-20" transform="translate(2658.496094 0)"/>
      <use xlink:href="#DejaVuSans-Bold-74" transform="translate(2693.310547 0)"/>
      <use xlink:href="#DejaVuSans-Bold-61" transform="translate(2741.113281 0)"/>
      <use xlink:href="#DejaVuSans-Bold-6f" transform="translate(2808.59375 0)"/>
      <use xlink:href="#DejaVuSans-Bold-20" transform="translate(2877.294922 0)"/>
      <use xlink:href="#DejaVuSans-Bold-64" transform="translate(2912.109375 0)"/>
      <use xlink:href="#DejaVuSans-Bold-61" transform="translate(2983.691406 0)"/>
      <use xlink:href="#DejaVuSans-Bold-79" transform="translate(3048.046875 0)"/>
      <use xlink:href="#DejaVuSans-Bold-20" transform="translate(3113.232422 0)"/>
      <use xlink:href="#DejaVuSans-Bold-64" transform="translate(3148.046875 0)"/>
      <use xlink:href="#DejaVuSans-Bold-65" transform="translate(3219.628906 0)"/>
      <use xlink:href="#DejaVuSans-Bold-20" transform="translate(3287.451172 0)"/>
      <use xlink:href="#DejaVuSans-Bold-76" transform="translate(3322.265625 0)"/>
      <use xlink:href="#DejaVuSans-Bold-61" transform="translate(3387.451172 0)"/>
      <use xlink:href="#DejaVuSans-Bold-6f" transform="translate(3454.931641 0)"/>
      <use xlink:href="#DejaVuSans-Bold-20" transform="translate(3523.632812 0)"/>
      <use xlink:href="#DejaVuSans-Bold-6c" transform="translate(3558.447266 0)"/>
      <use xlink:href="#DejaVuSans-Bold-65" transform="translate(3592.724609 0)"/>
      <use xlink:href="#DejaVuSans-Bold-6e" transform="translate(3660.546875 0)"/>
      <use xlink:href="#DejaVuSans-Bold-68" transform="translate(3731.738281 0)"/>
     </g>
    </g>
   </g>
   <g id="matplotlib.axis_4">
    <g id="ytick_7">
     <g id="line2d_44">
      <path d="M 50.15 428.666667 
L 709.2 428.666667 
" clip-path="url(#pf1ffef304b)" style="fill: none; stroke: #e0e3eb; stroke-width: 0.6; stroke-linecap: square"/>
     </g>
     <g id="line2d_45">
      <g>
       <use xlink:href="#m83157c1dcc" x="50.15" y="428.666667" style="stroke: #000000; stroke-width: 0.8"/>
      </g>
     </g>
     <g id="text_12">
      <!-- 20 -->
      <g transform="translate(30.425 432.465885) scale(0.1 -0.1)">
       <use xlink:href="#DejaVuSans-32"/>
       <use xlink:href="#DejaVuSans-30" transform="translate(63.623047 0)"/>
      </g>
     </g>
    </g>
    <g id="ytick_8">
     <g id="line2d_46">
      <path d="M 50.15 399.76 
L 709.2 399.76 
" clip-path="url(#pf1ffef304b)" style="fill: none; stroke: #e0e3eb; stroke-width: 0.6; stroke-linecap: square"/>
     </g>
     <g id="line2d_47">
      <g>
       <use xlink:href="#m83157c1dcc" x="50.15" y="399.76" style="stroke: #000000; stroke-width: 0.8"/>
      </g>
     </g>
     <g id="text_13">
      <!-- 40 -->
      <g transform="translate(30.425 403.559219) scale(0.1 -0.1)">
       <defs>
        <path id="DejaVuSans-34" d="M 2419 4116 
L 825 1625 
L 2419 1625 
L 2419 4116 
z
M 2253 4666 
L 3047 4666 
L 3047 1625 
L 3713 1625 
L 3713 1100 
L 3047 1100 
L 3047 0 
L 2419 0 
L 2419 1100 
L 313 1100 
L 313 1709 
L 2253 4666 
z
" transform="scale(0.015625)"/>
       </defs>
       <use xlink:href="#DejaVuSans-34"/>
       <use xlink:href="#DejaVuSans-30" transform="translate(63.623047 0)"/>
      </g>
     </g>
    </g>
    <g id="ytick_9">
     <g id="line2d_48">
      <path d="M 50.15 370.853333 
L 709.2 370.853333 
" clip-path="url(#pf1ffef304b)" style="fill: none; stroke: #e0e3eb; stroke-width: 0.6; stroke-linecap: square"/>
     </g>
     <g id="line2d_49">
      <g>
       <use xlink:href="#m83157c1dcc" x="50.15" y="370.853333" style="stroke: #000000; stroke-width: 0.8"/>
      </g>
     </g>
     <g id="text_14">
      <!-- 60 -->
      <g transform="translate(30.425 374.652552) scale(0.1 -0.1)">
       <use xlink:href="#DejaVuSans-36"/>
       <use xlink:href="#DejaVuSans-30" transform="translate(63.623047 0)"/>
      </g>
     </g>
    </g>
    <g id="ytick_10">
     <g id="line2d_50">
      <path d="M 50.15 341.946667 
L 709.2 341.946667 
" clip-path="url(#pf1ffef304b)" style="fill: none; stroke: #e0e3eb; stroke-width: 0.6; stroke-linecap: square"/>
     </g>
     <g id="line2d_51">
      <g>
       <use xlink:href="#m83157c1dcc" x="50.15" y="341.946667" style="stroke: #000000; stroke-width: 0.8"/>
      </g>
     </g>
     <g id="text_15">
      <!-- 80 -->
      <g transform="translate(30.425 345.745885) scale(0.1 -0.1)">
       <use xlink:href="#DejaVuSans-38"/>
       <use xlink:href="#DejaVuSans-30" transform="translate(63.623047 0)"/>
      </g>
     </g>
    </g>
    <g id="text_16">
     <!-- RSI(14) -->
     <g transform="translate(24.553281 405.46875) rotate(-90) scale(0.09 -0.09)">
      <defs>
       <path id="DejaVuSans-52" d="M 2841 2188 
Q 3044 2119 3236 1894 
Q 3428 1669 3622 1275 
L 4263 0 
L 3584 0 
L 2988 1197 
Q 2756 1666 2539 1819 
Q 2322 1972 1947 1972 
L 1259 1972 
L 1259 0 
L 628 0 
L 628 4666 
L 2053 4666 
Q 2853 4666 3247 4331 
Q 3641 3997 3641 3322 
Q 3641 2881 3436 2590 
Q 3231 2300 2841 2188 
z
M 1259 4147 
L 1259 2491 
L 2053 2491 
Q 2509 2491 2742 2702 
Q 2975 2913 2975 3322 
Q 2975 3731 2742 3939 
Q 2509 4147 2053 4147 
L 1259 4147 
z
" transform="scale(0.015625)"/>
       <path id="DejaVuSans-53" d="M 3425 4513 
L 3425 3897 
Q 3066 4069 2747 4153 
Q 2428 4238 2131 4238 
Q 1616 4238 1336 4038 
Q 1056 3838 1056 3469 
Q 1056 3159 1242 3001 
Q 1428 2844 1947 2747 
L 2328 2669 
Q 3034 2534 3370 2195 
Q 3706 1856 3706 1288 
Q 3706 609 3251 259 
Q 2797 -91 1919 -91 
Q 1588 -91 1214 -16 
Q 841 59 441 206 
L 441 856 
Q 825 641 1194 531 
Q 1563 422 1919 422 
Q 2459 422 2753 634 
Q 3047 847 3047 1241 
Q 3047 1584 2836 1778 
Q 2625 1972 2144 2069 
L 1759 2144 
Q 1053 2284 737 2584 
Q 422 2884 422 3419 
Q 422 4038 858 4394 
Q 1294 4750 2059 4750 
Q 2388 4750 2728 4690 
Q 3069 4631 3425 4513 
z
" transform="scale(0.015625)"/>
       <path id="DejaVuSans-49" d="M 628 4666 
L 1259 4666 
L 1259 0 
L 628 0 
L 628 4666 
z
" transform="scale(0.015625)"/>
      </defs>
      <use xlink:href="#DejaVuSans-52"/>
      <use xlink:href="#DejaVuSans-53" transform="translate(69.482422 0)"/>
      <use xlink:href="#DejaVuSans-49" transform="translate(132.958984 0)"/>
      <use xlink:href="#DejaVuSans-28" transform="translate(162.451172 0)"/>
      <use xlink:href="#DejaVuSans-31" transform="translate(201.464844 0)"/>
      <use xlink:href="#DejaVuSans-34" transform="translate(265.087891 0)"/>
      <use xlink:href="#DejaVuSans-29" transform="translate(328.710938 0)"/>
     </g>
    </g>
   </g>
   <g id="line2d_52">
    <path d="M 86.179146 377.803029 
L 106.42024 381.262505 
L 126.661333 388.22155 
L 146.902426 392.899713 
L 167.14352 397.675349 
L 187.384613 401.066239 
L 207.625706 406.927408 
L 227.8668 407.684128 
L 248.107893 413.952177 
L 268.348986 418.911901 
L 288.59008 423.779775 
L 308.831173 427.02618 
L 329.072267 427.424117 
L 349.31336 420.366963 
L 369.554453 412.644222 
L 389.795547 405.544242 
L 410.03664 397.186653 
L 430.277733 389.709096 
L 450.518827 395.141477 
L 470.75992 395.133199 
L 491.001014 393.807105 
L 511.242107 397.643963 
L 531.4832 394.598003 
L 551.724294 399.422882 
L 571.965387 397.442576 
L 592.20648 399.006731 
L 612.447574 399.214589 
L 632.688667 404.703711 
L 652.92976 404.608271 
L 673.170854 402.91298 
" clip-path="url(#pf1ffef304b)" style="fill: none; stroke: #2962ff; stroke-width: 1.8; stroke-linecap: square"/>
   </g>
   <g id="line2d_53">
    <path d="M 50.15 356.4 
L 709.2 356.4 
" clip-path="url(#pf1ffef304b)" style="fill: none; stroke-dasharray: 1,1.65; stroke-dashoffset: 0; stroke: #787b86"/>
   </g>
   <g id="line2d_54">
    <path d="M 50.15 414.213333 
L 709.2 414.213333 
" clip-path="url(#pf1ffef304b)" style="fill: none; stroke-dasharray: 1,1.65; stroke-dashoffset: 0; stroke: #787b86"/>
   </g>
   <g id="line2d_55">
    <path d="M 308.831173 427.02618 
L 632.688667 404.703711 
" clip-path="url(#pf1ffef304b)" style="fill: none; stroke-dasharray: 5.18,2.24; stroke-dashoffset: 0; stroke: #26a69a; stroke-width: 1.4"/>
   </g>
   <g id="patch_38">
    <path d="M 50.15 443.12 
L 50.15 334.72 
" style="fill: none; stroke: #000000; stroke-width: 0.8; stroke-linejoin: miter; stroke-linecap: square"/>
   </g>
   <g id="patch_39">
    <path d="M 709.2 443.12 
L 709.2 334.72 
" style="fill: none; stroke: #000000; stroke-width: 0.8; stroke-linejoin: miter; stroke-linecap: square"/>
   </g>
   <g id="patch_40">
    <path d="M 50.15 443.12 
L 709.2 443.12 
" style="fill: none; stroke: #000000; stroke-width: 0.8; stroke-linejoin: miter; stroke-linecap: square"/>
   </g>
   <g id="patch_41">
    <path d="M 50.15 334.72 
L 709.2 334.72 
" style="fill: none; stroke: #000000; stroke-width: 0.8; stroke-linejoin: miter; stroke-linecap: square"/>
   </g>
   <g id="text_17">
    <!-- RSI ~21 -->
    <g transform="translate(290.592814 435.69818) scale(0.09 -0.09)">
     <defs>
      <path id="DejaVuSans-7e" d="M 4684 2553 
L 4684 1997 
Q 4356 1750 4076 1644 
Q 3797 1538 3494 1538 
Q 3150 1538 2694 1722 
Q 2659 1734 2644 1741 
Q 2622 1750 2575 1766 
Q 2091 1959 1797 1959 
Q 1522 1959 1253 1839 
Q 984 1719 678 1459 
L 678 2016 
Q 1006 2263 1286 2370 
Q 1566 2478 1869 2478 
Q 2213 2478 2672 2291 
Q 2703 2278 2719 2272 
Q 2744 2263 2788 2247 
Q 3272 2053 3566 2053 
Q 3834 2053 4098 2172 
Q 4363 2291 4684 2553 
z
" transform="scale(0.015625)"/>
     </defs>
     <use xlink:href="#DejaVuSans-52"/>
     <use xlink:href="#DejaVuSans-53" transform="translate(69.482422 0)"/>
     <use xlink:href="#DejaVuSans-49" transform="translate(132.958984 0)"/>
     <use xlink:href="#DejaVuSans-20" transform="translate(162.451172 0)"/>
     <use xlink:href="#DejaVuSans-7e" transform="translate(194.238281 0)"/>
     <use xlink:href="#DejaVuSans-32" transform="translate(278.027344 0)"/>
     <use xlink:href="#DejaVuSans-31" transform="translate(341.650391 0)"/>
    </g>
   </g>
   <g id="text_18">
    <!-- RSI ~37 (cao hon) -->
    <g transform="translate(591.636011 397.477044) scale(0.09 -0.09)">
     <defs>
      <path id="DejaVuSans-33" d="M 2597 2516 
Q 3050 2419 3304 2112 
Q 3559 1806 3559 1356 
Q 3559 666 3084 287 
Q 2609 -91 1734 -91 
Q 1441 -91 1130 -33 
Q 819 25 488 141 
L 488 750 
Q 750 597 1062 519 
Q 1375 441 1716 441 
Q 2309 441 2620 675 
Q 2931 909 2931 1356 
Q 2931 1769 2642 2001 
Q 2353 2234 1838 2234 
L 1294 2234 
L 1294 2753 
L 1863 2753 
Q 2328 2753 2575 2939 
Q 2822 3125 2822 3475 
Q 2822 3834 2567 4026 
Q 2313 4219 1838 4219 
Q 1578 4219 1281 4162 
Q 984 4106 628 3988 
L 628 4550 
Q 988 4650 1302 4700 
Q 1616 4750 1894 4750 
Q 2613 4750 3031 4423 
Q 3450 4097 3450 3541 
Q 3450 3153 3228 2886 
Q 3006 2619 2597 2516 
z
" transform="scale(0.015625)"/>
      <path id="DejaVuSans-63" d="M 3122 3366 
L 3122 2828 
Q 2878 2963 2633 3030 
Q 2388 3097 2138 3097 
Q 1578 3097 1268 2742 
Q 959 2388 959 1747 
Q 959 1106 1268 751 
Q 1578 397 2138 397 
Q 2388 397 2633 464 
Q 2878 531 3122 666 
L 3122 134 
Q 2881 22 2623 -34 
Q 2366 -91 2075 -91 
Q 1284 -91 818 406 
Q 353 903 353 1747 
Q 353 2603 823 3093 
Q 1294 3584 2113 3584 
Q 2378 3584 2631 3529 
Q 2884 3475 3122 3366 
z
" transform="scale(0.015625)"/>
     </defs>
     <use xlink:href="#DejaVuSans-52"/>
     <use xlink:href="#DejaVuSans-53" transform="translate(69.482422 0)"/>
     <use xlink:href="#DejaVuSans-49" transform="translate(132.958984 0)"/>
     <use xlink:href="#DejaVuSans-20" transform="translate(162.451172 0)"/>
     <use xlink:href="#DejaVuSans-7e" transform="translate(194.238281 0)"/>
     <use xlink:href="#DejaVuSans-33" transform="translate(278.027344 0)"/>
     <use xlink:href="#DejaVuSans-37" transform="translate(341.650391 0)"/>
     <use xlink:href="#DejaVuSans-20" transform="translate(405.273438 0)"/>
     <use xlink:href="#DejaVuSans-28" transform="translate(437.060547 0)"/>
     <use xlink:href="#DejaVuSans-63" transform="translate(476.074219 0)"/>
     <use xlink:href="#DejaVuSans-61" transform="translate(531.054688 0)"/>
     <use xlink:href="#DejaVuSans-6f" transform="translate(592.333984 0)"/>
     <use xlink:href="#DejaVuSans-20" transform="translate(653.515625 0)"/>
     <use xlink:href="#DejaVuSans-68" transform="translate(685.302734 0)"/>
     <use xlink:href="#DejaVuSans-6f" transform="translate(748.681641 0)"/>
     <use xlink:href="#DejaVuSans-6e" transform="translate(809.863281 0)"/>
     <use xlink:href="#DejaVuSans-29" transform="translate(873.242188 0)"/>
    </g>
   </g>
   <g id="text_19">
    <!-- RSI: Day sau CAO hon day truoc  =&gt;  HOI TU TANG -->
    <g style="fill: #131722" transform="translate(50.15 328.72) scale(0.12 -0.12)">
     <defs>
      <path id="DejaVuSans-Bold-52" d="M 2297 2597 
Q 2675 2597 2839 2737 
Q 3003 2878 3003 3200 
Q 3003 3519 2839 3656 
Q 2675 3794 2297 3794 
L 1791 3794 
L 1791 2597 
L 2297 2597 
z
M 1791 1766 
L 1791 0 
L 588 0 
L 588 4666 
L 2425 4666 
Q 3347 4666 3776 4356 
Q 4206 4047 4206 3378 
Q 4206 2916 3982 2619 
Q 3759 2322 3309 2181 
Q 3556 2125 3751 1926 
Q 3947 1728 4147 1325 
L 4800 0 
L 3519 0 
L 2950 1159 
Q 2778 1509 2601 1637 
Q 2425 1766 2131 1766 
L 1791 1766 
z
" transform="scale(0.015625)"/>
      <path id="DejaVuSans-Bold-53" d="M 3834 4519 
L 3834 3531 
Q 3450 3703 3084 3790 
Q 2719 3878 2394 3878 
Q 1963 3878 1756 3759 
Q 1550 3641 1550 3391 
Q 1550 3203 1689 3098 
Q 1828 2994 2194 2919 
L 2706 2816 
Q 3484 2659 3812 2340 
Q 4141 2022 4141 1434 
Q 4141 663 3683 286 
Q 3225 -91 2284 -91 
Q 1841 -91 1394 -6 
Q 947 78 500 244 
L 500 1259 
Q 947 1022 1364 901 
Q 1781 781 2169 781 
Q 2563 781 2772 912 
Q 2981 1044 2981 1288 
Q 2981 1506 2839 1625 
Q 2697 1744 2272 1838 
L 1806 1941 
Q 1106 2091 782 2419 
Q 459 2747 459 3303 
Q 459 4000 909 4375 
Q 1359 4750 2203 4750 
Q 2588 4750 2994 4692 
Q 3400 4634 3834 4519 
z
" transform="scale(0.015625)"/>
      <path id="DejaVuSans-Bold-49" d="M 588 4666 
L 1791 4666 
L 1791 0 
L 588 0 
L 588 4666 
z
" transform="scale(0.015625)"/>
      <path id="DejaVuSans-Bold-43" d="M 4288 256 
Q 3956 84 3597 -3 
Q 3238 -91 2847 -91 
Q 1681 -91 1000 561 
Q 319 1213 319 2328 
Q 319 3447 1000 4098 
Q 1681 4750 2847 4750 
Q 3238 4750 3597 4662 
Q 3956 4575 4288 4403 
L 4288 3438 
Q 3953 3666 3628 3772 
Q 3303 3878 2944 3878 
Q 2300 3878 1931 3465 
Q 1563 3053 1563 2328 
Q 1563 1606 1931 1193 
Q 2300 781 2944 781 
Q 3303 781 3628 887 
Q 3953 994 4288 1222 
L 4288 256 
z
" transform="scale(0.015625)"/>
      <path id="DejaVuSans-Bold-4f" d="M 2719 3878 
Q 2169 3878 1866 3472 
Q 1563 3066 1563 2328 
Q 1563 1594 1866 1187 
Q 2169 781 2719 781 
Q 3272 781 3575 1187 
Q 3878 1594 3878 2328 
Q 3878 3066 3575 3472 
Q 3272 3878 2719 3878 
z
M 2719 4750 
Q 3844 4750 4481 4106 
Q 5119 3463 5119 2328 
Q 5119 1197 4481 553 
Q 3844 -91 2719 -91 
Q 1597 -91 958 553 
Q 319 1197 319 2328 
Q 319 3463 958 4106 
Q 1597 4750 2719 4750 
z
" transform="scale(0.015625)"/>
      <path id="DejaVuSans-Bold-4e" d="M 588 4666 
L 1931 4666 
L 3628 1466 
L 3628 4666 
L 4769 4666 
L 4769 0 
L 3425 0 
L 1728 3200 
L 1728 0 
L 588 0 
L 588 4666 
z
" transform="scale(0.015625)"/>
     </defs>
     <use xlink:href="#DejaVuSans-Bold-52"/>
     <use xlink:href="#DejaVuSans-Bold-53" transform="translate(77.001953 0)"/>
     <use xlink:href="#DejaVuSans-Bold-49" transform="translate(149.023438 0)"/>
     <use xlink:href="#DejaVuSans-Bold-3a" transform="translate(186.230469 0)"/>
     <use xlink:href="#DejaVuSans-Bold-20" transform="translate(226.220703 0)"/>
     <use xlink:href="#DejaVuSans-Bold-44" transform="translate(261.035156 0)"/>
     <use xlink:href="#DejaVuSans-Bold-61" transform="translate(344.042969 0)"/>
     <use xlink:href="#DejaVuSans-Bold-79" transform="translate(408.398438 0)"/>
     <use xlink:href="#DejaVuSans-Bold-20" transform="translate(473.583984 0)"/>
     <use xlink:href="#DejaVuSans-Bold-73" transform="translate(508.398438 0)"/>
     <use xlink:href="#DejaVuSans-Bold-61" transform="translate(567.919922 0)"/>
     <use xlink:href="#DejaVuSans-Bold-75" transform="translate(635.400391 0)"/>
     <use xlink:href="#DejaVuSans-Bold-20" transform="translate(706.591797 0)"/>
     <use xlink:href="#DejaVuSans-Bold-43" transform="translate(741.40625 0)"/>
     <use xlink:href="#DejaVuSans-Bold-41" transform="translate(814.794922 0)"/>
     <use xlink:href="#DejaVuSans-Bold-4f" transform="translate(892.1875 0)"/>
     <use xlink:href="#DejaVuSans-Bold-20" transform="translate(977.197266 0)"/>
     <use xlink:href="#DejaVuSans-Bold-68" transform="translate(1012.011719 0)"/>
     <use xlink:href="#DejaVuSans-Bold-6f" transform="translate(1083.203125 0)"/>
     <use xlink:href="#DejaVuSans-Bold-6e" transform="translate(1151.904297 0)"/>
     <use xlink:href="#DejaVuSans-Bold-20" transform="translate(1223.095703 0)"/>
     <use xlink:href="#DejaVuSans-Bold-64" transform="translate(1257.910156 0)"/>
     <use xlink:href="#DejaVuSans-Bold-61" transform="translate(1329.492188 0)"/>
     <use xlink:href="#DejaVuSans-Bold-79" transform="translate(1393.847656 0)"/>
     <use xlink:href="#DejaVuSans-Bold-20" transform="translate(1459.033203 0)"/>
     <use xlink:href="#DejaVuSans-Bold-74" transform="translate(1493.847656 0)"/>
     <use xlink:href="#DejaVuSans-Bold-72" transform="translate(1541.650391 0)"/>
     <use xlink:href="#DejaVuSans-Bold-75" transform="translate(1590.966797 0)"/>
     <use xlink:href="#DejaVuSans-Bold-6f" transform="translate(1662.158203 0)"/>
     <use xlink:href="#DejaVuSans-Bold-63" transform="translate(1730.859375 0)"/>
     <use xlink:href="#DejaVuSans-Bold-20" transform="translate(1790.136719 0)"/>
     <use xlink:href="#DejaVuSans-Bold-20" transform="translate(1824.951172 0)"/>
     <use xlink:href="#DejaVuSans-Bold-3d" transform="translate(1859.765625 0)"/>
     <use xlink:href="#DejaVuSans-Bold-3e" transform="translate(1943.554688 0)"/>
     <use xlink:href="#DejaVuSans-Bold-20" transform="translate(2027.34375 0)"/>
     <use xlink:href="#DejaVuSans-Bold-20" transform="translate(2062.158203 0)"/>
     <use xlink:href="#DejaVuSans-Bold-48" transform="translate(2096.972656 0)"/>
     <use xlink:href="#DejaVuSans-Bold-4f" transform="translate(2180.664062 0)"/>
     <use xlink:href="#DejaVuSans-Bold-49" transform="translate(2265.673828 0)"/>
     <use xlink:href="#DejaVuSans-Bold-20" transform="translate(2302.880859 0)"/>
     <use xlink:href="#DejaVuSans-Bold-54" transform="translate(2337.695312 0)"/>
     <use xlink:href="#DejaVuSans-Bold-55" transform="translate(2405.908203 0)"/>
     <use xlink:href="#DejaVuSans-Bold-20" transform="translate(2487.109375 0)"/>
     <use xlink:href="#DejaVuSans-Bold-54" transform="translate(2521.923828 0)"/>
     <use xlink:href="#DejaVuSans-Bold-41" transform="translate(2582.386719 0)"/>
     <use xlink:href="#DejaVuSans-Bold-4e" transform="translate(2659.779297 0)"/>
     <use xlink:href="#DejaVuSans-Bold-47" transform="translate(2743.470703 0)"/>
    </g>
   </g>
  </g>
  <g id="text_20">
   <!-- HOI TU TANG (Bullish Convergence) - Gia tao day thap hon nhung RSI tao day cao hon -->
   <g style="fill: #131722" transform="translate(100.654688 13.798125) scale(0.12 -0.12)">
    <defs>
     <path id="DejaVuSans-48" d="M 628 4666 
L 1259 4666 
L 1259 2753 
L 3553 2753 
L 3553 4666 
L 4184 4666 
L 4184 0 
L 3553 0 
L 3553 2222 
L 1259 2222 
L 1259 0 
L 628 0 
L 628 4666 
z
" transform="scale(0.015625)"/>
     <path id="DejaVuSans-4f" d="M 2522 4238 
Q 1834 4238 1429 3725 
Q 1025 3213 1025 2328 
Q 1025 1447 1429 934 
Q 1834 422 2522 422 
Q 3209 422 3611 934 
Q 4013 1447 4013 2328 
Q 4013 3213 3611 3725 
Q 3209 4238 2522 4238 
z
M 2522 4750 
Q 3503 4750 4090 4092 
Q 4678 3434 4678 2328 
Q 4678 1225 4090 567 
Q 3503 -91 2522 -91 
Q 1538 -91 948 565 
Q 359 1222 359 2328 
Q 359 3434 948 4092 
Q 1538 4750 2522 4750 
z
" transform="scale(0.015625)"/>
     <path id="DejaVuSans-54" d="M -19 4666 
L 3928 4666 
L 3928 4134 
L 2272 4134 
L 2272 0 
L 1638 0 
L 1638 4134 
L -19 4134 
L -19 4666 
z
" transform="scale(0.015625)"/>
     <path id="DejaVuSans-55" d="M 556 4666 
L 1191 4666 
L 1191 1831 
Q 1191 1081 1462 751 
Q 1734 422 2344 422 
Q 2950 422 3222 751 
Q 3494 1081 3494 1831 
L 3494 4666 
L 4128 4666 
L 4128 1753 
Q 4128 841 3676 375 
Q 3225 -91 2344 -91 
Q 1459 -91 1007 375 
Q 556 841 556 1753 
L 556 4666 
z
" transform="scale(0.015625)"/>
     <path id="DejaVuSans-41" d="M 2188 4044 
L 1331 1722 
L 3047 1722 
L 2188 4044 
z
M 1831 4666 
L 2547 4666 
L 4325 0 
L 3669 0 
L 3244 1197 
L 1141 1197 
L 716 0 
L 50 0 
L 1831 4666 
z
" transform="scale(0.015625)"/>
     <path id="DejaVuSans-4e" d="M 628 4666 
L 1478 4666 
L 3547 763 
L 3547 4666 
L 4159 4666 
L 4159 0 
L 3309 0 
L 1241 3903 
L 1241 0 
L 628 0 
L 628 4666 
z
" transform="scale(0.015625)"/>
     <path id="DejaVuSans-42" d="M 1259 2228 
L 1259 519 
L 2272 519 
Q 2781 519 3026 730 
Q 3272 941 3272 1375 
Q 3272 1813 3026 2020 
Q 2781 2228 2272 2228 
L 1259 2228 
z
M 1259 4147 
L 1259 2741 
L 2194 2741 
Q 2656 2741 2882 2914 
Q 3109 3088 3109 3444 
Q 3109 3797 2882 3972 
Q 2656 4147 2194 4147 
L 1259 4147 
z
M 628 4666 
L 2241 4666 
Q 2963 4666 3353 4366 
Q 3744 4066 3744 3513 
Q 3744 3084 3544 2831 
Q 3344 2578 2956 2516 
Q 3422 2416 3680 2098 
Q 3938 1781 3938 1306 
Q 3938 681 3513 340 
Q 3088 0 2303 0 
L 628 0 
L 628 4666 
z
" transform="scale(0.015625)"/>
     <path id="DejaVuSans-75" d="M 544 1381 
L 544 3500 
L 1119 3500 
L 1119 1403 
Q 1119 906 1312 657 
Q 1506 409 1894 409 
Q 2359 409 2629 706 
Q 2900 1003 2900 1516 
L 2900 3500 
L 3475 3500 
L 3475 0 
L 2900 0 
L 2900 538 
Q 2691 219 2414 64 
Q 2138 -91 1772 -91 
Q 1169 -91 856 284 
Q 544 659 544 1381 
z
M 1991 3584 
L 1991 3584 
z
" transform="scale(0.015625)"/>
     <path id="DejaVuSans-6c" d="M 603 4863 
L 1178 4863 
L 1178 0 
L 603 0 
L 603 4863 
z
" transform="scale(0.015625)"/>
     <path id="DejaVuSans-73" d="M 2834 3397 
L 2834 2853 
Q 2591 2978 2328 3040 
Q 2066 3103 1784 3103 
Q 1356 3103 1142 2972 
Q 928 2841 928 2578 
Q 928 2378 1081 2264 
Q 1234 2150 1697 2047 
L 1894 2003 
Q 2506 1872 2764 1633 
Q 3022 1394 3022 966 
Q 3022 478 2636 193 
Q 2250 -91 1575 -91 
Q 1294 -91 989 -36 
Q 684 19 347 128 
L 347 722 
Q 666 556 975 473 
Q 1284 391 1588 391 
Q 1994 391 2212 530 
Q 2431 669 2431 922 
Q 2431 1156 2273 1281 
Q 2116 1406 1581 1522 
L 1381 1569 
Q 847 1681 609 1914 
Q 372 2147 372 2553 
Q 372 3047 722 3315 
Q 1072 3584 1716 3584 
Q 2034 3584 2315 3537 
Q 2597 3491 2834 3397 
z
" transform="scale(0.015625)"/>
     <path id="DejaVuSans-43" d="M 4122 4306 
L 4122 3641 
Q 3803 3938 3442 4084 
Q 3081 4231 2675 4231 
Q 1875 4231 1450 3742 
Q 1025 3253 1025 2328 
Q 1025 1406 1450 917 
Q 1875 428 2675 428 
Q 3081 428 3442 575 
Q 3803 722 4122 1019 
L 4122 359 
Q 3791 134 3420 21 
Q 3050 -91 2638 -91 
Q 1578 -91 968 557 
Q 359 1206 359 2328 
Q 359 3453 968 4101 
Q 1578 4750 2638 4750 
Q 3056 4750 3426 4639 
Q 3797 4528 4122 4306 
z
" transform="scale(0.015625)"/>
     <path id="DejaVuSans-76" d="M 191 3500 
L 800 3500 
L 1894 563 
L 2988 3500 
L 3597 3500 
L 2284 0 
L 1503 0 
L 191 3500 
z
" transform="scale(0.015625)"/>
     <path id="DejaVuSans-65" d="M 3597 1894 
L 3597 1613 
L 953 1613 
Q 991 1019 1311 708 
Q 1631 397 2203 397 
Q 2534 397 2845 478 
Q 3156 559 3463 722 
L 3463 178 
Q 3153 47 2828 -22 
Q 2503 -91 2169 -91 
Q 1331 -91 842 396 
Q 353 884 353 1716 
Q 353 2575 817 3079 
Q 1281 3584 2069 3584 
Q 2775 3584 3186 3129 
Q 3597 2675 3597 1894 
z
M 3022 2063 
Q 3016 2534 2758 2815 
Q 2500 3097 2075 3097 
Q 1594 3097 1305 2825 
Q 1016 2553 972 2059 
L 3022 2063 
z
" transform="scale(0.015625)"/>
     <path id="DejaVuSans-72" d="M 2631 2963 
Q 2534 3019 2420 3045 
Q 2306 3072 2169 3072 
Q 1681 3072 1420 2755 
Q 1159 2438 1159 1844 
L 1159 0 
L 581 0 
L 581 3500 
L 1159 3500 
L 1159 2956 
Q 1341 3275 1631 3429 
Q 1922 3584 2338 3584 
Q 2397 3584 2469 3576 
Q 2541 3569 2628 3553 
L 2631 2963 
z
" transform="scale(0.015625)"/>
     <path id="DejaVuSans-67" d="M 2906 1791 
Q 2906 2416 2648 2759 
Q 2391 3103 1925 3103 
Q 1463 3103 1205 2759 
Q 947 2416 947 1791 
Q 947 1169 1205 825 
Q 1463 481 1925 481 
Q 2391 481 2648 825 
Q 2906 1169 2906 1791 
z
M 3481 434 
Q 3481 -459 3084 -895 
Q 2688 -1331 1869 -1331 
Q 1566 -1331 1297 -1286 
Q 1028 -1241 775 -1147 
L 775 -588 
Q 1028 -725 1275 -790 
Q 1522 -856 1778 -856 
Q 2344 -856 2625 -561 
Q 2906 -266 2906 331 
L 2906 616 
Q 2728 306 2450 153 
Q 2172 0 1784 0 
Q 1141 0 747 490 
Q 353 981 353 1791 
Q 353 2603 747 3093 
Q 1141 3584 1784 3584 
Q 2172 3584 2450 3431 
Q 2728 3278 2906 2969 
L 2906 3500 
L 3481 3500 
L 3481 434 
z
" transform="scale(0.015625)"/>
     <path id="DejaVuSans-2d" d="M 313 2009 
L 1997 2009 
L 1997 1497 
L 313 1497 
L 313 2009 
z
" transform="scale(0.015625)"/>
     <path id="DejaVuSans-64" d="M 2906 2969 
L 2906 4863 
L 3481 4863 
L 3481 0 
L 2906 0 
L 2906 525 
Q 2725 213 2448 61 
Q 2172 -91 1784 -91 
Q 1150 -91 751 415 
Q 353 922 353 1747 
Q 353 2572 751 3078 
Q 1150 3584 1784 3584 
Q 2172 3584 2448 3432 
Q 2725 3281 2906 2969 
z
M 947 1747 
Q 947 1113 1208 752 
Q 1469 391 1925 391 
Q 2381 391 2643 752 
Q 2906 1113 2906 1747 
Q 2906 2381 2643 2742 
Q 2381 3103 1925 3103 
Q 1469 3103 1208 2742 
Q 947 2381 947 1747 
z
" transform="scale(0.015625)"/>
    </defs>
    <use xlink:href="#DejaVuSans-48"/>
    <use xlink:href="#DejaVuSans-4f" transform="translate(75.195312 0)"/>
    <use xlink:href="#DejaVuSans-49" transform="translate(153.90625 0)"/>
    <use xlink:href="#DejaVuSans-20" transform="translate(183.398438 0)"/>
    <use xlink:href="#DejaVuSans-54" transform="translate(215.185547 0)"/>
    <use xlink:href="#DejaVuSans-55" transform="translate(276.269531 0)"/>
    <use xlink:href="#DejaVuSans-20" transform="translate(349.462891 0)"/>
    <use xlink:href="#DejaVuSans-54" transform="translate(381.25 0)"/>
    <use xlink:href="#DejaVuSans-41" transform="translate(434.583984 0)"/>
    <use xlink:href="#DejaVuSans-4e" transform="translate(502.992188 0)"/>
    <use xlink:href="#DejaVuSans-47" transform="translate(577.796875 0)"/>
    <use xlink:href="#DejaVuSans-20" transform="translate(655.287109 0)"/>
    <use xlink:href="#DejaVuSans-28" transform="translate(687.074219 0)"/>
    <use xlink:href="#DejaVuSans-42" transform="translate(726.087891 0)"/>
    <use xlink:href="#DejaVuSans-75" transform="translate(794.691406 0)"/>
    <use xlink:href="#DejaVuSans-6c" transform="translate(858.070312 0)"/>
    <use xlink:href="#DejaVuSans-6c" transform="translate(885.853516 0)"/>
    <use xlink:href="#DejaVuSans-69" transform="translate(913.636719 0)"/>
    <use xlink:href="#DejaVuSans-73" transform="translate(941.419922 0)"/>
    <use xlink:href="#DejaVuSans-68" transform="translate(993.519531 0)"/>
    <use xlink:href="#DejaVuSans-20" transform="translate(1056.898438 0)"/>
    <use xlink:href="#DejaVuSans-43" transform="translate(1088.685547 0)"/>
    <use xlink:href="#DejaVuSans-6f" transform="translate(1158.509766 0)"/>
    <use xlink:href="#DejaVuSans-6e" transform="translate(1219.691406 0)"/>
    <use xlink:href="#DejaVuSans-76" transform="translate(1283.070312 0)"/>
    <use xlink:href="#DejaVuSans-65" transform="translate(1342.25 0)"/>
    <use xlink:href="#DejaVuSans-72" transform="translate(1403.773438 0)"/>
    <use xlink:href="#DejaVuSans-67" transform="translate(1443.136719 0)"/>
    <use xlink:href="#DejaVuSans-65" transform="translate(1506.613281 0)"/>
    <use xlink:href="#DejaVuSans-6e" transform="translate(1568.136719 0)"/>
    <use xlink:href="#DejaVuSans-63" transform="translate(1631.515625 0)"/>
    <use xlink:href="#DejaVuSans-65" transform="translate(1686.496094 0)"/>
    <use xlink:href="#DejaVuSans-29" transform="translate(1748.019531 0)"/>
    <use xlink:href="#DejaVuSans-20" transform="translate(1787.033203 0)"/>
    <use xlink:href="#DejaVuSans-2d" transform="translate(1818.820312 0)"/>
    <use xlink:href="#DejaVuSans-20" transform="translate(1854.904297 0)"/>
    <use xlink:href="#DejaVuSans-47" transform="translate(1886.691406 0)"/>
    <use xlink:href="#DejaVuSans-69" transform="translate(1964.181641 0)"/>
    <use xlink:href="#DejaVuSans-61" transform="translate(1991.964844 0)"/>
    <use xlink:href="#DejaVuSans-20" transform="translate(2053.244141 0)"/>
    <use xlink:href="#DejaVuSans-74" transform="translate(2085.03125 0)"/>
    <use xlink:href="#DejaVuSans-61" transform="translate(2124.240234 0)"/>
    <use xlink:href="#DejaVuSans-6f" transform="translate(2185.519531 0)"/>
    <use xlink:href="#DejaVuSans-20" transform="translate(2246.701172 0)"/>
    <use xlink:href="#DejaVuSans-64" transform="translate(2278.488281 0)"/>
    <use xlink:href="#DejaVuSans-61" transform="translate(2341.964844 0)"/>
    <use xlink:href="#DejaVuSans-79" transform="translate(2403.244141 0)"/>
    <use xlink:href="#DejaVuSans-20" transform="translate(2462.423828 0)"/>
    <use xlink:href="#DejaVuSans-74" transform="translate(2494.210938 0)"/>
    <use xlink:href="#DejaVuSans-68" transform="translate(2533.419922 0)"/>
    <use xlink:href="#DejaVuSans-61" transform="translate(2596.798828 0)"/>
    <use xlink:href="#DejaVuSans-70" transform="translate(2658.078125 0)"/>
    <use xlink:href="#DejaVuSans-20" transform="translate(2721.554688 0)"/>
    <use xlink:href="#DejaVuSans-68" transform="translate(2753.341797 0)"/>
    <use xlink:href="#DejaVuSans-6f" transform="translate(2816.720703 0)"/>
    <use xlink:href="#DejaVuSans-6e" transform="translate(2877.902344 0)"/>
    <use xlink:href="#DejaVuSans-20" transform="translate(2941.28125 0)"/>
    <use xlink:href="#DejaVuSans-6e" transform="translate(2973.068359 0)"/>
    <use xlink:href="#DejaVuSans-68" transform="translate(3036.447266 0)"/>
    <use xlink:href="#DejaVuSans-75" transform="translate(3099.826172 0)"/>
    <use xlink:href="#DejaVuSans-6e" transform="translate(3163.205078 0)"/>
    <use xlink:href="#DejaVuSans-67" transform="translate(3226.583984 0)"/>
    <use xlink:href="#DejaVuSans-20" transform="translate(3290.060547 0)"/>
    <use xlink:href="#DejaVuSans-52" transform="translate(3321.847656 0)"/>
    <use xlink:href="#DejaVuSans-53" transform="translate(3391.330078 0)"/>
    <use xlink:href="#DejaVuSans-49" transform="translate(3454.806641 0)"/>
    <use xlink:href="#DejaVuSans-20" transform="translate(3484.298828 0)"/>
    <use xlink:href="#DejaVuSans-74" transform="translate(3516.085938 0)"/>
    <use xlink:href="#DejaVuSans-61" transform="translate(3555.294922 0)"/>
    <use xlink:href="#DejaVuSans-6f" transform="translate(3616.574219 0)"/>
    <use xlink:href="#DejaVuSans-20" transform="translate(3677.755859 0)"/>
    <use xlink:href="#DejaVuSans-64" transform="translate(3709.542969 0)"/>
    <use xlink:href="#DejaVuSans-61" transform="translate(3773.019531 0)"/>
    <use xlink:href="#DejaVuSans-79" transform="translate(3834.298828 0)"/>
    <use xlink:href="#DejaVuSans-20" transform="translate(3893.478516 0)"/>
    <use xlink:href="#DejaVuSans-63" transform="translate(3925.265625 0)"/>
    <use xlink:href="#DejaVuSans-61" transform="translate(3980.246094 0)"/>
    <use xlink:href="#DejaVuSans-6f" transform="translate(4041.525391 0)"/>
    <use xlink:href="#DejaVuSans-20" transform="translate(4102.707031 0)"/>
    <use xlink:href="#DejaVuSans-68" transform="translate(4134.494141 0)"/>
    <use xlink:href="#DejaVuSans-6f" transform="translate(4197.873047 0)"/>
    <use xlink:href="#DejaVuSans-6e" transform="translate(4259.054688 0)"/>
   </g>
  </g>
 </g>
 <defs>
  <clipPath id="p26be7b119a">
   <rect x="50.15" y="69.36" width="659.05" height="238.48"/>
  </clipPath>
  <clipPath id="pf1ffef304b">
   <rect x="50.15" y="334.72" width="659.05" height="108.4"/>
  </clipPath>
 </defs>
</svg>
