<?xml version="1.0" encoding="utf-8" standalone="no"?>
<!DOCTYPE svg PUBLIC "-//W3C//DTD SVG 1.1//EN"
  "http://www.w3.org/Graphics/SVG/1.1/DTD/svg11.dtd">
<svg xmlns:xlink="http://www.w3.org/1999/xlink" width="720pt" height="468pt" viewBox="0 0 720 468" xmlns="http://www.w3.org/2000/svg" version="1.1">
 <metadata>
  <rdf:RDF xmlns:dc="http://purl.org/dc/elements/1.1/" xmlns:cc="http://creativecommons.org/ns#" xmlns:rdf="http://www.w3.org/1999/02/22-rdf-syntax-ns#">
   <cc:Work>
    <dc:type rdf:resource="http://purl.org/dc/dcmitype/StillImage"/>
    <dc:date>2026-07-04T02:52:56.730500</dc:date>
    <dc:format>image/svg+xml</dc:format>
    <dc:creator>
     <cc:Agent>
      <dc:title>Matplotlib v3.10.8, https://matplotlib.org/</dc:title>
     </cc:Agent>
    </dc:creator>
   </cc:Work>
  </rdf:RDF>
 </metadata>
 <defs>
  <style type="text/css">*{stroke-linejoin: round; stroke-linecap: butt}</style>
 </defs>
 <g id="figure_1">
  <g id="patch_1">
   <path d="M 0 468 
L 720 468 
L 720 0 
L 0 0 
z
" style="fill: #ffffff"/>
  </g>
  <g id="axes_1">
   <g id="patch_2">
    <path d="M 50.24 307.84 
L 709.2 307.84 
L 709.2 69.36 
L 50.24 69.36 
z
" style="fill: #ffffff"/>
   </g>
   <g id="matplotlib.axis_1"/>
   <g id="matplotlib.axis_2">
    <g id="ytick_1">
     <g id="line2d_1">
      <path d="M 50.24 289.328785 
L 709.2 289.328785 
" clip-path="url(#p716db06109)" style="fill: none; stroke: #e0e3eb; stroke-width: 0.6; stroke-linecap: square"/>
     </g>
     <g id="line2d_2">
      <defs>
       <path id="m721b26857b" d="M 0 0 
L -3.5 0 
" style="stroke: #000000; stroke-width: 0.8"/>
      </defs>
      <g>
       <use xlink:href="#m721b26857b" x="50.24" y="289.328785" style="stroke: #000000; stroke-width: 0.8"/>
      </g>
     </g>
     <g id="text_1">
      <!-- 100 -->
      <g transform="translate(24.1525 293.128003) scale(0.1 -0.1)">
       <defs>
        <path id="DejaVuSans-31" d="M 794 531 
L 1825 531 
L 1825 4091 
L 703 3866 
L 703 4441 
L 1819 4666 
L 2450 4666 
L 2450 531 
L 3481 531 
L 3481 0 
L 794 0 
L 794 531 
z
" transform="scale(0.015625)"/>
        <path id="DejaVuSans-30" d="M 2034 4250 
Q 1547 4250 1301 3770 
Q 1056 3291 1056 2328 
Q 1056 1369 1301 889 
Q 1547 409 2034 409 
Q 2525 409 2770 889 
Q 3016 1369 3016 2328 
Q 3016 3291 2770 3770 
Q 2525 4250 2034 4250 
z
M 2034 4750 
Q 2819 4750 3233 4129 
Q 3647 3509 3647 2328 
Q 3647 1150 3233 529 
Q 2819 -91 2034 -91 
Q 1250 -91 836 529 
Q 422 1150 422 2328 
Q 422 3509 836 4129 
Q 1250 4750 2034 4750 
z
" transform="scale(0.015625)"/>
       </defs>
       <use xlink:href="#DejaVuSans-31"/>
       <use xlink:href="#DejaVuSans-30" transform="translate(63.623047 0)"/>
       <use xlink:href="#DejaVuSans-30" transform="translate(127.246094 0)"/>
      </g>
     </g>
    </g>
    <g id="ytick_2">
     <g id="line2d_3">
      <path d="M 50.24 255.062447 
L 709.2 255.062447 
" clip-path="url(#p716db06109)" style="fill: none; stroke: #e0e3eb; stroke-width: 0.6; stroke-linecap: square"/>
     </g>
     <g id="line2d_4">
      <g>
       <use xlink:href="#m721b26857b" x="50.24" y="255.062447" style="stroke: #000000; stroke-width: 0.8"/>
      </g>
     </g>
     <g id="text_2">
      <!-- 101 -->
      <g transform="translate(24.1525 258.861666) scale(0.1 -0.1)">
       <use xlink:href="#DejaVuSans-31"/>
       <use xlink:href="#DejaVuSans-30" transform="translate(63.623047 0)"/>
       <use xlink:href="#DejaVuSans-31" transform="translate(127.246094 0)"/>
      </g>
     </g>
    </g>
    <g id="ytick_3">
     <g id="line2d_5">
      <path d="M 50.24 220.796109 
L 709.2 220.796109 
" clip-path="url(#p716db06109)" style="fill: none; stroke: #e0e3eb; stroke-width: 0.6; stroke-linecap: square"/>
     </g>
     <g id="line2d_6">
      <g>
       <use xlink:href="#m721b26857b" x="50.24" y="220.796109" style="stroke: #000000; stroke-width: 0.8"/>
      </g>
     </g>
     <g id="text_3">
      <!-- 102 -->
      <g transform="translate(24.1525 224.595328) scale(0.1 -0.1)">
       <defs>
        <path id="DejaVuSans-32" d="M 1228 531 
L 3431 531 
L 3431 0 
L 469 0 
L 469 531 
Q 828 903 1448 1529 
Q 2069 2156 2228 2338 
Q 2531 2678 2651 2914 
Q 2772 3150 2772 3378 
Q 2772 3750 2511 3984 
Q 2250 4219 1831 4219 
Q 1534 4219 1204 4116 
Q 875 4013 500 3803 
L 500 4441 
Q 881 4594 1212 4672 
Q 1544 4750 1819 4750 
Q 2544 4750 2975 4387 
Q 3406 4025 3406 3419 
Q 3406 3131 3298 2873 
Q 3191 2616 2906 2266 
Q 2828 2175 2409 1742 
Q 1991 1309 1228 531 
z
" transform="scale(0.015625)"/>
       </defs>
       <use xlink:href="#DejaVuSans-31"/>
       <use xlink:href="#DejaVuSans-30" transform="translate(63.623047 0)"/>
       <use xlink:href="#DejaVuSans-32" transform="translate(127.246094 0)"/>
      </g>
     </g>
    </g>
    <g id="ytick_4">
     <g id="line2d_7">
      <path d="M 50.24 186.529771 
L 709.2 186.529771 
" clip-path="url(#p716db06109)" style="fill: none; stroke: #e0e3eb; stroke-width: 0.6; stroke-linecap: square"/>
     </g>
     <g id="line2d_8">
      <g>
       <use xlink:href="#m721b26857b" x="50.24" y="186.529771" style="stroke: #000000; stroke-width: 0.8"/>
      </g>
     </g>
     <g id="text_4">
      <!-- 103 -->
      <g transform="translate(24.1525 190.32899) scale(0.1 -0.1)">
       <defs>
        <path id="DejaVuSans-33" d="M 2597 2516 
Q 3050 2419 3304 2112 
Q 3559 1806 3559 1356 
Q 3559 666 3084 287 
Q 2609 -91 1734 -91 
Q 1441 -91 1130 -33 
Q 819 25 488 141 
L 488 750 
Q 750 597 1062 519 
Q 1375 441 1716 441 
Q 2309 441 2620 675 
Q 2931 909 2931 1356 
Q 2931 1769 2642 2001 
Q 2353 2234 1838 2234 
L 1294 2234 
L 1294 2753 
L 1863 2753 
Q 2328 2753 2575 2939 
Q 2822 3125 2822 3475 
Q 2822 3834 2567 4026 
Q 2313 4219 1838 4219 
Q 1578 4219 1281 4162 
Q 984 4106 628 3988 
L 628 4550 
Q 988 4650 1302 4700 
Q 1616 4750 1894 4750 
Q 2613 4750 3031 4423 
Q 3450 4097 3450 3541 
Q 3450 3153 3228 2886 
Q 3006 2619 2597 2516 
z
" transform="scale(0.015625)"/>
       </defs>
       <use xlink:href="#DejaVuSans-31"/>
       <use xlink:href="#DejaVuSans-30" transform="translate(63.623047 0)"/>
       <use xlink:href="#DejaVuSans-33" transform="translate(127.246094 0)"/>
      </g>
     </g>
    </g>
    <g id="ytick_5">
     <g id="line2d_9">
      <path d="M 50.24 152.263433 
L 709.2 152.263433 
" clip-path="url(#p716db06109)" style="fill: none; stroke: #e0e3eb; stroke-width: 0.6; stroke-linecap: square"/>
     </g>
     <g id="line2d_10">
      <g>
       <use xlink:href="#m721b26857b" x="50.24" y="152.263433" style="stroke: #000000; stroke-width: 0.8"/>
      </g>
     </g>
     <g id="text_5">
      <!-- 104 -->
      <g transform="translate(24.1525 156.062652) scale(0.1 -0.1)">
       <defs>
        <path id="DejaVuSans-34" d="M 2419 4116 
L 825 1625 
L 2419 1625 
L 2419 4116 
z
M 2253 4666 
L 3047 4666 
L 3047 1625 
L 3713 1625 
L 3713 1100 
L 3047 1100 
L 3047 0 
L 2419 0 
L 2419 1100 
L 313 1100 
L 313 1709 
L 2253 4666 
z
" transform="scale(0.015625)"/>
       </defs>
       <use xlink:href="#DejaVuSans-31"/>
       <use xlink:href="#DejaVuSans-30" transform="translate(63.623047 0)"/>
       <use xlink:href="#DejaVuSans-34" transform="translate(127.246094 0)"/>
      </g>
     </g>
    </g>
    <g id="ytick_6">
     <g id="line2d_11">
      <path d="M 50.24 117.997095 
L 709.2 117.997095 
" clip-path="url(#p716db06109)" style="fill: none; stroke: #e0e3eb; stroke-width: 0.6; stroke-linecap: square"/>
     </g>
     <g id="line2d_12">
      <g>
       <use xlink:href="#m721b26857b" x="50.24" y="117.997095" style="stroke: #000000; stroke-width: 0.8"/>
      </g>
     </g>
     <g id="text_6">
      <!-- 105 -->
      <g transform="translate(24.1525 121.796314) scale(0.1 -0.1)">
       <defs>
        <path id="DejaVuSans-35" d="M 691 4666 
L 3169 4666 
L 3169 4134 
L 1269 4134 
L 1269 2991 
Q 1406 3038 1543 3061 
Q 1681 3084 1819 3084 
Q 2600 3084 3056 2656 
Q 3513 2228 3513 1497 
Q 3513 744 3044 326 
Q 2575 -91 1722 -91 
Q 1428 -91 1123 -41 
Q 819 9 494 109 
L 494 744 
Q 775 591 1075 516 
Q 1375 441 1709 441 
Q 2250 441 2565 725 
Q 2881 1009 2881 1497 
Q 2881 1984 2565 2268 
Q 2250 2553 1709 2553 
Q 1456 2553 1204 2497 
Q 953 2441 691 2322 
L 691 4666 
z
" transform="scale(0.015625)"/>
       </defs>
       <use xlink:href="#DejaVuSans-31"/>
       <use xlink:href="#DejaVuSans-30" transform="translate(63.623047 0)"/>
       <use xlink:href="#DejaVuSans-35" transform="translate(127.246094 0)"/>
      </g>
     </g>
    </g>
    <g id="ytick_7">
     <g id="line2d_13">
      <path d="M 50.24 83.730758 
L 709.2 83.730758 
" clip-path="url(#p716db06109)" style="fill: none; stroke: #e0e3eb; stroke-width: 0.6; stroke-linecap: square"/>
     </g>
     <g id="line2d_14">
      <g>
       <use xlink:href="#m721b26857b" x="50.24" y="83.730758" style="stroke: #000000; stroke-width: 0.8"/>
      </g>
     </g>
     <g id="text_7">
      <!-- 106 -->
      <g transform="translate(24.1525 87.529976) scale(0.1 -0.1)">
       <defs>
        <path id="DejaVuSans-36" d="M 2113 2584 
Q 1688 2584 1439 2293 
Q 1191 2003 1191 1497 
Q 1191 994 1439 701 
Q 1688 409 2113 409 
Q 2538 409 2786 701 
Q 3034 994 3034 1497 
Q 3034 2003 2786 2293 
Q 2538 2584 2113 2584 
z
M 3366 4563 
L 3366 3988 
Q 3128 4100 2886 4159 
Q 2644 4219 2406 4219 
Q 1781 4219 1451 3797 
Q 1122 3375 1075 2522 
Q 1259 2794 1537 2939 
Q 1816 3084 2150 3084 
Q 2853 3084 3261 2657 
Q 3669 2231 3669 1497 
Q 3669 778 3244 343 
Q 2819 -91 2113 -91 
Q 1303 -91 875 529 
Q 447 1150 447 2328 
Q 447 3434 972 4092 
Q 1497 4750 2381 4750 
Q 2619 4750 2861 4703 
Q 3103 4656 3366 4563 
z
" transform="scale(0.015625)"/>
       </defs>
       <use xlink:href="#DejaVuSans-31"/>
       <use xlink:href="#DejaVuSans-30" transform="translate(63.623047 0)"/>
       <use xlink:href="#DejaVuSans-36" transform="translate(127.246094 0)"/>
      </g>
     </g>
    </g>
    <g id="text_8">
     <!-- Gia -->
     <g transform="translate(18.280781 196.094609) rotate(-90) scale(0.09 -0.09)">
      <defs>
       <path id="DejaVuSans-47" d="M 3809 666 
L 3809 1919 
L 2778 1919 
L 2778 2438 
L 4434 2438 
L 4434 434 
Q 4069 175 3628 42 
Q 3188 -91 2688 -91 
Q 1594 -91 976 548 
Q 359 1188 359 2328 
Q 359 3472 976 4111 
Q 1594 4750 2688 4750 
Q 3144 4750 3555 4637 
Q 3966 4525 4313 4306 
L 4313 3634 
Q 3963 3931 3569 4081 
Q 3175 4231 2741 4231 
Q 1884 4231 1454 3753 
Q 1025 3275 1025 2328 
Q 1025 1384 1454 906 
Q 1884 428 2741 428 
Q 3075 428 3337 486 
Q 3600 544 3809 666 
z
" transform="scale(0.015625)"/>
       <path id="DejaVuSans-69" d="M 603 3500 
L 1178 3500 
L 1178 0 
L 603 0 
L 603 3500 
z
M 603 4863 
L 1178 4863 
L 1178 4134 
L 603 4134 
L 603 4863 
z
" transform="scale(0.015625)"/>
       <path id="DejaVuSans-61" d="M 2194 1759 
Q 1497 1759 1228 1600 
Q 959 1441 959 1056 
Q 959 750 1161 570 
Q 1363 391 1709 391 
Q 2188 391 2477 730 
Q 2766 1069 2766 1631 
L 2766 1759 
L 2194 1759 
z
M 3341 1997 
L 3341 0 
L 2766 0 
L 2766 531 
Q 2569 213 2275 61 
Q 1981 -91 1556 -91 
Q 1019 -91 701 211 
Q 384 513 384 1019 
Q 384 1609 779 1909 
Q 1175 2209 1959 2209 
L 2766 2209 
L 2766 2266 
Q 2766 2663 2505 2880 
Q 2244 3097 1772 3097 
Q 1472 3097 1187 3025 
Q 903 2953 641 2809 
L 641 3341 
Q 956 3463 1253 3523 
Q 1550 3584 1831 3584 
Q 2591 3584 2966 3190 
Q 3341 2797 3341 1997 
z
" transform="scale(0.015625)"/>
      </defs>
      <use xlink:href="#DejaVuSans-47"/>
      <use xlink:href="#DejaVuSans-69" transform="translate(77.490234 0)"/>
      <use xlink:href="#DejaVuSans-61" transform="translate(105.273438 0)"/>
     </g>
    </g>
   </g>
   <g id="line2d_15">
    <path d="M 86.264226 293.967073 
L 86.264226 279.480458 
" clip-path="url(#p716db06109)" style="fill: none; stroke: #26a69a; stroke-width: 1.2; stroke-linecap: square"/>
   </g>
   <g id="line2d_16">
    <path d="M 106.502555 297 
L 106.502555 280.624926 
" clip-path="url(#p716db06109)" style="fill: none; stroke: #ef5350; stroke-width: 1.2; stroke-linecap: square"/>
   </g>
   <g id="line2d_17">
    <path d="M 126.740885 278.108585 
L 126.740885 263.41254 
" clip-path="url(#p716db06109)" style="fill: none; stroke: #26a69a; stroke-width: 1.2; stroke-linecap: square"/>
   </g>
   <g id="line2d_18">
    <path d="M 146.979214 270.639102 
L 146.979214 248.84671 
" clip-path="url(#p716db06109)" style="fill: none; stroke: #26a69a; stroke-width: 1.2; stroke-linecap: square"/>
   </g>
   <g id="line2d_19">
    <path d="M 167.217543 255.868383 
L 167.217543 245.8426 
" clip-path="url(#p716db06109)" style="fill: none; stroke: #26a69a; stroke-width: 1.2; stroke-linecap: square"/>
   </g>
   <g id="line2d_20">
    <path d="M 187.455872 245.968325 
L 187.455872 219.440296 
" clip-path="url(#p716db06109)" style="fill: none; stroke: #26a69a; stroke-width: 1.2; stroke-linecap: square"/>
   </g>
   <g id="line2d_21">
    <path d="M 207.694201 231.368322 
L 207.694201 213.027763 
" clip-path="url(#p716db06109)" style="fill: none; stroke: #26a69a; stroke-width: 1.2; stroke-linecap: square"/>
   </g>
   <g id="line2d_22">
    <path d="M 227.932531 231.904621 
L 227.932531 211.334127 
" clip-path="url(#p716db06109)" style="fill: none; stroke: #26a69a; stroke-width: 1.2; stroke-linecap: square"/>
   </g>
   <g id="line2d_23">
    <path d="M 248.17086 213.734436 
L 248.17086 199.86791 
" clip-path="url(#p716db06109)" style="fill: none; stroke: #26a69a; stroke-width: 1.2; stroke-linecap: square"/>
   </g>
   <g id="line2d_24">
    <path d="M 268.409189 210.157546 
L 268.409189 189.148226 
" clip-path="url(#p716db06109)" style="fill: none; stroke: #26a69a; stroke-width: 1.2; stroke-linecap: square"/>
   </g>
   <g id="line2d_25">
    <path d="M 288.647518 197.972152 
L 288.647518 177.416273 
" clip-path="url(#p716db06109)" style="fill: none; stroke: #26a69a; stroke-width: 1.2; stroke-linecap: square"/>
   </g>
   <g id="line2d_26">
    <path d="M 308.885848 194.334102 
L 308.885848 181.616102 
" clip-path="url(#p716db06109)" style="fill: none; stroke: #26a69a; stroke-width: 1.2; stroke-linecap: square"/>
   </g>
   <g id="line2d_27">
    <path d="M 329.124177 203.282934 
L 329.124177 186.865376 
" clip-path="url(#p716db06109)" style="fill: none; stroke: #ef5350; stroke-width: 1.2; stroke-linecap: square"/>
   </g>
   <g id="line2d_28">
    <path d="M 349.362506 198.573341 
L 349.362506 187.153313 
" clip-path="url(#p716db06109)" style="fill: none; stroke: #ef5350; stroke-width: 1.2; stroke-linecap: square"/>
   </g>
   <g id="line2d_29">
    <path d="M 369.600835 205.478957 
L 369.600835 185.498478 
" clip-path="url(#p716db06109)" style="fill: none; stroke: #ef5350; stroke-width: 1.2; stroke-linecap: square"/>
   </g>
   <g id="line2d_30">
    <path d="M 389.839165 203.393453 
L 389.839165 192.302691 
" clip-path="url(#p716db06109)" style="fill: none; stroke: #26a69a; stroke-width: 1.2; stroke-linecap: square"/>
   </g>
   <g id="line2d_31">
    <path d="M 410.077494 207.363423 
L 410.077494 192.243446 
" clip-path="url(#p716db06109)" style="fill: none; stroke: #26a69a; stroke-width: 1.2; stroke-linecap: square"/>
   </g>
   <g id="line2d_32">
    <path d="M 430.315823 198.321384 
L 430.315823 182.670333 
" clip-path="url(#p716db06109)" style="fill: none; stroke: #26a69a; stroke-width: 1.2; stroke-linecap: square"/>
   </g>
   <g id="line2d_33">
    <path d="M 450.554152 206.791043 
L 450.554152 187.982634 
" clip-path="url(#p716db06109)" style="fill: none; stroke: #26a69a; stroke-width: 1.2; stroke-linecap: square"/>
   </g>
   <g id="line2d_34">
    <path d="M 470.792482 195.67205 
L 470.792482 180.260387 
" clip-path="url(#p716db06109)" style="fill: none; stroke: #ef5350; stroke-width: 1.2; stroke-linecap: square"/>
   </g>
   <g id="line2d_35">
    <path d="M 491.030811 182.955687 
L 491.030811 165.81945 
" clip-path="url(#p716db06109)" style="fill: none; stroke: #26a69a; stroke-width: 1.2; stroke-linecap: square"/>
   </g>
   <g id="line2d_36">
    <path d="M 511.26914 184.760027 
L 511.26914 157.686552 
" clip-path="url(#p716db06109)" style="fill: none; stroke: #26a69a; stroke-width: 1.2; stroke-linecap: square"/>
   </g>
   <g id="line2d_37">
    <path d="M 531.507469 171.887202 
L 531.507469 155.052548 
" clip-path="url(#p716db06109)" style="fill: none; stroke: #26a69a; stroke-width: 1.2; stroke-linecap: square"/>
   </g>
   <g id="line2d_38">
    <path d="M 551.745799 160.477228 
L 551.745799 147.775933 
" clip-path="url(#p716db06109)" style="fill: none; stroke: #26a69a; stroke-width: 1.2; stroke-linecap: square"/>
   </g>
   <g id="line2d_39">
    <path d="M 571.984128 149.698337 
L 571.984128 137.306581 
" clip-path="url(#p716db06109)" style="fill: none; stroke: #26a69a; stroke-width: 1.2; stroke-linecap: square"/>
   </g>
   <g id="line2d_40">
    <path d="M 592.222457 145.123778 
L 592.222457 129.819001 
" clip-path="url(#p716db06109)" style="fill: none; stroke: #26a69a; stroke-width: 1.2; stroke-linecap: square"/>
   </g>
   <g id="line2d_41">
    <path d="M 612.460786 134.34088 
L 612.460786 118.273127 
" clip-path="url(#p716db06109)" style="fill: none; stroke: #26a69a; stroke-width: 1.2; stroke-linecap: square"/>
   </g>
   <g id="line2d_42">
    <path d="M 632.699115 122.425985 
L 632.699115 99.823234 
" clip-path="url(#p716db06109)" style="fill: none; stroke: #26a69a; stroke-width: 1.2; stroke-linecap: square"/>
   </g>
   <g id="line2d_43">
    <path d="M 652.937445 115.45657 
L 652.937445 98.097651 
" clip-path="url(#p716db06109)" style="fill: none; stroke: #26a69a; stroke-width: 1.2; stroke-linecap: square"/>
   </g>
   <g id="line2d_44">
    <path d="M 673.175774 104.245717 
L 673.175774 80.2 
" clip-path="url(#p716db06109)" style="fill: none; stroke: #26a69a; stroke-width: 1.2; stroke-linecap: square"/>
   </g>
   <g id="patch_3">
    <path d="M 50.24 307.84 
L 50.24 69.36 
" style="fill: none; stroke: #000000; stroke-width: 0.8; stroke-linejoin: miter; stroke-linecap: square"/>
   </g>
   <g id="patch_4">
    <path d="M 709.2 307.84 
L 709.2 69.36 
" style="fill: none; stroke: #000000; stroke-width: 0.8; stroke-linejoin: miter; stroke-linecap: square"/>
   </g>
   <g id="patch_5">
    <path d="M 50.24 307.84 
L 709.2 307.84 
" style="fill: none; stroke: #000000; stroke-width: 0.8; stroke-linejoin: miter; stroke-linecap: square"/>
   </g>
   <g id="patch_6">
    <path d="M 50.24 69.36 
L 709.2 69.36 
" style="fill: none; stroke: #000000; stroke-width: 0.8; stroke-linejoin: miter; stroke-linecap: square"/>
   </g>
   <g id="patch_7">
    <path d="M 80.192727 290.18179 
L 92.335725 290.18179 
L 92.335725 281.194558 
L 80.192727 281.194558 
z
" clip-path="url(#p716db06109)" style="fill: #26a69a; stroke: #26a69a; stroke-linejoin: miter"/>
   </g>
   <g id="patch_8">
    <path d="M 100.431057 292.918463 
L 112.574054 292.918463 
L 112.574054 283.614734 
L 100.431057 283.614734 
z
" clip-path="url(#p716db06109)" style="fill: #ef5350; stroke: #ef5350; stroke-linejoin: miter"/>
   </g>
   <g id="patch_9">
    <path d="M 120.669386 271.699275 
L 132.812383 271.699275 
L 132.812383 267.998709 
L 120.669386 267.998709 
z
" clip-path="url(#p716db06109)" style="fill: #26a69a; stroke: #26a69a; stroke-linejoin: miter"/>
   </g>
   <g id="patch_10">
    <path d="M 140.907715 264.330892 
L 153.050713 264.330892 
L 153.050713 250.747722 
L 140.907715 250.747722 
z
" clip-path="url(#p716db06109)" style="fill: #26a69a; stroke: #26a69a; stroke-linejoin: miter"/>
   </g>
   <g id="patch_11">
    <path d="M 161.146044 252.797424 
L 173.289042 252.797424 
L 173.289042 248.518026 
L 161.146044 248.518026 
z
" clip-path="url(#p716db06109)" style="fill: #26a69a; stroke: #26a69a; stroke-linejoin: miter"/>
   </g>
   <g id="patch_12">
    <path d="M 181.384373 239.510336 
L 193.527371 239.510336 
L 193.527371 223.301593 
L 181.384373 223.301593 
z
" clip-path="url(#p716db06109)" style="fill: #26a69a; stroke: #26a69a; stroke-linejoin: miter"/>
   </g>
   <g id="patch_13">
    <path d="M 201.622703 229.387352 
L 213.7657 229.387352 
L 213.7657 215.32391 
L 201.622703 215.32391 
z
" clip-path="url(#p716db06109)" style="fill: #26a69a; stroke: #26a69a; stroke-linejoin: miter"/>
   </g>
   <g id="patch_14">
    <path d="M 221.861032 227.305341 
L 234.004029 227.305341 
L 234.004029 213.721441 
L 221.861032 213.721441 
z
" clip-path="url(#p716db06109)" style="fill: #26a69a; stroke: #26a69a; stroke-linejoin: miter"/>
   </g>
   <g id="patch_15">
    <path d="M 242.099361 209.858807 
L 254.242359 209.858807 
L 254.242359 206.322846 
L 242.099361 206.322846 
z
" clip-path="url(#p716db06109)" style="fill: #26a69a; stroke: #26a69a; stroke-linejoin: miter"/>
   </g>
   <g id="patch_16">
    <path d="M 262.33769 203.30329 
L 274.480688 203.30329 
L 274.480688 190.986878 
L 262.33769 190.986878 
z
" clip-path="url(#p716db06109)" style="fill: #26a69a; stroke: #26a69a; stroke-linejoin: miter"/>
   </g>
   <g id="patch_17">
    <path d="M 282.57602 190.849692 
L 294.719017 190.849692 
L 294.719017 181.051548 
L 282.57602 181.051548 
z
" clip-path="url(#p716db06109)" style="fill: #26a69a; stroke: #26a69a; stroke-linejoin: miter"/>
   </g>
   <g id="patch_18">
    <path d="M 302.814349 190.608569 
L 314.957346 190.608569 
L 314.957346 188.895252 
L 302.814349 188.895252 
z
" clip-path="url(#p716db06109)" style="fill: #26a69a; stroke: #26a69a; stroke-linejoin: miter"/>
   </g>
   <g id="patch_19">
    <path d="M 323.052678 196.917375 
L 335.195676 196.917375 
L 335.195676 188.71142 
L 323.052678 188.71142 
z
" clip-path="url(#p716db06109)" style="fill: #ef5350; stroke: #ef5350; stroke-linejoin: miter"/>
   </g>
   <g id="patch_20">
    <path d="M 343.291007 196.494316 
L 355.434005 196.494316 
L 355.434005 192.235513 
L 343.291007 192.235513 
z
" clip-path="url(#p716db06109)" style="fill: #ef5350; stroke: #ef5350; stroke-linejoin: miter"/>
   </g>
   <g id="patch_21">
    <path d="M 363.529337 198.970009 
L 375.672334 198.970009 
L 375.672334 191.250464 
L 363.529337 191.250464 
z
" clip-path="url(#p716db06109)" style="fill: #ef5350; stroke: #ef5350; stroke-linejoin: miter"/>
   </g>
   <g id="patch_22">
    <path d="M 383.767666 198.841655 
L 395.910663 198.841655 
L 395.910663 197.128338 
L 383.767666 197.128338 
z
" clip-path="url(#p716db06109)" style="fill: #26a69a; stroke: #26a69a; stroke-linejoin: miter"/>
   </g>
   <g id="patch_23">
    <path d="M 404.005995 202.121433 
L 416.148993 202.121433 
L 416.148993 198.505925 
L 404.005995 198.505925 
z
" clip-path="url(#p716db06109)" style="fill: #26a69a; stroke: #26a69a; stroke-linejoin: miter"/>
   </g>
   <g id="patch_24">
    <path d="M 424.244324 195.665916 
L 436.387322 195.665916 
L 436.387322 190.574905 
L 424.244324 190.574905 
z
" clip-path="url(#p716db06109)" style="fill: #26a69a; stroke: #26a69a; stroke-linejoin: miter"/>
   </g>
   <g id="patch_25">
    <path d="M 444.482654 203.94451 
L 456.625651 203.94451 
L 456.625651 192.421337 
L 444.482654 192.421337 
z
" clip-path="url(#p716db06109)" style="fill: #26a69a; stroke: #26a69a; stroke-linejoin: miter"/>
   </g>
   <g id="patch_26">
    <path d="M 464.720983 188.983275 
L 476.86398 188.983275 
L 476.86398 187.11922 
L 464.720983 187.11922 
z
" clip-path="url(#p716db06109)" style="fill: #ef5350; stroke: #ef5350; stroke-linejoin: miter"/>
   </g>
   <g id="patch_27">
    <path d="M 484.959312 178.851276 
L 497.10231 178.851276 
L 497.10231 172.679176 
L 484.959312 172.679176 
z
" clip-path="url(#p716db06109)" style="fill: #26a69a; stroke: #26a69a; stroke-linejoin: miter"/>
   </g>
   <g id="patch_28">
    <path d="M 505.197641 176.434403 
L 517.340639 176.434403 
L 517.340639 162.333693 
L 505.197641 162.333693 
z
" clip-path="url(#p716db06109)" style="fill: #26a69a; stroke: #26a69a; stroke-linejoin: miter"/>
   </g>
   <g id="patch_29">
    <path d="M 525.435971 163.666782 
L 537.578968 163.666782 
L 537.578968 157.55225 
L 525.435971 157.55225 
z
" clip-path="url(#p716db06109)" style="fill: #26a69a; stroke: #26a69a; stroke-linejoin: miter"/>
   </g>
   <g id="patch_30">
    <path d="M 545.6743 157.139502 
L 557.817297 157.139502 
L 557.817297 152.28632 
L 545.6743 152.28632 
z
" clip-path="url(#p716db06109)" style="fill: #26a69a; stroke: #26a69a; stroke-linejoin: miter"/>
   </g>
   <g id="patch_31">
    <path d="M 565.912629 143.755561 
L 578.055627 143.755561 
L 578.055627 139.039569 
L 565.912629 139.039569 
z
" clip-path="url(#p716db06109)" style="fill: #26a69a; stroke: #26a69a; stroke-linejoin: miter"/>
   </g>
   <g id="patch_32">
    <path d="M 586.150958 140.961996 
L 598.293956 140.961996 
L 598.293956 137.603916 
L 586.150958 137.603916 
z
" clip-path="url(#p716db06109)" style="fill: #26a69a; stroke: #26a69a; stroke-linejoin: miter"/>
   </g>
   <g id="patch_33">
    <path d="M 606.389287 126.257881 
L 618.532285 126.257881 
L 618.532285 120.094871 
L 606.389287 120.094871 
z
" clip-path="url(#p716db06109)" style="fill: #26a69a; stroke: #26a69a; stroke-linejoin: miter"/>
   </g>
   <g id="patch_34">
    <path d="M 626.627617 119.77284 
L 638.770614 119.77284 
L 638.770614 102.717647 
L 626.627617 102.717647 
z
" clip-path="url(#p716db06109)" style="fill: #26a69a; stroke: #26a69a; stroke-linejoin: miter"/>
   </g>
   <g id="patch_35">
    <path d="M 646.865946 108.565862 
L 659.008943 108.565862 
L 659.008943 100.263285 
L 646.865946 100.263285 
z
" clip-path="url(#p716db06109)" style="fill: #26a69a; stroke: #26a69a; stroke-linejoin: miter"/>
   </g>
   <g id="patch_36">
    <path d="M 667.104275 101.680738 
L 679.247273 101.680738 
L 679.247273 86.789586 
L 667.104275 86.789586 
z
" clip-path="url(#p716db06109)" style="fill: #26a69a; stroke: #26a69a; stroke-linejoin: miter"/>
   </g>
   <g id="text_9">
    <!-- Gia van dang TANG (dinh sau cao hon dinh truoc) -->
    <g style="fill: #131722" transform="translate(50.24 63.36) scale(0.12 -0.12)">
     <defs>
      <path id="DejaVuSans-Bold-47" d="M 4781 347 
Q 4331 128 3847 18 
Q 3363 -91 2847 -91 
Q 1681 -91 1000 561 
Q 319 1213 319 2328 
Q 319 3456 1012 4103 
Q 1706 4750 2913 4750 
Q 3378 4750 3804 4662 
Q 4231 4575 4609 4403 
L 4609 3438 
Q 4219 3659 3833 3768 
Q 3447 3878 3059 3878 
Q 2341 3878 1952 3476 
Q 1563 3075 1563 2328 
Q 1563 1588 1938 1184 
Q 2313 781 3003 781 
Q 3191 781 3352 804 
Q 3513 828 3641 878 
L 3641 1784 
L 2906 1784 
L 2906 2591 
L 4781 2591 
L 4781 347 
z
" transform="scale(0.015625)"/>
      <path id="DejaVuSans-Bold-69" d="M 538 3500 
L 1656 3500 
L 1656 0 
L 538 0 
L 538 3500 
z
M 538 4863 
L 1656 4863 
L 1656 3950 
L 538 3950 
L 538 4863 
z
" transform="scale(0.015625)"/>
      <path id="DejaVuSans-Bold-61" d="M 2106 1575 
Q 1756 1575 1579 1456 
Q 1403 1338 1403 1106 
Q 1403 894 1545 773 
Q 1688 653 1941 653 
Q 2256 653 2472 879 
Q 2688 1106 2688 1447 
L 2688 1575 
L 2106 1575 
z
M 3816 1997 
L 3816 0 
L 2688 0 
L 2688 519 
Q 2463 200 2181 54 
Q 1900 -91 1497 -91 
Q 953 -91 614 226 
Q 275 544 275 1050 
Q 275 1666 698 1953 
Q 1122 2241 2028 2241 
L 2688 2241 
L 2688 2328 
Q 2688 2594 2478 2717 
Q 2269 2841 1825 2841 
Q 1466 2841 1156 2769 
Q 847 2697 581 2553 
L 581 3406 
Q 941 3494 1303 3539 
Q 1666 3584 2028 3584 
Q 2975 3584 3395 3211 
Q 3816 2838 3816 1997 
z
" transform="scale(0.015625)"/>
      <path id="DejaVuSans-Bold-20" transform="scale(0.015625)"/>
      <path id="DejaVuSans-Bold-76" d="M 97 3500 
L 1216 3500 
L 2088 1081 
L 2956 3500 
L 4078 3500 
L 2700 0 
L 1472 0 
L 97 3500 
z
" transform="scale(0.015625)"/>
      <path id="DejaVuSans-Bold-6e" d="M 4056 2131 
L 4056 0 
L 2931 0 
L 2931 347 
L 2931 1631 
Q 2931 2084 2911 2256 
Q 2891 2428 2841 2509 
Q 2775 2619 2662 2680 
Q 2550 2741 2406 2741 
Q 2056 2741 1856 2470 
Q 1656 2200 1656 1722 
L 1656 0 
L 538 0 
L 538 3500 
L 1656 3500 
L 1656 2988 
Q 1909 3294 2193 3439 
Q 2478 3584 2822 3584 
Q 3428 3584 3742 3212 
Q 4056 2841 4056 2131 
z
" transform="scale(0.015625)"/>
      <path id="DejaVuSans-Bold-64" d="M 2919 2988 
L 2919 4863 
L 4044 4863 
L 4044 0 
L 2919 0 
L 2919 506 
Q 2688 197 2409 53 
Q 2131 -91 1766 -91 
Q 1119 -91 703 423 
Q 288 938 288 1747 
Q 288 2556 703 3070 
Q 1119 3584 1766 3584 
Q 2128 3584 2408 3439 
Q 2688 3294 2919 2988 
z
M 2181 722 
Q 2541 722 2730 984 
Q 2919 1247 2919 1747 
Q 2919 2247 2730 2509 
Q 2541 2772 2181 2772 
Q 1825 2772 1636 2509 
Q 1447 2247 1447 1747 
Q 1447 1247 1636 984 
Q 1825 722 2181 722 
z
" transform="scale(0.015625)"/>
      <path id="DejaVuSans-Bold-67" d="M 2919 594 
Q 2688 288 2409 144 
Q 2131 0 1766 0 
Q 1125 0 706 504 
Q 288 1009 288 1791 
Q 288 2575 706 3076 
Q 1125 3578 1766 3578 
Q 2131 3578 2409 3434 
Q 2688 3291 2919 2981 
L 2919 3500 
L 4044 3500 
L 4044 353 
Q 4044 -491 3511 -936 
Q 2978 -1381 1966 -1381 
Q 1638 -1381 1331 -1331 
Q 1025 -1281 716 -1178 
L 716 -306 
Q 1009 -475 1290 -558 
Q 1572 -641 1856 -641 
Q 2406 -641 2662 -400 
Q 2919 -159 2919 353 
L 2919 594 
z
M 2181 2772 
Q 1834 2772 1640 2515 
Q 1447 2259 1447 1791 
Q 1447 1309 1634 1061 
Q 1822 813 2181 813 
Q 2531 813 2725 1069 
Q 2919 1325 2919 1791 
Q 2919 2259 2725 2515 
Q 2531 2772 2181 2772 
z
" transform="scale(0.015625)"/>
      <path id="DejaVuSans-Bold-54" d="M 31 4666 
L 4331 4666 
L 4331 3756 
L 2784 3756 
L 2784 0 
L 1581 0 
L 1581 3756 
L 31 3756 
L 31 4666 
z
" transform="scale(0.015625)"/>
      <path id="DejaVuSans-Bold-41" d="M 3419 850 
L 1538 850 
L 1241 0 
L 31 0 
L 1759 4666 
L 3194 4666 
L 4922 0 
L 3713 0 
L 3419 850 
z
M 1838 1716 
L 3116 1716 
L 2478 3572 
L 1838 1716 
z
" transform="scale(0.015625)"/>
      <path id="DejaVuSans-Bold-4e" d="M 588 4666 
L 1931 4666 
L 3628 1466 
L 3628 4666 
L 4769 4666 
L 4769 0 
L 3425 0 
L 1728 3200 
L 1728 0 
L 588 0 
L 588 4666 
z
" transform="scale(0.015625)"/>
      <path id="DejaVuSans-Bold-28" d="M 2413 -844 
L 1484 -844 
Q 1006 -72 778 623 
Q 550 1319 550 2003 
Q 550 2688 779 3389 
Q 1009 4091 1484 4856 
L 2413 4856 
Q 2013 4116 1813 3408 
Q 1613 2700 1613 2009 
Q 1613 1319 1811 609 
Q 2009 -100 2413 -844 
z
" transform="scale(0.015625)"/>
      <path id="DejaVuSans-Bold-68" d="M 4056 2131 
L 4056 0 
L 2931 0 
L 2931 347 
L 2931 1625 
Q 2931 2084 2911 2256 
Q 2891 2428 2841 2509 
Q 2775 2619 2662 2680 
Q 2550 2741 2406 2741 
Q 2056 2741 1856 2470 
Q 1656 2200 1656 1722 
L 1656 0 
L 538 0 
L 538 4863 
L 1656 4863 
L 1656 2988 
Q 1909 3294 2193 3439 
Q 2478 3584 2822 3584 
Q 3428 3584 3742 3212 
Q 4056 2841 4056 2131 
z
" transform="scale(0.015625)"/>
      <path id="DejaVuSans-Bold-73" d="M 3272 3391 
L 3272 2541 
Q 2913 2691 2578 2766 
Q 2244 2841 1947 2841 
Q 1628 2841 1473 2761 
Q 1319 2681 1319 2516 
Q 1319 2381 1436 2309 
Q 1553 2238 1856 2203 
L 2053 2175 
Q 2913 2066 3209 1816 
Q 3506 1566 3506 1031 
Q 3506 472 3093 190 
Q 2681 -91 1863 -91 
Q 1516 -91 1145 -36 
Q 775 19 384 128 
L 384 978 
Q 719 816 1070 734 
Q 1422 653 1784 653 
Q 2113 653 2278 743 
Q 2444 834 2444 1013 
Q 2444 1163 2330 1236 
Q 2216 1309 1875 1350 
L 1678 1375 
Q 931 1469 631 1722 
Q 331 1975 331 2491 
Q 331 3047 712 3315 
Q 1094 3584 1881 3584 
Q 2191 3584 2531 3537 
Q 2872 3491 3272 3391 
z
" transform="scale(0.015625)"/>
      <path id="DejaVuSans-Bold-75" d="M 500 1363 
L 500 3500 
L 1625 3500 
L 1625 3150 
Q 1625 2866 1622 2436 
Q 1619 2006 1619 1863 
Q 1619 1441 1641 1255 
Q 1663 1069 1716 984 
Q 1784 875 1895 815 
Q 2006 756 2150 756 
Q 2500 756 2700 1025 
Q 2900 1294 2900 1772 
L 2900 3500 
L 4019 3500 
L 4019 0 
L 2900 0 
L 2900 506 
Q 2647 200 2364 54 
Q 2081 -91 1741 -91 
Q 1134 -91 817 281 
Q 500 653 500 1363 
z
" transform="scale(0.015625)"/>
      <path id="DejaVuSans-Bold-63" d="M 3366 3391 
L 3366 2478 
Q 3138 2634 2908 2709 
Q 2678 2784 2431 2784 
Q 1963 2784 1702 2511 
Q 1441 2238 1441 1747 
Q 1441 1256 1702 982 
Q 1963 709 2431 709 
Q 2694 709 2930 787 
Q 3166 866 3366 1019 
L 3366 103 
Q 3103 6 2833 -42 
Q 2563 -91 2291 -91 
Q 1344 -91 809 395 
Q 275 881 275 1747 
Q 275 2613 809 3098 
Q 1344 3584 2291 3584 
Q 2566 3584 2833 3536 
Q 3100 3488 3366 3391 
z
" transform="scale(0.015625)"/>
      <path id="DejaVuSans-Bold-6f" d="M 2203 2784 
Q 1831 2784 1636 2517 
Q 1441 2250 1441 1747 
Q 1441 1244 1636 976 
Q 1831 709 2203 709 
Q 2569 709 2762 976 
Q 2956 1244 2956 1747 
Q 2956 2250 2762 2517 
Q 2569 2784 2203 2784 
z
M 2203 3584 
Q 3106 3584 3614 3096 
Q 4122 2609 4122 1747 
Q 4122 884 3614 396 
Q 3106 -91 2203 -91 
Q 1297 -91 786 396 
Q 275 884 275 1747 
Q 275 2609 786 3096 
Q 1297 3584 2203 3584 
z
" transform="scale(0.015625)"/>
      <path id="DejaVuSans-Bold-74" d="M 1759 4494 
L 1759 3500 
L 2913 3500 
L 2913 2700 
L 1759 2700 
L 1759 1216 
Q 1759 972 1856 886 
Q 1953 800 2241 800 
L 2816 800 
L 2816 0 
L 1856 0 
Q 1194 0 917 276 
Q 641 553 641 1216 
L 641 2700 
L 84 2700 
L 84 3500 
L 641 3500 
L 641 4494 
L 1759 4494 
z
" transform="scale(0.015625)"/>
      <path id="DejaVuSans-Bold-72" d="M 3138 2547 
Q 2991 2616 2845 2648 
Q 2700 2681 2553 2681 
Q 2122 2681 1889 2404 
Q 1656 2128 1656 1613 
L 1656 0 
L 538 0 
L 538 3500 
L 1656 3500 
L 1656 2925 
Q 1872 3269 2151 3426 
Q 2431 3584 2822 3584 
Q 2878 3584 2943 3579 
Q 3009 3575 3134 3559 
L 3138 2547 
z
" transform="scale(0.015625)"/>
      <path id="DejaVuSans-Bold-29" d="M 513 -844 
Q 913 -100 1113 609 
Q 1313 1319 1313 2009 
Q 1313 2700 1113 3408 
Q 913 4116 513 4856 
L 1441 4856 
Q 1916 4091 2145 3389 
Q 2375 2688 2375 2003 
Q 2375 1319 2147 623 
Q 1919 -72 1441 -844 
L 513 -844 
z
" transform="scale(0.015625)"/>
     </defs>
     <use xlink:href="#DejaVuSans-Bold-47"/>
     <use xlink:href="#DejaVuSans-Bold-69" transform="translate(82.080078 0)"/>
     <use xlink:href="#DejaVuSans-Bold-61" transform="translate(116.357422 0)"/>
     <use xlink:href="#DejaVuSans-Bold-20" transform="translate(183.837891 0)"/>
     <use xlink:href="#DejaVuSans-Bold-76" transform="translate(218.652344 0)"/>
     <use xlink:href="#DejaVuSans-Bold-61" transform="translate(283.837891 0)"/>
     <use xlink:href="#DejaVuSans-Bold-6e" transform="translate(351.318359 0)"/>
     <use xlink:href="#DejaVuSans-Bold-20" transform="translate(422.509766 0)"/>
     <use xlink:href="#DejaVuSans-Bold-64" transform="translate(457.324219 0)"/>
     <use xlink:href="#DejaVuSans-Bold-61" transform="translate(528.90625 0)"/>
     <use xlink:href="#DejaVuSans-Bold-6e" transform="translate(596.386719 0)"/>
     <use xlink:href="#DejaVuSans-Bold-67" transform="translate(667.578125 0)"/>
     <use xlink:href="#DejaVuSans-Bold-20" transform="translate(739.160156 0)"/>
     <use xlink:href="#DejaVuSans-Bold-54" transform="translate(773.974609 0)"/>
     <use xlink:href="#DejaVuSans-Bold-41" transform="translate(834.4375 0)"/>
     <use xlink:href="#DejaVuSans-Bold-4e" transform="translate(911.830078 0)"/>
     <use xlink:href="#DejaVuSans-Bold-47" transform="translate(995.521484 0)"/>
     <use xlink:href="#DejaVuSans-Bold-20" transform="translate(1077.601562 0)"/>
     <use xlink:href="#DejaVuSans-Bold-28" transform="translate(1112.416016 0)"/>
     <use xlink:href="#DejaVuSans-Bold-64" transform="translate(1158.119141 0)"/>
     <use xlink:href="#DejaVuSans-Bold-69" transform="translate(1229.701172 0)"/>
     <use xlink:href="#DejaVuSans-Bold-6e" transform="translate(1263.978516 0)"/>
     <use xlink:href="#DejaVuSans-Bold-68" transform="translate(1335.169922 0)"/>
     <use xlink:href="#DejaVuSans-Bold-20" transform="translate(1406.361328 0)"/>
     <use xlink:href="#DejaVuSans-Bold-73" transform="translate(1441.175781 0)"/>
     <use xlink:href="#DejaVuSans-Bold-61" transform="translate(1500.697266 0)"/>
     <use xlink:href="#DejaVuSans-Bold-75" transform="translate(1568.177734 0)"/>
     <use xlink:href="#DejaVuSans-Bold-20" transform="translate(1639.369141 0)"/>
     <use xlink:href="#DejaVuSans-Bold-63" transform="translate(1674.183594 0)"/>
     <use xlink:href="#DejaVuSans-Bold-61" transform="translate(1733.460938 0)"/>
     <use xlink:href="#DejaVuSans-Bold-6f" transform="translate(1800.941406 0)"/>
     <use xlink:href="#DejaVuSans-Bold-20" transform="translate(1869.642578 0)"/>
     <use xlink:href="#DejaVuSans-Bold-68" transform="translate(1904.457031 0)"/>
     <use xlink:href="#DejaVuSans-Bold-6f" transform="translate(1975.648438 0)"/>
     <use xlink:href="#DejaVuSans-Bold-6e" transform="translate(2044.349609 0)"/>
     <use xlink:href="#DejaVuSans-Bold-20" transform="translate(2115.541016 0)"/>
     <use xlink:href="#DejaVuSans-Bold-64" transform="translate(2150.355469 0)"/>
     <use xlink:href="#DejaVuSans-Bold-69" transform="translate(2221.9375 0)"/>
     <use xlink:href="#DejaVuSans-Bold-6e" transform="translate(2256.214844 0)"/>
     <use xlink:href="#DejaVuSans-Bold-68" transform="translate(2327.40625 0)"/>
     <use xlink:href="#DejaVuSans-Bold-20" transform="translate(2398.597656 0)"/>
     <use xlink:href="#DejaVuSans-Bold-74" transform="translate(2433.412109 0)"/>
     <use xlink:href="#DejaVuSans-Bold-72" transform="translate(2481.214844 0)"/>
     <use xlink:href="#DejaVuSans-Bold-75" transform="translate(2530.53125 0)"/>
     <use xlink:href="#DejaVuSans-Bold-6f" transform="translate(2601.722656 0)"/>
     <use xlink:href="#DejaVuSans-Bold-63" transform="translate(2670.423828 0)"/>
     <use xlink:href="#DejaVuSans-Bold-29" transform="translate(2729.701172 0)"/>
    </g>
   </g>
  </g>
  <g id="axes_2">
   <g id="patch_37">
    <path d="M 50.24 443.12 
L 709.2 443.12 
L 709.2 334.72 
L 50.24 334.72 
z
" style="fill: #ffffff"/>
   </g>
   <g id="patch_38">
    <path d="M 80.192727 414.525371 
L 92.335725 414.525371 
L 92.335725 403.948935 
L 80.192727 403.948935 
z
" clip-path="url(#pb909d6886a)" style="fill: #26a69a; opacity: 0.55"/>
   </g>
   <g id="patch_39">
    <path d="M 100.431057 414.525371 
L 112.574054 414.525371 
L 112.574054 400.853098 
L 100.431057 400.853098 
z
" clip-path="url(#pb909d6886a)" style="fill: #26a69a; opacity: 0.55"/>
   </g>
   <g id="patch_40">
    <path d="M 120.669386 414.525371 
L 132.812383 414.525371 
L 132.812383 405.203033 
L 120.669386 405.203033 
z
" clip-path="url(#pb909d6886a)" style="fill: #26a69a; opacity: 0.55"/>
   </g>
   <g id="patch_41">
    <path d="M 140.907715 414.525371 
L 153.050713 414.525371 
L 153.050713 403.342649 
L 140.907715 403.342649 
z
" clip-path="url(#pb909d6886a)" style="fill: #26a69a; opacity: 0.55"/>
   </g>
   <g id="patch_42">
    <path d="M 161.146044 414.525371 
L 173.289042 414.525371 
L 173.289042 397.634847 
L 161.146044 397.634847 
z
" clip-path="url(#pb909d6886a)" style="fill: #26a69a; opacity: 0.55"/>
   </g>
   <g id="patch_43">
    <path d="M 181.384373 414.525371 
L 193.527371 414.525371 
L 193.527371 395.693084 
L 181.384373 395.693084 
z
" clip-path="url(#pb909d6886a)" style="fill: #26a69a; opacity: 0.55"/>
   </g>
   <g id="patch_44">
    <path d="M 201.622703 414.525371 
L 213.7657 414.525371 
L 213.7657 404.638189 
L 201.622703 404.638189 
z
" clip-path="url(#pb909d6886a)" style="fill: #26a69a; opacity: 0.55"/>
   </g>
   <g id="patch_45">
    <path d="M 221.861032 414.525371 
L 234.004029 414.525371 
L 234.004029 403.44792 
L 221.861032 403.44792 
z
" clip-path="url(#pb909d6886a)" style="fill: #26a69a; opacity: 0.55"/>
   </g>
   <g id="patch_46">
    <path d="M 242.099361 414.525371 
L 254.242359 414.525371 
L 254.242359 403.175919 
L 242.099361 403.175919 
z
" clip-path="url(#pb909d6886a)" style="fill: #26a69a; opacity: 0.55"/>
   </g>
   <g id="patch_47">
    <path d="M 262.33769 414.525371 
L 274.480688 414.525371 
L 274.480688 399.64427 
L 262.33769 399.64427 
z
" clip-path="url(#pb909d6886a)" style="fill: #26a69a; opacity: 0.55"/>
   </g>
   <g id="patch_48">
    <path d="M 282.57602 414.525371 
L 294.719017 414.525371 
L 294.719017 403.622845 
L 282.57602 403.622845 
z
" clip-path="url(#pb909d6886a)" style="fill: #26a69a; opacity: 0.55"/>
   </g>
   <g id="patch_49">
    <path d="M 302.814349 414.525371 
L 314.957346 414.525371 
L 314.957346 401.174602 
L 302.814349 401.174602 
z
" clip-path="url(#pb909d6886a)" style="fill: #26a69a; opacity: 0.55"/>
   </g>
   <g id="patch_50">
    <path d="M 323.052678 414.525371 
L 335.195676 414.525371 
L 335.195676 398.541811 
L 323.052678 398.541811 
z
" clip-path="url(#pb909d6886a)" style="fill: #26a69a; opacity: 0.55"/>
   </g>
   <g id="patch_51">
    <path d="M 343.291007 414.525371 
L 355.434005 414.525371 
L 355.434005 404.540671 
L 343.291007 404.540671 
z
" clip-path="url(#pb909d6886a)" style="fill: #26a69a; opacity: 0.55"/>
   </g>
   <g id="patch_52">
    <path d="M 363.529337 414.525371 
L 375.672334 414.525371 
L 375.672334 406.341416 
L 363.529337 406.341416 
z
" clip-path="url(#pb909d6886a)" style="fill: #26a69a; opacity: 0.55"/>
   </g>
   <g id="patch_53">
    <path d="M 383.767666 414.525371 
L 395.910663 414.525371 
L 395.910663 412.978473 
L 383.767666 412.978473 
z
" clip-path="url(#pb909d6886a)" style="fill: #26a69a; opacity: 0.55"/>
   </g>
   <g id="patch_54">
    <path d="M 404.005995 414.525371 
L 416.148993 414.525371 
L 416.148993 418.301606 
L 404.005995 418.301606 
z
" clip-path="url(#pb909d6886a)" style="fill: #ef5350; opacity: 0.55"/>
   </g>
   <g id="patch_55">
    <path d="M 424.244324 414.525371 
L 436.387322 414.525371 
L 436.387322 416.034021 
L 424.244324 416.034021 
z
" clip-path="url(#pb909d6886a)" style="fill: #ef5350; opacity: 0.55"/>
   </g>
   <g id="patch_56">
    <path d="M 444.482654 414.525371 
L 456.625651 414.525371 
L 456.625651 418.00915 
L 444.482654 418.00915 
z
" clip-path="url(#pb909d6886a)" style="fill: #ef5350; opacity: 0.55"/>
   </g>
   <g id="patch_57">
    <path d="M 464.720983 414.525371 
L 476.86398 414.525371 
L 476.86398 416.011893 
L 464.720983 416.011893 
z
" clip-path="url(#pb909d6886a)" style="fill: #ef5350; opacity: 0.55"/>
   </g>
   <g id="patch_58">
    <path d="M 484.959312 414.525371 
L 497.10231 414.525371 
L 497.10231 413.084926 
L 484.959312 413.084926 
z
" clip-path="url(#pb909d6886a)" style="fill: #26a69a; opacity: 0.55"/>
   </g>
   <g id="patch_59">
    <path d="M 505.197641 414.525371 
L 517.340639 414.525371 
L 517.340639 408.169951 
L 505.197641 408.169951 
z
" clip-path="url(#pb909d6886a)" style="fill: #26a69a; opacity: 0.55"/>
   </g>
   <g id="patch_60">
    <path d="M 525.435971 414.525371 
L 537.578968 414.525371 
L 537.578968 409.829879 
L 525.435971 409.829879 
z
" clip-path="url(#pb909d6886a)" style="fill: #26a69a; opacity: 0.55"/>
   </g>
   <g id="patch_61">
    <path d="M 545.6743 414.525371 
L 557.817297 414.525371 
L 557.817297 406.731088 
L 545.6743 406.731088 
z
" clip-path="url(#pb909d6886a)" style="fill: #26a69a; opacity: 0.55"/>
   </g>
   <g id="patch_62">
    <path d="M 565.912629 414.525371 
L 578.055627 414.525371 
L 578.055627 404.651755 
L 565.912629 404.651755 
z
" clip-path="url(#pb909d6886a)" style="fill: #26a69a; opacity: 0.55"/>
   </g>
   <g id="patch_63">
    <path d="M 586.150958 414.525371 
L 598.293956 414.525371 
L 598.293956 400.116703 
L 586.150958 400.116703 
z
" clip-path="url(#pb909d6886a)" style="fill: #26a69a; opacity: 0.55"/>
   </g>
   <g id="patch_64">
    <path d="M 606.389287 414.525371 
L 618.532285 414.525371 
L 618.532285 403.483318 
L 606.389287 403.483318 
z
" clip-path="url(#pb909d6886a)" style="fill: #26a69a; opacity: 0.55"/>
   </g>
   <g id="patch_65">
    <path d="M 626.627617 414.525371 
L 638.770614 414.525371 
L 638.770614 402.175594 
L 626.627617 402.175594 
z
" clip-path="url(#pb909d6886a)" style="fill: #26a69a; opacity: 0.55"/>
   </g>
   <g id="patch_66">
    <path d="M 646.865946 414.525371 
L 659.008943 414.525371 
L 659.008943 398.54995 
L 646.865946 398.54995 
z
" clip-path="url(#pb909d6886a)" style="fill: #26a69a; opacity: 0.55"/>
   </g>
   <g id="patch_67">
    <path d="M 667.104275 414.525371 
L 679.247273 414.525371 
L 679.247273 392.717024 
L 667.104275 392.717024 
z
" clip-path="url(#pb909d6886a)" style="fill: #26a69a; opacity: 0.55"/>
   </g>
   <g id="matplotlib.axis_3">
    <g id="text_10">
     <!-- =&gt;  Tin hieu: Phan ky MACD Histogram - canh giac dao chieu giam -->
     <g style="fill: #ef5350" transform="translate(192.45125 454.718437) scale(0.1 -0.1)">
      <defs>
       <path id="DejaVuSans-Bold-3d" d="M 678 3084 
L 4684 3084 
L 4684 2350 
L 678 2350 
L 678 3084 
z
M 678 1663 
L 4684 1663 
L 4684 922 
L 678 922 
L 678 1663 
z
" transform="scale(0.015625)"/>
       <path id="DejaVuSans-Bold-3e" d="M 678 3041 
L 678 3822 
L 4684 2375 
L 4684 1638 
L 678 191 
L 678 972 
L 3694 2003 
L 678 3041 
z
" transform="scale(0.015625)"/>
       <path id="DejaVuSans-Bold-65" d="M 4031 1759 
L 4031 1441 
L 1416 1441 
Q 1456 1047 1700 850 
Q 1944 653 2381 653 
Q 2734 653 3104 758 
Q 3475 863 3866 1075 
L 3866 213 
Q 3469 63 3072 -14 
Q 2675 -91 2278 -91 
Q 1328 -91 801 392 
Q 275 875 275 1747 
Q 275 2603 792 3093 
Q 1309 3584 2216 3584 
Q 3041 3584 3536 3087 
Q 4031 2591 4031 1759 
z
M 2881 2131 
Q 2881 2450 2695 2645 
Q 2509 2841 2209 2841 
Q 1884 2841 1681 2658 
Q 1478 2475 1428 2131 
L 2881 2131 
z
" transform="scale(0.015625)"/>
       <path id="DejaVuSans-Bold-3a" d="M 716 3500 
L 1844 3500 
L 1844 2291 
L 716 2291 
L 716 3500 
z
M 716 1209 
L 1844 1209 
L 1844 0 
L 716 0 
L 716 1209 
z
" transform="scale(0.015625)"/>
       <path id="DejaVuSans-Bold-50" d="M 588 4666 
L 2584 4666 
Q 3475 4666 3951 4270 
Q 4428 3875 4428 3144 
Q 4428 2409 3951 2014 
Q 3475 1619 2584 1619 
L 1791 1619 
L 1791 0 
L 588 0 
L 588 4666 
z
M 1791 3794 
L 1791 2491 
L 2456 2491 
Q 2806 2491 2997 2661 
Q 3188 2831 3188 3144 
Q 3188 3456 2997 3625 
Q 2806 3794 2456 3794 
L 1791 3794 
z
" transform="scale(0.015625)"/>
       <path id="DejaVuSans-Bold-6b" d="M 538 4863 
L 1656 4863 
L 1656 2216 
L 2944 3500 
L 4244 3500 
L 2534 1894 
L 4378 0 
L 3022 0 
L 1656 1459 
L 1656 0 
L 538 0 
L 538 4863 
z
" transform="scale(0.015625)"/>
       <path id="DejaVuSans-Bold-79" d="M 78 3500 
L 1197 3500 
L 2138 1125 
L 2938 3500 
L 4056 3500 
L 2584 -331 
Q 2363 -916 2067 -1148 
Q 1772 -1381 1288 -1381 
L 641 -1381 
L 641 -647 
L 991 -647 
Q 1275 -647 1404 -556 
Q 1534 -466 1606 -231 
L 1638 -134 
L 78 3500 
z
" transform="scale(0.015625)"/>
       <path id="DejaVuSans-Bold-4d" d="M 588 4666 
L 2119 4666 
L 3181 2169 
L 4250 4666 
L 5778 4666 
L 5778 0 
L 4641 0 
L 4641 3413 
L 3566 897 
L 2803 897 
L 1728 3413 
L 1728 0 
L 588 0 
L 588 4666 
z
" transform="scale(0.015625)"/>
       <path id="DejaVuSans-Bold-43" d="M 4288 256 
Q 3956 84 3597 -3 
Q 3238 -91 2847 -91 
Q 1681 -91 1000 561 
Q 319 1213 319 2328 
Q 319 3447 1000 4098 
Q 1681 4750 2847 4750 
Q 3238 4750 3597 4662 
Q 3956 4575 4288 4403 
L 4288 3438 
Q 3953 3666 3628 3772 
Q 3303 3878 2944 3878 
Q 2300 3878 1931 3465 
Q 1563 3053 1563 2328 
Q 1563 1606 1931 1193 
Q 2300 781 2944 781 
Q 3303 781 3628 887 
Q 3953 994 4288 1222 
L 4288 256 
z
" transform="scale(0.015625)"/>
       <path id="DejaVuSans-Bold-44" d="M 1791 3756 
L 1791 909 
L 2222 909 
Q 2959 909 3348 1275 
Q 3738 1641 3738 2338 
Q 3738 3031 3350 3393 
Q 2963 3756 2222 3756 
L 1791 3756 
z
M 588 4666 
L 1856 4666 
Q 2919 4666 3439 4514 
Q 3959 4363 4331 4000 
Q 4659 3684 4818 3271 
Q 4978 2859 4978 2338 
Q 4978 1809 4818 1395 
Q 4659 981 4331 666 
Q 3956 303 3431 151 
Q 2906 0 1856 0 
L 588 0 
L 588 4666 
z
" transform="scale(0.015625)"/>
       <path id="DejaVuSans-Bold-48" d="M 588 4666 
L 1791 4666 
L 1791 2888 
L 3566 2888 
L 3566 4666 
L 4769 4666 
L 4769 0 
L 3566 0 
L 3566 1978 
L 1791 1978 
L 1791 0 
L 588 0 
L 588 4666 
z
" transform="scale(0.015625)"/>
       <path id="DejaVuSans-Bold-6d" d="M 3781 2919 
Q 3994 3244 4286 3414 
Q 4578 3584 4928 3584 
Q 5531 3584 5847 3212 
Q 6163 2841 6163 2131 
L 6163 0 
L 5038 0 
L 5038 1825 
Q 5041 1866 5042 1909 
Q 5044 1953 5044 2034 
Q 5044 2406 4934 2573 
Q 4825 2741 4581 2741 
Q 4263 2741 4089 2478 
Q 3916 2216 3909 1719 
L 3909 0 
L 2784 0 
L 2784 1825 
Q 2784 2406 2684 2573 
Q 2584 2741 2328 2741 
Q 2006 2741 1831 2477 
Q 1656 2213 1656 1722 
L 1656 0 
L 531 0 
L 531 3500 
L 1656 3500 
L 1656 2988 
Q 1863 3284 2130 3434 
Q 2397 3584 2719 3584 
Q 3081 3584 3359 3409 
Q 3638 3234 3781 2919 
z
" transform="scale(0.015625)"/>
       <path id="DejaVuSans-Bold-2d" d="M 347 2297 
L 2309 2297 
L 2309 1388 
L 347 1388 
L 347 2297 
z
" transform="scale(0.015625)"/>
      </defs>
      <use xlink:href="#DejaVuSans-Bold-3d"/>
      <use xlink:href="#DejaVuSans-Bold-3e" transform="translate(83.789062 0)"/>
      <use xlink:href="#DejaVuSans-Bold-20" transform="translate(167.578125 0)"/>
      <use xlink:href="#DejaVuSans-Bold-20" transform="translate(202.392578 0)"/>
      <use xlink:href="#DejaVuSans-Bold-54" transform="translate(237.207031 0)"/>
      <use xlink:href="#DejaVuSans-Bold-69" transform="translate(305.419922 0)"/>
      <use xlink:href="#DejaVuSans-Bold-6e" transform="translate(339.697266 0)"/>
      <use xlink:href="#DejaVuSans-Bold-20" transform="translate(410.888672 0)"/>
      <use xlink:href="#DejaVuSans-Bold-68" transform="translate(445.703125 0)"/>
      <use xlink:href="#DejaVuSans-Bold-69" transform="translate(516.894531 0)"/>
      <use xlink:href="#DejaVuSans-Bold-65" transform="translate(551.171875 0)"/>
      <use xlink:href="#DejaVuSans-Bold-75" transform="translate(618.994141 0)"/>
      <use xlink:href="#DejaVuSans-Bold-3a" transform="translate(690.185547 0)"/>
      <use xlink:href="#DejaVuSans-Bold-20" transform="translate(730.175781 0)"/>
      <use xlink:href="#DejaVuSans-Bold-50" transform="translate(764.990234 0)"/>
      <use xlink:href="#DejaVuSans-Bold-68" transform="translate(838.28125 0)"/>
      <use xlink:href="#DejaVuSans-Bold-61" transform="translate(909.472656 0)"/>
      <use xlink:href="#DejaVuSans-Bold-6e" transform="translate(976.953125 0)"/>
      <use xlink:href="#DejaVuSans-Bold-20" transform="translate(1048.144531 0)"/>
      <use xlink:href="#DejaVuSans-Bold-6b" transform="translate(1082.958984 0)"/>
      <use xlink:href="#DejaVuSans-Bold-79" transform="translate(1149.462891 0)"/>
      <use xlink:href="#DejaVuSans-Bold-20" transform="translate(1214.648438 0)"/>
      <use xlink:href="#DejaVuSans-Bold-4d" transform="translate(1249.462891 0)"/>
      <use xlink:href="#DejaVuSans-Bold-41" transform="translate(1348.974609 0)"/>
      <use xlink:href="#DejaVuSans-Bold-43" transform="translate(1426.367188 0)"/>
      <use xlink:href="#DejaVuSans-Bold-44" transform="translate(1499.755859 0)"/>
      <use xlink:href="#DejaVuSans-Bold-20" transform="translate(1582.763672 0)"/>
      <use xlink:href="#DejaVuSans-Bold-48" transform="translate(1617.578125 0)"/>
      <use xlink:href="#DejaVuSans-Bold-69" transform="translate(1701.269531 0)"/>
      <use xlink:href="#DejaVuSans-Bold-73" transform="translate(1735.546875 0)"/>
      <use xlink:href="#DejaVuSans-Bold-74" transform="translate(1795.068359 0)"/>
      <use xlink:href="#DejaVuSans-Bold-6f" transform="translate(1842.871094 0)"/>
      <use xlink:href="#DejaVuSans-Bold-67" transform="translate(1911.572266 0)"/>
      <use xlink:href="#DejaVuSans-Bold-72" transform="translate(1983.154297 0)"/>
      <use xlink:href="#DejaVuSans-Bold-61" transform="translate(2032.470703 0)"/>
      <use xlink:href="#DejaVuSans-Bold-6d" transform="translate(2099.951172 0)"/>
      <use xlink:href="#DejaVuSans-Bold-20" transform="translate(2204.150391 0)"/>
      <use xlink:href="#DejaVuSans-Bold-2d" transform="translate(2238.964844 0)"/>
      <use xlink:href="#DejaVuSans-Bold-20" transform="translate(2280.46875 0)"/>
      <use xlink:href="#DejaVuSans-Bold-63" transform="translate(2315.283203 0)"/>
      <use xlink:href="#DejaVuSans-Bold-61" transform="translate(2374.560547 0)"/>
      <use xlink:href="#DejaVuSans-Bold-6e" transform="translate(2442.041016 0)"/>
      <use xlink:href="#DejaVuSans-Bold-68" transform="translate(2513.232422 0)"/>
      <use xlink:href="#DejaVuSans-Bold-20" transform="translate(2584.423828 0)"/>
      <use xlink:href="#DejaVuSans-Bold-67" transform="translate(2619.238281 0)"/>
      <use xlink:href="#DejaVuSans-Bold-69" transform="translate(2690.820312 0)"/>
      <use xlink:href="#DejaVuSans-Bold-61" transform="translate(2725.097656 0)"/>
      <use xlink:href="#DejaVuSans-Bold-63" transform="translate(2792.578125 0)"/>
      <use xlink:href="#DejaVuSans-Bold-20" transform="translate(2851.855469 0)"/>
      <use xlink:href="#DejaVuSans-Bold-64" transform="translate(2886.669922 0)"/>
      <use xlink:href="#DejaVuSans-Bold-61" transform="translate(2958.251953 0)"/>
      <use xlink:href="#DejaVuSans-Bold-6f" transform="translate(3025.732422 0)"/>
      <use xlink:href="#DejaVuSans-Bold-20" transform="translate(3094.433594 0)"/>
      <use xlink:href="#DejaVuSans-Bold-63" transform="translate(3129.248047 0)"/>
      <use xlink:href="#DejaVuSans-Bold-68" transform="translate(3188.525391 0)"/>
      <use xlink:href="#DejaVuSans-Bold-69" transform="translate(3259.716797 0)"/>
      <use xlink:href="#DejaVuSans-Bold-65" transform="translate(3293.994141 0)"/>
      <use xlink:href="#DejaVuSans-Bold-75" transform="translate(3361.816406 0)"/>
      <use xlink:href="#DejaVuSans-Bold-20" transform="translate(3433.007812 0)"/>
      <use xlink:href="#DejaVuSans-Bold-67" transform="translate(3467.822266 0)"/>
      <use xlink:href="#DejaVuSans-Bold-69" transform="translate(3539.404297 0)"/>
      <use xlink:href="#DejaVuSans-Bold-61" transform="translate(3573.681641 0)"/>
      <use xlink:href="#DejaVuSans-Bold-6d" transform="translate(3641.162109 0)"/>
     </g>
    </g>
   </g>
   <g id="matplotlib.axis_4">
    <g id="ytick_8">
     <g id="line2d_45">
      <path d="M 50.24 414.525371 
L 709.2 414.525371 
" clip-path="url(#pb909d6886a)" style="fill: none; stroke: #e0e3eb; stroke-width: 0.6; stroke-linecap: square"/>
     </g>
     <g id="line2d_46">
      <g>
       <use xlink:href="#m721b26857b" x="50.24" y="414.525371" style="stroke: #000000; stroke-width: 0.8"/>
      </g>
     </g>
     <g id="text_11">
      <!-- 0.0 -->
      <g transform="translate(27.336875 418.32459) scale(0.1 -0.1)">
       <defs>
        <path id="DejaVuSans-2e" d="M 684 794 
L 1344 794 
L 1344 0 
L 684 0 
L 684 794 
z
" transform="scale(0.015625)"/>
       </defs>
       <use xlink:href="#DejaVuSans-30"/>
       <use xlink:href="#DejaVuSans-2e" transform="translate(63.623047 0)"/>
       <use xlink:href="#DejaVuSans-30" transform="translate(95.410156 0)"/>
      </g>
     </g>
    </g>
    <g id="ytick_9">
     <g id="line2d_47">
      <path d="M 50.24 380.945171 
L 709.2 380.945171 
" clip-path="url(#pb909d6886a)" style="fill: none; stroke: #e0e3eb; stroke-width: 0.6; stroke-linecap: square"/>
     </g>
     <g id="line2d_48">
      <g>
       <use xlink:href="#m721b26857b" x="50.24" y="380.945171" style="stroke: #000000; stroke-width: 0.8"/>
      </g>
     </g>
     <g id="text_12">
      <!-- 0.5 -->
      <g transform="translate(27.336875 384.744389) scale(0.1 -0.1)">
       <use xlink:href="#DejaVuSans-30"/>
       <use xlink:href="#DejaVuSans-2e" transform="translate(63.623047 0)"/>
       <use xlink:href="#DejaVuSans-35" transform="translate(95.410156 0)"/>
      </g>
     </g>
    </g>
    <g id="ytick_10">
     <g id="line2d_49">
      <path d="M 50.24 347.36497 
L 709.2 347.36497 
" clip-path="url(#pb909d6886a)" style="fill: none; stroke: #e0e3eb; stroke-width: 0.6; stroke-linecap: square"/>
     </g>
     <g id="line2d_50">
      <g>
       <use xlink:href="#m721b26857b" x="50.24" y="347.36497" style="stroke: #000000; stroke-width: 0.8"/>
      </g>
     </g>
     <g id="text_13">
      <!-- 1.0 -->
      <g transform="translate(27.336875 351.164189) scale(0.1 -0.1)">
       <use xlink:href="#DejaVuSans-31"/>
       <use xlink:href="#DejaVuSans-2e" transform="translate(63.623047 0)"/>
       <use xlink:href="#DejaVuSans-30" transform="translate(95.410156 0)"/>
      </g>
     </g>
    </g>
    <g id="text_14">
     <!-- MACD -->
     <g transform="translate(21.465156 402.409453) rotate(-90) scale(0.09 -0.09)">
      <defs>
       <path id="DejaVuSans-4d" d="M 628 4666 
L 1569 4666 
L 2759 1491 
L 3956 4666 
L 4897 4666 
L 4897 0 
L 4281 0 
L 4281 4097 
L 3078 897 
L 2444 897 
L 1241 4097 
L 1241 0 
L 628 0 
L 628 4666 
z
" transform="scale(0.015625)"/>
       <path id="DejaVuSans-41" d="M 2188 4044 
L 1331 1722 
L 3047 1722 
L 2188 4044 
z
M 1831 4666 
L 2547 4666 
L 4325 0 
L 3669 0 
L 3244 1197 
L 1141 1197 
L 716 0 
L 50 0 
L 1831 4666 
z
" transform="scale(0.015625)"/>
       <path id="DejaVuSans-43" d="M 4122 4306 
L 4122 3641 
Q 3803 3938 3442 4084 
Q 3081 4231 2675 4231 
Q 1875 4231 1450 3742 
Q 1025 3253 1025 2328 
Q 1025 1406 1450 917 
Q 1875 428 2675 428 
Q 3081 428 3442 575 
Q 3803 722 4122 1019 
L 4122 359 
Q 3791 134 3420 21 
Q 3050 -91 2638 -91 
Q 1578 -91 968 557 
Q 359 1206 359 2328 
Q 359 3453 968 4101 
Q 1578 4750 2638 4750 
Q 3056 4750 3426 4639 
Q 3797 4528 4122 4306 
z
" transform="scale(0.015625)"/>
       <path id="DejaVuSans-44" d="M 1259 4147 
L 1259 519 
L 2022 519 
Q 2988 519 3436 956 
Q 3884 1394 3884 2338 
Q 3884 3275 3436 3711 
Q 2988 4147 2022 4147 
L 1259 4147 
z
M 628 4666 
L 1925 4666 
Q 3281 4666 3915 4102 
Q 4550 3538 4550 2338 
Q 4550 1131 3912 565 
Q 3275 0 1925 0 
L 628 0 
L 628 4666 
z
" transform="scale(0.015625)"/>
      </defs>
      <use xlink:href="#DejaVuSans-4d"/>
      <use xlink:href="#DejaVuSans-41" transform="translate(86.279297 0)"/>
      <use xlink:href="#DejaVuSans-43" transform="translate(152.9375 0)"/>
      <use xlink:href="#DejaVuSans-44" transform="translate(222.761719 0)"/>
     </g>
    </g>
   </g>
   <g id="line2d_51">
    <path d="M 86.264226 427.616291 
L 106.502555 418.622384 
L 126.740885 413.487467 
L 146.979214 404.073318 
L 167.217543 393.569851 
L 187.455872 385.61024 
L 207.694201 382.849206 
L 227.932531 374.363652 
L 248.17086 367.472709 
L 268.409189 356.92073 
L 288.647518 351.743439 
L 308.885848 340.93884 
L 329.124177 339.647273 
L 349.362506 347.509451 
L 369.600835 350.210859 
L 389.839165 356.157188 
L 410.077494 365.337215 
L 430.315823 367.117824 
L 450.554152 369.129961 
L 470.792482 366.862176 
L 491.030811 366.524748 
L 511.26914 362.552674 
L 531.507469 363.028613 
L 551.745799 363.71209 
L 571.984128 359.886637 
L 592.222457 357.082798 
L 612.460786 359.044775 
L 632.699115 358.390549 
L 652.937445 356.054498 
L 673.175774 351.15024 
" clip-path="url(#pb909d6886a)" style="fill: none; stroke: #2962ff; stroke-width: 1.6; stroke-linecap: square"/>
   </g>
   <g id="line2d_52">
    <path d="M 86.264226 438.192727 
L 106.502555 432.294658 
L 126.740885 422.809805 
L 146.979214 415.25604 
L 167.217543 410.460375 
L 187.455872 404.442527 
L 207.694201 392.736388 
L 227.932531 385.441103 
L 248.17086 378.822162 
L 268.409189 371.801832 
L 288.647518 362.645965 
L 308.885848 354.289609 
L 329.124177 355.630833 
L 349.362506 357.49415 
L 369.600835 358.394814 
L 389.839165 357.704086 
L 410.077494 361.56098 
L 430.315823 365.609175 
L 450.554152 365.646182 
L 470.792482 365.375654 
L 491.030811 367.965194 
L 511.26914 368.908094 
L 531.507469 367.724105 
L 551.745799 371.506373 
L 571.984128 369.760253 
L 592.222457 371.491466 
L 612.460786 370.086828 
L 632.699115 370.740326 
L 652.937445 372.029919 
L 673.175774 372.958587 
" clip-path="url(#pb909d6886a)" style="fill: none; stroke: #ff6d00; stroke-width: 1.6; stroke-linecap: square"/>
   </g>
   <g id="line2d_53">
    <path d="M 50.24 414.525371 
L 709.2 414.525371 
" clip-path="url(#pb909d6886a)" style="fill: none; stroke: #787b86; stroke-width: 0.8; stroke-linecap: square"/>
   </g>
   <g id="line2d_54">
    <path d="M 187.455872 395.693084 
L 673.175774 392.717024 
" clip-path="url(#pb909d6886a)" style="fill: none; stroke-dasharray: 5.18,2.24; stroke-dashoffset: 0; stroke: #ef5350; stroke-width: 1.4"/>
   </g>
   <g id="patch_68">
    <path d="M 50.24 443.12 
L 50.24 334.72 
" style="fill: none; stroke: #000000; stroke-width: 0.8; stroke-linejoin: miter; stroke-linecap: square"/>
   </g>
   <g id="patch_69">
    <path d="M 709.2 443.12 
L 709.2 334.72 
" style="fill: none; stroke: #000000; stroke-width: 0.8; stroke-linejoin: miter; stroke-linecap: square"/>
   </g>
   <g id="patch_70">
    <path d="M 50.24 443.12 
L 709.2 443.12 
" style="fill: none; stroke: #000000; stroke-width: 0.8; stroke-linejoin: miter; stroke-linecap: square"/>
   </g>
   <g id="patch_71">
    <path d="M 50.24 334.72 
L 709.2 334.72 
" style="fill: none; stroke: #000000; stroke-width: 0.8; stroke-linejoin: miter; stroke-linecap: square"/>
   </g>
   <g id="text_15">
    <!-- MACD Histogram: dinh sau THAP hon dinh truoc du gia tang =&gt; suy yeu luc mua -->
    <g style="fill: #131722" transform="translate(50.24 328.72) scale(0.12 -0.12)">
     <defs>
      <path id="DejaVuSans-Bold-6c" d="M 538 4863 
L 1656 4863 
L 1656 0 
L 538 0 
L 538 4863 
z
" transform="scale(0.015625)"/>
     </defs>
     <use xlink:href="#DejaVuSans-Bold-4d"/>
     <use xlink:href="#DejaVuSans-Bold-41" transform="translate(99.511719 0)"/>
     <use xlink:href="#DejaVuSans-Bold-43" transform="translate(176.904297 0)"/>
     <use xlink:href="#DejaVuSans-Bold-44" transform="translate(250.292969 0)"/>
     <use xlink:href="#DejaVuSans-Bold-20" transform="translate(333.300781 0)"/>
     <use xlink:href="#DejaVuSans-Bold-48" transform="translate(368.115234 0)"/>
     <use xlink:href="#DejaVuSans-Bold-69" transform="translate(451.806641 0)"/>
     <use xlink:href="#DejaVuSans-Bold-73" transform="translate(486.083984 0)"/>
     <use xlink:href="#DejaVuSans-Bold-74" transform="translate(545.605469 0)"/>
     <use xlink:href="#DejaVuSans-Bold-6f" transform="translate(593.408203 0)"/>
     <use xlink:href="#DejaVuSans-Bold-67" transform="translate(662.109375 0)"/>
     <use xlink:href="#DejaVuSans-Bold-72" transform="translate(733.691406 0)"/>
     <use xlink:href="#DejaVuSans-Bold-61" transform="translate(783.007812 0)"/>
     <use xlink:href="#DejaVuSans-Bold-6d" transform="translate(850.488281 0)"/>
     <use xlink:href="#DejaVuSans-Bold-3a" transform="translate(954.6875 0)"/>
     <use xlink:href="#DejaVuSans-Bold-20" transform="translate(994.677734 0)"/>
     <use xlink:href="#DejaVuSans-Bold-64" transform="translate(1029.492188 0)"/>
     <use xlink:href="#DejaVuSans-Bold-69" transform="translate(1101.074219 0)"/>
     <use xlink:href="#DejaVuSans-Bold-6e" transform="translate(1135.351562 0)"/>
     <use xlink:href="#DejaVuSans-Bold-68" transform="translate(1206.542969 0)"/>
     <use xlink:href="#DejaVuSans-Bold-20" transform="translate(1277.734375 0)"/>
     <use xlink:href="#DejaVuSans-Bold-73" transform="translate(1312.548828 0)"/>
     <use xlink:href="#DejaVuSans-Bold-61" transform="translate(1372.070312 0)"/>
     <use xlink:href="#DejaVuSans-Bold-75" transform="translate(1439.550781 0)"/>
     <use xlink:href="#DejaVuSans-Bold-20" transform="translate(1510.742188 0)"/>
     <use xlink:href="#DejaVuSans-Bold-54" transform="translate(1545.556641 0)"/>
     <use xlink:href="#DejaVuSans-Bold-48" transform="translate(1613.769531 0)"/>
     <use xlink:href="#DejaVuSans-Bold-41" transform="translate(1697.460938 0)"/>
     <use xlink:href="#DejaVuSans-Bold-50" transform="translate(1774.853516 0)"/>
     <use xlink:href="#DejaVuSans-Bold-20" transform="translate(1848.144531 0)"/>
     <use xlink:href="#DejaVuSans-Bold-68" transform="translate(1882.958984 0)"/>
     <use xlink:href="#DejaVuSans-Bold-6f" transform="translate(1954.150391 0)"/>
     <use xlink:href="#DejaVuSans-Bold-6e" transform="translate(2022.851562 0)"/>
     <use xlink:href="#DejaVuSans-Bold-20" transform="translate(2094.042969 0)"/>
     <use xlink:href="#DejaVuSans-Bold-64" transform="translate(2128.857422 0)"/>
     <use xlink:href="#DejaVuSans-Bold-69" transform="translate(2200.439453 0)"/>
     <use xlink:href="#DejaVuSans-Bold-6e" transform="translate(2234.716797 0)"/>
     <use xlink:href="#DejaVuSans-Bold-68" transform="translate(2305.908203 0)"/>
     <use xlink:href="#DejaVuSans-Bold-20" transform="translate(2377.099609 0)"/>
     <use xlink:href="#DejaVuSans-Bold-74" transform="translate(2411.914062 0)"/>
     <use xlink:href="#DejaVuSans-Bold-72" transform="translate(2459.716797 0)"/>
     <use xlink:href="#DejaVuSans-Bold-75" transform="translate(2509.033203 0)"/>
     <use xlink:href="#DejaVuSans-Bold-6f" transform="translate(2580.224609 0)"/>
     <use xlink:href="#DejaVuSans-Bold-63" transform="translate(2648.925781 0)"/>
     <use xlink:href="#DejaVuSans-Bold-20" transform="translate(2708.203125 0)"/>
     <use xlink:href="#DejaVuSans-Bold-64" transform="translate(2743.017578 0)"/>
     <use xlink:href="#DejaVuSans-Bold-75" transform="translate(2814.599609 0)"/>
     <use xlink:href="#DejaVuSans-Bold-20" transform="translate(2885.791016 0)"/>
     <use xlink:href="#DejaVuSans-Bold-67" transform="translate(2920.605469 0)"/>
     <use xlink:href="#DejaVuSans-Bold-69" transform="translate(2992.1875 0)"/>
     <use xlink:href="#DejaVuSans-Bold-61" transform="translate(3026.464844 0)"/>
     <use xlink:href="#DejaVuSans-Bold-20" transform="translate(3093.945312 0)"/>
     <use xlink:href="#DejaVuSans-Bold-74" transform="translate(3128.759766 0)"/>
     <use xlink:href="#DejaVuSans-Bold-61" transform="translate(3176.5625 0)"/>
     <use xlink:href="#DejaVuSans-Bold-6e" transform="translate(3244.042969 0)"/>
     <use xlink:href="#DejaVuSans-Bold-67" transform="translate(3315.234375 0)"/>
     <use xlink:href="#DejaVuSans-Bold-20" transform="translate(3386.816406 0)"/>
     <use xlink:href="#DejaVuSans-Bold-3d" transform="translate(3421.630859 0)"/>
     <use xlink:href="#DejaVuSans-Bold-3e" transform="translate(3505.419922 0)"/>
     <use xlink:href="#DejaVuSans-Bold-20" transform="translate(3589.208984 0)"/>
     <use xlink:href="#DejaVuSans-Bold-73" transform="translate(3624.023438 0)"/>
     <use xlink:href="#DejaVuSans-Bold-75" transform="translate(3683.544922 0)"/>
     <use xlink:href="#DejaVuSans-Bold-79" transform="translate(3754.736328 0)"/>
     <use xlink:href="#DejaVuSans-Bold-20" transform="translate(3819.921875 0)"/>
     <use xlink:href="#DejaVuSans-Bold-79" transform="translate(3854.736328 0)"/>
     <use xlink:href="#DejaVuSans-Bold-65" transform="translate(3919.921875 0)"/>
     <use xlink:href="#DejaVuSans-Bold-75" transform="translate(3987.744141 0)"/>
     <use xlink:href="#DejaVuSans-Bold-20" transform="translate(4058.935547 0)"/>
     <use xlink:href="#DejaVuSans-Bold-6c" transform="translate(4093.75 0)"/>
     <use xlink:href="#DejaVuSans-Bold-75" transform="translate(4128.027344 0)"/>
     <use xlink:href="#DejaVuSans-Bold-63" transform="translate(4199.21875 0)"/>
     <use xlink:href="#DejaVuSans-Bold-20" transform="translate(4258.496094 0)"/>
     <use xlink:href="#DejaVuSans-Bold-6d" transform="translate(4293.310547 0)"/>
     <use xlink:href="#DejaVuSans-Bold-75" transform="translate(4397.509766 0)"/>
     <use xlink:href="#DejaVuSans-Bold-61" transform="translate(4468.701172 0)"/>
    </g>
   </g>
   <g id="legend_1">
    <g id="line2d_55">
     <path d="M 57.44 345.19875 
L 65.44 345.19875 
L 73.44 345.19875 
" style="fill: none; stroke: #2962ff; stroke-width: 1.6; stroke-linecap: square"/>
    </g>
    <g id="text_16">
     <!-- MACD -->
     <g transform="translate(79.84 347.99875) scale(0.08 -0.08)">
      <use xlink:href="#DejaVuSans-4d"/>
      <use xlink:href="#DejaVuSans-41" transform="translate(86.279297 0)"/>
      <use xlink:href="#DejaVuSans-43" transform="translate(152.9375 0)"/>
      <use xlink:href="#DejaVuSans-44" transform="translate(222.761719 0)"/>
     </g>
    </g>
    <g id="line2d_56">
     <path d="M 57.44 356.94125 
L 65.44 356.94125 
L 73.44 356.94125 
" style="fill: none; stroke: #ff6d00; stroke-width: 1.6; stroke-linecap: square"/>
    </g>
    <g id="text_17">
     <!-- Signal -->
     <g transform="translate(79.84 359.74125) scale(0.08 -0.08)">
      <defs>
       <path id="DejaVuSans-53" d="M 3425 4513 
L 3425 3897 
Q 3066 4069 2747 4153 
Q 2428 4238 2131 4238 
Q 1616 4238 1336 4038 
Q 1056 3838 1056 3469 
Q 1056 3159 1242 3001 
Q 1428 2844 1947 2747 
L 2328 2669 
Q 3034 2534 3370 2195 
Q 3706 1856 3706 1288 
Q 3706 609 3251 259 
Q 2797 -91 1919 -91 
Q 1588 -91 1214 -16 
Q 841 59 441 206 
L 441 856 
Q 825 641 1194 531 
Q 1563 422 1919 422 
Q 2459 422 2753 634 
Q 3047 847 3047 1241 
Q 3047 1584 2836 1778 
Q 2625 1972 2144 2069 
L 1759 2144 
Q 1053 2284 737 2584 
Q 422 2884 422 3419 
Q 422 4038 858 4394 
Q 1294 4750 2059 4750 
Q 2388 4750 2728 4690 
Q 3069 4631 3425 4513 
z
" transform="scale(0.015625)"/>
       <path id="DejaVuSans-67" d="M 2906 1791 
Q 2906 2416 2648 2759 
Q 2391 3103 1925 3103 
Q 1463 3103 1205 2759 
Q 947 2416 947 1791 
Q 947 1169 1205 825 
Q 1463 481 1925 481 
Q 2391 481 2648 825 
Q 2906 1169 2906 1791 
z
M 3481 434 
Q 3481 -459 3084 -895 
Q 2688 -1331 1869 -1331 
Q 1566 -1331 1297 -1286 
Q 1028 -1241 775 -1147 
L 775 -588 
Q 1028 -725 1275 -790 
Q 1522 -856 1778 -856 
Q 2344 -856 2625 -561 
Q 2906 -266 2906 331 
L 2906 616 
Q 2728 306 2450 153 
Q 2172 0 1784 0 
Q 1141 0 747 490 
Q 353 981 353 1791 
Q 353 2603 747 3093 
Q 1141 3584 1784 3584 
Q 2172 3584 2450 3431 
Q 2728 3278 2906 2969 
L 2906 3500 
L 3481 3500 
L 3481 434 
z
" transform="scale(0.015625)"/>
       <path id="DejaVuSans-6e" d="M 3513 2113 
L 3513 0 
L 2938 0 
L 2938 2094 
Q 2938 2591 2744 2837 
Q 2550 3084 2163 3084 
Q 1697 3084 1428 2787 
Q 1159 2491 1159 1978 
L 1159 0 
L 581 0 
L 581 3500 
L 1159 3500 
L 1159 2956 
Q 1366 3272 1645 3428 
Q 1925 3584 2291 3584 
Q 2894 3584 3203 3211 
Q 3513 2838 3513 2113 
z
" transform="scale(0.015625)"/>
       <path id="DejaVuSans-6c" d="M 603 4863 
L 1178 4863 
L 1178 0 
L 603 0 
L 603 4863 
z
" transform="scale(0.015625)"/>
      </defs>
      <use xlink:href="#DejaVuSans-53"/>
      <use xlink:href="#DejaVuSans-69" transform="translate(63.476562 0)"/>
      <use xlink:href="#DejaVuSans-67" transform="translate(91.259766 0)"/>
      <use xlink:href="#DejaVuSans-6e" transform="translate(154.736328 0)"/>
      <use xlink:href="#DejaVuSans-61" transform="translate(218.115234 0)"/>
      <use xlink:href="#DejaVuSans-6c" transform="translate(279.394531 0)"/>
     </g>
    </g>
    <g id="patch_72">
     <path d="M 57.44 371.48375 
L 73.44 371.48375 
L 73.44 365.88375 
L 57.44 365.88375 
z
" style="fill: #26a69a; opacity: 0.55"/>
    </g>
    <g id="text_18">
     <!-- Histogram -->
     <g transform="translate(79.84 371.48375) scale(0.08 -0.08)">
      <defs>
       <path id="DejaVuSans-48" d="M 628 4666 
L 1259 4666 
L 1259 2753 
L 3553 2753 
L 3553 4666 
L 4184 4666 
L 4184 0 
L 3553 0 
L 3553 2222 
L 1259 2222 
L 1259 0 
L 628 0 
L 628 4666 
z
" transform="scale(0.015625)"/>
       <path id="DejaVuSans-73" d="M 2834 3397 
L 2834 2853 
Q 2591 2978 2328 3040 
Q 2066 3103 1784 3103 
Q 1356 3103 1142 2972 
Q 928 2841 928 2578 
Q 928 2378 1081 2264 
Q 1234 2150 1697 2047 
L 1894 2003 
Q 2506 1872 2764 1633 
Q 3022 1394 3022 966 
Q 3022 478 2636 193 
Q 2250 -91 1575 -91 
Q 1294 -91 989 -36 
Q 684 19 347 128 
L 347 722 
Q 666 556 975 473 
Q 1284 391 1588 391 
Q 1994 391 2212 530 
Q 2431 669 2431 922 
Q 2431 1156 2273 1281 
Q 2116 1406 1581 1522 
L 1381 1569 
Q 847 1681 609 1914 
Q 372 2147 372 2553 
Q 372 3047 722 3315 
Q 1072 3584 1716 3584 
Q 2034 3584 2315 3537 
Q 2597 3491 2834 3397 
z
" transform="scale(0.015625)"/>
       <path id="DejaVuSans-74" d="M 1172 4494 
L 1172 3500 
L 2356 3500 
L 2356 3053 
L 1172 3053 
L 1172 1153 
Q 1172 725 1289 603 
Q 1406 481 1766 481 
L 2356 481 
L 2356 0 
L 1766 0 
Q 1100 0 847 248 
Q 594 497 594 1153 
L 594 3053 
L 172 3053 
L 172 3500 
L 594 3500 
L 594 4494 
L 1172 4494 
z
" transform="scale(0.015625)"/>
       <path id="DejaVuSans-6f" d="M 1959 3097 
Q 1497 3097 1228 2736 
Q 959 2375 959 1747 
Q 959 1119 1226 758 
Q 1494 397 1959 397 
Q 2419 397 2687 759 
Q 2956 1122 2956 1747 
Q 2956 2369 2687 2733 
Q 2419 3097 1959 3097 
z
M 1959 3584 
Q 2709 3584 3137 3096 
Q 3566 2609 3566 1747 
Q 3566 888 3137 398 
Q 2709 -91 1959 -91 
Q 1206 -91 779 398 
Q 353 888 353 1747 
Q 353 2609 779 3096 
Q 1206 3584 1959 3584 
z
" transform="scale(0.015625)"/>
       <path id="DejaVuSans-72" d="M 2631 2963 
Q 2534 3019 2420 3045 
Q 2306 3072 2169 3072 
Q 1681 3072 1420 2755 
Q 1159 2438 1159 1844 
L 1159 0 
L 581 0 
L 581 3500 
L 1159 3500 
L 1159 2956 
Q 1341 3275 1631 3429 
Q 1922 3584 2338 3584 
Q 2397 3584 2469 3576 
Q 2541 3569 2628 3553 
L 2631 2963 
z
" transform="scale(0.015625)"/>
       <path id="DejaVuSans-6d" d="M 3328 2828 
Q 3544 3216 3844 3400 
Q 4144 3584 4550 3584 
Q 5097 3584 5394 3201 
Q 5691 2819 5691 2113 
L 5691 0 
L 5113 0 
L 5113 2094 
Q 5113 2597 4934 2840 
Q 4756 3084 4391 3084 
Q 3944 3084 3684 2787 
Q 3425 2491 3425 1978 
L 3425 0 
L 2847 0 
L 2847 2094 
Q 2847 2600 2669 2842 
Q 2491 3084 2119 3084 
Q 1678 3084 1418 2786 
Q 1159 2488 1159 1978 
L 1159 0 
L 581 0 
L 581 3500 
L 1159 3500 
L 1159 2956 
Q 1356 3278 1631 3431 
Q 1906 3584 2284 3584 
Q 2666 3584 2933 3390 
Q 3200 3197 3328 2828 
z
" transform="scale(0.015625)"/>
      </defs>
      <use xlink:href="#DejaVuSans-48"/>
      <use xlink:href="#DejaVuSans-69" transform="translate(75.195312 0)"/>
      <use xlink:href="#DejaVuSans-73" transform="translate(102.978516 0)"/>
      <use xlink:href="#DejaVuSans-74" transform="translate(155.078125 0)"/>
      <use xlink:href="#DejaVuSans-6f" transform="translate(194.287109 0)"/>
      <use xlink:href="#DejaVuSans-67" transform="translate(255.46875 0)"/>
      <use xlink:href="#DejaVuSans-72" transform="translate(318.945312 0)"/>
      <use xlink:href="#DejaVuSans-61" transform="translate(360.058594 0)"/>
      <use xlink:href="#DejaVuSans-6d" transform="translate(421.337891 0)"/>
     </g>
    </g>
   </g>
  </g>
  <g id="text_19">
   <!-- PHAN KY MACD HISTOGRAM - cot histogram thap dan trong khi gia van tao dinh moi -->
   <g style="fill: #131722" transform="translate(107.078438 13.798125) scale(0.12 -0.12)">
    <defs>
     <path id="DejaVuSans-50" d="M 1259 4147 
L 1259 2394 
L 2053 2394 
Q 2494 2394 2734 2622 
Q 2975 2850 2975 3272 
Q 2975 3691 2734 3919 
Q 2494 4147 2053 4147 
L 1259 4147 
z
M 628 4666 
L 2053 4666 
Q 2838 4666 3239 4311 
Q 3641 3956 3641 3272 
Q 3641 2581 3239 2228 
Q 2838 1875 2053 1875 
L 1259 1875 
L 1259 0 
L 628 0 
L 628 4666 
z
" transform="scale(0.015625)"/>
     <path id="DejaVuSans-4e" d="M 628 4666 
L 1478 4666 
L 3547 763 
L 3547 4666 
L 4159 4666 
L 4159 0 
L 3309 0 
L 1241 3903 
L 1241 0 
L 628 0 
L 628 4666 
z
" transform="scale(0.015625)"/>
     <path id="DejaVuSans-20" transform="scale(0.015625)"/>
     <path id="DejaVuSans-4b" d="M 628 4666 
L 1259 4666 
L 1259 2694 
L 3353 4666 
L 4166 4666 
L 1850 2491 
L 4331 0 
L 3500 0 
L 1259 2247 
L 1259 0 
L 628 0 
L 628 4666 
z
" transform="scale(0.015625)"/>
     <path id="DejaVuSans-59" d="M -13 4666 
L 666 4666 
L 1959 2747 
L 3244 4666 
L 3922 4666 
L 2272 2222 
L 2272 0 
L 1638 0 
L 1638 2222 
L -13 4666 
z
" transform="scale(0.015625)"/>
     <path id="DejaVuSans-49" d="M 628 4666 
L 1259 4666 
L 1259 0 
L 628 0 
L 628 4666 
z
" transform="scale(0.015625)"/>
     <path id="DejaVuSans-54" d="M -19 4666 
L 3928 4666 
L 3928 4134 
L 2272 4134 
L 2272 0 
L 1638 0 
L 1638 4134 
L -19 4134 
L -19 4666 
z
" transform="scale(0.015625)"/>
     <path id="DejaVuSans-4f" d="M 2522 4238 
Q 1834 4238 1429 3725 
Q 1025 3213 1025 2328 
Q 1025 1447 1429 934 
Q 1834 422 2522 422 
Q 3209 422 3611 934 
Q 4013 1447 4013 2328 
Q 4013 3213 3611 3725 
Q 3209 4238 2522 4238 
z
M 2522 4750 
Q 3503 4750 4090 4092 
Q 4678 3434 4678 2328 
Q 4678 1225 4090 567 
Q 3503 -91 2522 -91 
Q 1538 -91 948 565 
Q 359 1222 359 2328 
Q 359 3434 948 4092 
Q 1538 4750 2522 4750 
z
" transform="scale(0.015625)"/>
     <path id="DejaVuSans-52" d="M 2841 2188 
Q 3044 2119 3236 1894 
Q 3428 1669 3622 1275 
L 4263 0 
L 3584 0 
L 2988 1197 
Q 2756 1666 2539 1819 
Q 2322 1972 1947 1972 
L 1259 1972 
L 1259 0 
L 628 0 
L 628 4666 
L 2053 4666 
Q 2853 4666 3247 4331 
Q 3641 3997 3641 3322 
Q 3641 2881 3436 2590 
Q 3231 2300 2841 2188 
z
M 1259 4147 
L 1259 2491 
L 2053 2491 
Q 2509 2491 2742 2702 
Q 2975 2913 2975 3322 
Q 2975 3731 2742 3939 
Q 2509 4147 2053 4147 
L 1259 4147 
z
" transform="scale(0.015625)"/>
     <path id="DejaVuSans-2d" d="M 313 2009 
L 1997 2009 
L 1997 1497 
L 313 1497 
L 313 2009 
z
" transform="scale(0.015625)"/>
     <path id="DejaVuSans-63" d="M 3122 3366 
L 3122 2828 
Q 2878 2963 2633 3030 
Q 2388 3097 2138 3097 
Q 1578 3097 1268 2742 
Q 959 2388 959 1747 
Q 959 1106 1268 751 
Q 1578 397 2138 397 
Q 2388 397 2633 464 
Q 2878 531 3122 666 
L 3122 134 
Q 2881 22 2623 -34 
Q 2366 -91 2075 -91 
Q 1284 -91 818 406 
Q 353 903 353 1747 
Q 353 2603 823 3093 
Q 1294 3584 2113 3584 
Q 2378 3584 2631 3529 
Q 2884 3475 3122 3366 
z
" transform="scale(0.015625)"/>
     <path id="DejaVuSans-68" d="M 3513 2113 
L 3513 0 
L 2938 0 
L 2938 2094 
Q 2938 2591 2744 2837 
Q 2550 3084 2163 3084 
Q 1697 3084 1428 2787 
Q 1159 2491 1159 1978 
L 1159 0 
L 581 0 
L 581 4863 
L 1159 4863 
L 1159 2956 
Q 1366 3272 1645 3428 
Q 1925 3584 2291 3584 
Q 2894 3584 3203 3211 
Q 3513 2838 3513 2113 
z
" transform="scale(0.015625)"/>
     <path id="DejaVuSans-70" d="M 1159 525 
L 1159 -1331 
L 581 -1331 
L 581 3500 
L 1159 3500 
L 1159 2969 
Q 1341 3281 1617 3432 
Q 1894 3584 2278 3584 
Q 2916 3584 3314 3078 
Q 3713 2572 3713 1747 
Q 3713 922 3314 415 
Q 2916 -91 2278 -91 
Q 1894 -91 1617 61 
Q 1341 213 1159 525 
z
M 3116 1747 
Q 3116 2381 2855 2742 
Q 2594 3103 2138 3103 
Q 1681 3103 1420 2742 
Q 1159 2381 1159 1747 
Q 1159 1113 1420 752 
Q 1681 391 2138 391 
Q 2594 391 2855 752 
Q 3116 1113 3116 1747 
z
" transform="scale(0.015625)"/>
     <path id="DejaVuSans-64" d="M 2906 2969 
L 2906 4863 
L 3481 4863 
L 3481 0 
L 2906 0 
L 2906 525 
Q 2725 213 2448 61 
Q 2172 -91 1784 -91 
Q 1150 -91 751 415 
Q 353 922 353 1747 
Q 353 2572 751 3078 
Q 1150 3584 1784 3584 
Q 2172 3584 2448 3432 
Q 2725 3281 2906 2969 
z
M 947 1747 
Q 947 1113 1208 752 
Q 1469 391 1925 391 
Q 2381 391 2643 752 
Q 2906 1113 2906 1747 
Q 2906 2381 2643 2742 
Q 2381 3103 1925 3103 
Q 1469 3103 1208 2742 
Q 947 2381 947 1747 
z
" transform="scale(0.015625)"/>
     <path id="DejaVuSans-6b" d="M 581 4863 
L 1159 4863 
L 1159 1991 
L 2875 3500 
L 3609 3500 
L 1753 1863 
L 3688 0 
L 2938 0 
L 1159 1709 
L 1159 0 
L 581 0 
L 581 4863 
z
" transform="scale(0.015625)"/>
     <path id="DejaVuSans-76" d="M 191 3500 
L 800 3500 
L 1894 563 
L 2988 3500 
L 3597 3500 
L 2284 0 
L 1503 0 
L 191 3500 
z
" transform="scale(0.015625)"/>
    </defs>
    <use xlink:href="#DejaVuSans-50"/>
    <use xlink:href="#DejaVuSans-48" transform="translate(60.302734 0)"/>
    <use xlink:href="#DejaVuSans-41" transform="translate(135.498047 0)"/>
    <use xlink:href="#DejaVuSans-4e" transform="translate(203.90625 0)"/>
    <use xlink:href="#DejaVuSans-20" transform="translate(278.710938 0)"/>
    <use xlink:href="#DejaVuSans-4b" transform="translate(310.498047 0)"/>
    <use xlink:href="#DejaVuSans-59" transform="translate(372.449219 0)"/>
    <use xlink:href="#DejaVuSans-20" transform="translate(433.533203 0)"/>
    <use xlink:href="#DejaVuSans-4d" transform="translate(465.320312 0)"/>
    <use xlink:href="#DejaVuSans-41" transform="translate(551.599609 0)"/>
    <use xlink:href="#DejaVuSans-43" transform="translate(618.257812 0)"/>
    <use xlink:href="#DejaVuSans-44" transform="translate(688.082031 0)"/>
    <use xlink:href="#DejaVuSans-20" transform="translate(765.083984 0)"/>
    <use xlink:href="#DejaVuSans-48" transform="translate(796.871094 0)"/>
    <use xlink:href="#DejaVuSans-49" transform="translate(872.066406 0)"/>
    <use xlink:href="#DejaVuSans-53" transform="translate(901.558594 0)"/>
    <use xlink:href="#DejaVuSans-54" transform="translate(965.035156 0)"/>
    <use xlink:href="#DejaVuSans-4f" transform="translate(1026.119141 0)"/>
    <use xlink:href="#DejaVuSans-47" transform="translate(1104.830078 0)"/>
    <use xlink:href="#DejaVuSans-52" transform="translate(1182.320312 0)"/>
    <use xlink:href="#DejaVuSans-41" transform="translate(1247.802734 0)"/>
    <use xlink:href="#DejaVuSans-4d" transform="translate(1316.210938 0)"/>
    <use xlink:href="#DejaVuSans-20" transform="translate(1402.490234 0)"/>
    <use xlink:href="#DejaVuSans-2d" transform="translate(1434.277344 0)"/>
    <use xlink:href="#DejaVuSans-20" transform="translate(1470.361328 0)"/>
    <use xlink:href="#DejaVuSans-63" transform="translate(1502.148438 0)"/>
    <use xlink:href="#DejaVuSans-6f" transform="translate(1557.128906 0)"/>
    <use xlink:href="#DejaVuSans-74" transform="translate(1618.310547 0)"/>
    <use xlink:href="#DejaVuSans-20" transform="translate(1657.519531 0)"/>
    <use xlink:href="#DejaVuSans-68" transform="translate(1689.306641 0)"/>
    <use xlink:href="#DejaVuSans-69" transform="translate(1752.685547 0)"/>
    <use xlink:href="#DejaVuSans-73" transform="translate(1780.46875 0)"/>
    <use xlink:href="#DejaVuSans-74" transform="translate(1832.568359 0)"/>
    <use xlink:href="#DejaVuSans-6f" transform="translate(1871.777344 0)"/>
    <use xlink:href="#DejaVuSans-67" transform="translate(1932.958984 0)"/>
    <use xlink:href="#DejaVuSans-72" transform="translate(1996.435547 0)"/>
    <use xlink:href="#DejaVuSans-61" transform="translate(2037.548828 0)"/>
    <use xlink:href="#DejaVuSans-6d" transform="translate(2098.828125 0)"/>
    <use xlink:href="#DejaVuSans-20" transform="translate(2196.240234 0)"/>
    <use xlink:href="#DejaVuSans-74" transform="translate(2228.027344 0)"/>
    <use xlink:href="#DejaVuSans-68" transform="translate(2267.236328 0)"/>
    <use xlink:href="#DejaVuSans-61" transform="translate(2330.615234 0)"/>
    <use xlink:href="#DejaVuSans-70" transform="translate(2391.894531 0)"/>
    <use xlink:href="#DejaVuSans-20" transform="translate(2455.371094 0)"/>
    <use xlink:href="#DejaVuSans-64" transform="translate(2487.158203 0)"/>
    <use xlink:href="#DejaVuSans-61" transform="translate(2550.634766 0)"/>
    <use xlink:href="#DejaVuSans-6e" transform="translate(2611.914062 0)"/>
    <use xlink:href="#DejaVuSans-20" transform="translate(2675.292969 0)"/>
    <use xlink:href="#DejaVuSans-74" transform="translate(2707.080078 0)"/>
    <use xlink:href="#DejaVuSans-72" transform="translate(2746.289062 0)"/>
    <use xlink:href="#DejaVuSans-6f" transform="translate(2785.152344 0)"/>
    <use xlink:href="#DejaVuSans-6e" transform="translate(2846.333984 0)"/>
    <use xlink:href="#DejaVuSans-67" transform="translate(2909.712891 0)"/>
    <use xlink:href="#DejaVuSans-20" transform="translate(2973.189453 0)"/>
    <use xlink:href="#DejaVuSans-6b" transform="translate(3004.976562 0)"/>
    <use xlink:href="#DejaVuSans-68" transform="translate(3062.886719 0)"/>
    <use xlink:href="#DejaVuSans-69" transform="translate(3126.265625 0)"/>
    <use xlink:href="#DejaVuSans-20" transform="translate(3154.048828 0)"/>
    <use xlink:href="#DejaVuSans-67" transform="translate(3185.835938 0)"/>
    <use xlink:href="#DejaVuSans-69" transform="translate(3249.3125 0)"/>
    <use xlink:href="#DejaVuSans-61" transform="translate(3277.095703 0)"/>
    <use xlink:href="#DejaVuSans-20" transform="translate(3338.375 0)"/>
    <use xlink:href="#DejaVuSans-76" transform="translate(3370.162109 0)"/>
    <use xlink:href="#DejaVuSans-61" transform="translate(3429.341797 0)"/>
    <use xlink:href="#DejaVuSans-6e" transform="translate(3490.621094 0)"/>
    <use xlink:href="#DejaVuSans-20" transform="translate(3554 0)"/>
    <use xlink:href="#DejaVuSans-74" transform="translate(3585.787109 0)"/>
    <use xlink:href="#DejaVuSans-61" transform="translate(3624.996094 0)"/>
    <use xlink:href="#DejaVuSans-6f" transform="translate(3686.275391 0)"/>
    <use xlink:href="#DejaVuSans-20" transform="translate(3747.457031 0)"/>
    <use xlink:href="#DejaVuSans-64" transform="translate(3779.244141 0)"/>
    <use xlink:href="#DejaVuSans-69" transform="translate(3842.720703 0)"/>
    <use xlink:href="#DejaVuSans-6e" transform="translate(3870.503906 0)"/>
    <use xlink:href="#DejaVuSans-68" transform="translate(3933.882812 0)"/>
    <use xlink:href="#DejaVuSans-20" transform="translate(3997.261719 0)"/>
    <use xlink:href="#DejaVuSans-6d" transform="translate(4029.048828 0)"/>
    <use xlink:href="#DejaVuSans-6f" transform="translate(4126.460938 0)"/>
    <use xlink:href="#DejaVuSans-69" transform="translate(4187.642578 0)"/>
   </g>
  </g>
 </g>
 <defs>
  <clipPath id="p716db06109">
   <rect x="50.24" y="69.36" width="658.96" height="238.48"/>
  </clipPath>
  <clipPath id="pb909d6886a">
   <rect x="50.24" y="334.72" width="658.96" height="108.4"/>
  </clipPath>
 </defs>
</svg>
